Halibut-Extended.ufo
<glyph name="exclam" format="2">
  <advance width="294"/>
  <unicode hex="0021"/>
  <outline>
    <contour>
      <point x="200" y="720" type="line"/>
      <point x="156" y="145" type="line"/>
      <point x="130" y="145" type="line"/>
      <point x="84" y="720" type="line"/>
    </contour>
    <component base="dotaccentcomb" xOffset="35" yOffset="-540"/>
  </outline>
</glyph>
<glyph name="numbersign" format="2">
  <advance width="744"/>
  <unicode hex="0023"/>
  <outline>
    <contour>
      <point x="4" y="159" type="line"/>
      <point x="173" y="159" type="line"/>
      <point x="140" y="0" type="line"/>
      <point x="192" y="0" type="line"/>
      <point x="224" y="159" type="line"/>
      <point x="465" y="159" type="line"/>
      <point x="432" y="0" type="line"/>
      <point x="484" y="0" type="line"/>
      <point x="515" y="159" type="line"/>
      <point x="704" y="159" type="line"/>
      <point x="704" y="208" type="line"/>
      <point x="525" y="208" type="line"/>
      <point x="562" y="387" type="line"/>
      <point x="740" y="387" type="line"/>
      <point x="740" y="436" type="line"/>
      <point x="572" y="436" type="line"/>
      <point x="606" y="600" type="line"/>
      <point x="554" y="600" type="line"/>
      <point x="520" y="436" type="line"/>
      <point x="280" y="436" type="line"/>
      <point x="314" y="600" type="line"/>
      <point x="262" y="600" type="line"/>
      <point x="228" y="436" type="line"/>
      <point x="46" y="436" type="line"/>
      <point x="46" y="387" type="line"/>
      <point x="219" y="387" type="line"/>
      <point x="182" y="208" type="line"/>
      <point x="4" y="208" type="line"/>
    </contour>
    <contour>
      <point x="234" y="208" type="line"/>
      <point x="271" y="387" type="line"/>
      <point x="511" y="387" type="line"/>
      <point x="474" y="208" type="line"/>
    </contour>
  </outline>
</glyph>
<glyph name="dollar" format="2">
  <advance width="775"/>
  <unicode hex="0024"/>
  <outline>
    <contour>
      <point x="357" y="706" type="line"/>
      <point x="357" y="-96" type="line"/>
      <point x="401" y="-96" type="line"/>
      <point x="401" y="706" type="line"/>
    </contour>
    <contour>
      <point x="29" y="58" type="line"/>
      <point x="110" y="14"/>
      <point x="262" y="-20"/>
      <point x="383" y="-20" type="curve" smooth="yes"/>
      <point x="584" y="-20"/>
      <point x="731" y="72"/>
      <point x="731" y="198" type="curve" smooth="yes"/>
      <point x="731" y="287"/>
      <point x="657" y="336"/>
      <point x="499" y="350" type="curve" smooth="yes"/>
      <point x="299" y="368" type="line" smooth="yes"/>
      <point x="182" y="379"/>
      <point x="133" y="406"/>
      <point x="134" y="459" type="curve" smooth="yes"/>
      <point x="136" y="529"/>
      <point x="232" y="578"/>
      <point x="367" y="578" type="curve" smooth="yes"/>
      <point x="444" y="578"/>
      <point x="530" y="561"/>
      <point x="606" y="531" type="curve"/>
      <point x="625" y="396" type="line"/>
      <point x="633" y="394" type="line"/>
      <point x="690" y="584" type="line"/>
      <point x="594" y="608"/>
      <point x="470" y="625"/>
      <point x="383" y="625" type="curve" smooth="yes"/>
      <point x="192" y="625"/>
      <point x="59" y="547"/>
      <point x="56" y="434" type="curve" smooth="yes"/>
      <point x="54" y="349"/>
      <point x="128" y="295"/>
      <point x="264" y="283" type="curve" smooth="yes"/>
      <point x="464" y="265" type="line" smooth="yes"/>
      <point x="590" y="253"/>
      <point x="645" y="220"/>
      <point x="644" y="157" type="curve" smooth="yes"/>
      <point x="642" y="81"/>
      <point x="555" y="34"/>
      <point x="416" y="34" type="curve" smooth="yes"/>
      <point x="301" y="34"/>
      <point x="168" y="66"/>
      <point x="114" y="107" type="curve"/>
      <point x="94" y="266" type="line"/>
      <point x="86" y="268" type="line"/>
    </contour>
  </outline>
</glyph>
<glyph name="percent" format="2">
	<advance width="800"/>
	<unicode hex="0025"/>
	<outline>
		<contour>
			<point x="588" y="-4" type="curve" smooth="yes"/>
			<point x="677" y="-4"/>
			<point x="756" y="63"/>
			<point x="756" y="136" type="curve" smooth="yes"/>
			<point x="756" y="209"/>
			<point x="680" y="273"/>
			<point x="588" y="273" type="curve" smooth="yes"/>
			<point x="498" y="273"/>
			<point x="419" y="209"/>
			<point x="419" y="136" type="curve" smooth="yes"/>
			<point x="419" y="63"/>
			<point x="498" y="-4"/>
		</contour>
		<contour>
			<point x="588" y="46" type="curve" smooth="yes"/>
			<point x="522" y="46"/>
			<point x="481" y="84"/>
			<point x="481" y="136" type="curve" smooth="yes"/>
			<point x="481" y="186"/>
			<point x="528" y="224"/>
			<point x="588" y="223" type="curve" smooth="yes"/>
			<point x="647" y="222"/>
			<point x="694" y="186"/>
			<point x="694" y="136" type="curve" smooth="yes"/>
			<point x="694" y="83"/>
			<point x="653" y="46"/>
		</contour>
		<contour>
			<point x="398" y="322" type="line"/>
			<point x="413" y="312" type="line"/>
			<point x="696" y="600" type="line"/>
			<point x="559" y="600" type="line"/>
		</contour>
		<contour>
			<point x="213" y="323" type="curve" smooth="yes"/>
			<point x="302" y="323"/>
			<point x="381" y="390"/>
			<point x="381" y="463" type="curve" smooth="yes"/>
			<point x="381" y="536"/>
			<point x="305" y="600"/>
			<point x="213" y="600" type="curve" smooth="yes"/>
			<point x="123" y="600"/>
			<point x="44" y="536"/>
			<point x="44" y="463" type="curve" smooth="yes"/>
			<point x="44" y="390"/>
			<point x="123" y="323"/>
		</contour>
		<contour>
			<point x="213" y="373" type="curve" smooth="yes"/>
			<point x="147" y="373"/>
			<point x="106" y="411"/>
			<point x="106" y="463" type="curve" smooth="yes"/>
			<point x="106" y="513"/>
			<point x="153" y="551"/>
			<point x="213" y="550" type="curve" smooth="yes"/>
			<point x="272" y="549"/>
			<point x="319" y="513"/>
			<point x="319" y="463" type="curve" smooth="yes"/>
			<point x="319" y="410"/>
			<point x="278" y="373"/>
		</contour>
		<contour>
			<point x="386" y="278" type="line"/>
			<point x="371" y="288" type="line"/>
			<point x="88" y="0" type="line"/>
			<point x="225" y="0" type="line"/>
		</contour>
	</outline>
</glyph>
<glyph name="ampersand" format="2">
  <advance width="839"/>
  <unicode hex="0026"/>
  <outline>
    <contour>
      <point x="-6" y="163" type="curve" smooth="yes"/>
      <point x="-6" y="53"/>
      <point x="145" y="-20"/>
      <point x="351" y="-20" type="curve" smooth="yes"/>
      <point x="608" y="-20"/>
      <point x="783" y="111"/>
      <point x="766" y="306" type="curve"/>
      <point x="863" y="331" type="line"/>
      <point x="861" y="339" type="line"/>
      <point x="394" y="357" type="line"/>
      <point x="433" y="148" type="line"/>
      <point x="441" y="150" type="line"/>
      <point x="475" y="299" type="line"/>
      <point x="742" y="299" type="line"/>
      <point x="673" y="327" type="line"/>
      <point x="718" y="138"/>
      <point x="604" y="34"/>
      <point x="399" y="34" type="curve" smooth="yes"/>
      <point x="207" y="34"/>
      <point x="96" y="114"/>
      <point x="96" y="201" type="curve" smooth="yes"/>
      <point x="96" y="276"/>
      <point x="161" y="308"/>
      <point x="284" y="306" type="curve"/>
      <point x="300" y="346" type="line"/>
      <point x="232" y="359"/>
      <point x="180" y="417"/>
      <point x="180" y="477" type="curve" smooth="yes"/>
      <point x="180" y="531"/>
      <point x="226" y="571"/>
      <point x="325" y="571" type="curve" smooth="yes"/>
      <point x="408" y="571"/>
      <point x="473" y="558"/>
      <point x="528" y="525" type="curve"/>
      <point x="570" y="392" type="line"/>
      <point x="578" y="390" type="line"/>
      <point x="614" y="559" type="line"/>
      <point x="540" y="601"/>
      <point x="456" y="625"/>
      <point x="378" y="625" type="curve" smooth="yes"/>
      <point x="216" y="625"/>
      <point x="78" y="543"/>
      <point x="78" y="447" type="curve" smooth="yes"/>
      <point x="78" y="389"/>
      <point x="116" y="341"/>
      <point x="198" y="319" type="curve"/>
      <point x="201" y="339" type="line"/>
      <point x="79" y="329"/>
      <point x="-6" y="248"/>
    </contour>
  </outline>
</glyph>
<glyph name="quotesingle" format="2">
	<advance width="190"/>
	<unicode hex="0027"/>
	<outline>
		<contour>
			<point x="156" y="706" type="line"/>
			<point x="54" y="706" type="line"/>
			<point x="96" y="505" type="line"/>
			<point x="114" y="505" type="line"/>
		</contour>
	</outline>
</glyph>
<glyph name="parenleft" format="2">
  <advance width="361"/>
  <unicode hex="0028"/>
  <outline>
    <contour>
      <point x="289" y="700" type="line"/>
      <point x="165" y="555"/>
      <point x="94" y="406"/>
      <point x="94" y="291" type="curve" smooth="yes"/>
      <point x="94" y="168"/>
      <point x="172" y="18"/>
      <point x="289" y="-118" type="curve"/>
      <point x="307" y="-105" type="line"/>
      <point x="239" y="-2"/>
      <point x="189" y="155"/>
      <point x="189" y="291" type="curve" smooth="yes"/>
      <point x="189" y="427"/>
      <point x="239" y="584"/>
      <point x="307" y="687" type="curve"/>
    </contour>
  </outline>
</glyph>
<glyph name="asterisk" format="2">
	<advance width="419"/>
	<unicode hex="002A"/>
	<outline>
		<contour>
			<point x="155" y="706" type="line"/>
			<point x="179" y="571" type="line"/>
			<point x="19" y="634" type="line"/>
			<point x="-6" y="559" type="line"/>
			<point x="162" y="535" type="line"/>
			<point x="38" y="440" type="line"/>
			<point x="125" y="398" type="line"/>
			<point x="207" y="515" type="line"/>
			<point x="295" y="399" type="line"/>
			<point x="381" y="440" type="line"/>
			<point x="255" y="533" type="line"/>
			<point x="425" y="559" type="line"/>
			<point x="399" y="634" type="line"/>
			<point x="233" y="571" type="line"/>
			<point x="263" y="706" type="line"/>
		</contour>
	</outline>
</glyph>
<glyph name="plus" format="2">
  <advance width="541"/>
  <unicode hex="002B"/>
  <outline>
    <contour>
      <point x="54" y="253" type="line"/>
      <point x="241" y="251" type="line"/>
      <point x="241" y="64" type="line"/>
      <point x="302" y="64" type="line"/>
      <point x="302" y="252" type="line"/>
      <point x="487" y="252" type="line"/>
      <point x="487" y="309" type="line"/>
      <point x="302" y="309" type="line"/>
      <point x="302" y="496" type="line"/>
      <point x="242" y="496" type="line"/>
      <point x="240" y="309" type="line"/>
      <point x="54" y="309" type="line"/>
    </contour>
  </outline>
</glyph>
<glyph name="comma" format="2">
	<advance width="304"/>
	<unicode hex="002C"/>
	<outline>
		<contour>
			<point x="230" y="104" type="line"/>
			<point x="114" y="104" type="line"/>
			<point x="74" y="-122" type="line"/>
			<point x="92" y="-122" type="line"/>
		</contour>
	</outline>
</glyph>
<glyph name="hyphen" format="2">
	<advance width="588"/>
	<unicode hex="002D"/>
	<outline>
		<contour>
			<point x="74" y="251" type="line"/>
			<point x="74" y="228" type="line"/>
			<point x="514" y="195" type="line"/>
			<point x="514" y="283" type="line"/>
		</contour>
	</outline>
</glyph>
<glyph name="slash" format="2">
  <advance width="485"/>
  <unicode hex="002F"/>
  <outline>
    <contour>
      <point x="4" y="-103" type="line"/>
      <point x="47" y="-127" type="line"/>
      <point x="511" y="702" type="line"/>
      <point x="469" y="727" type="line"/>
    </contour>
  </outline>
</glyph>
<glyph name="zero" format="2">
  <advance width="861"/>
  <unicode hex="0030"/>
  <outline>
    <contour>
      <point x="416" y="-20" type="curve" smooth="yes"/>
      <point x="648" y="-20"/>
      <point x="817" y="129"/>
      <point x="817" y="326" type="curve" smooth="yes"/>
      <point x="817" y="503"/>
      <point x="671" y="625"/>
      <point x="456" y="625" type="curve" smooth="yes"/>
      <point x="222" y="625"/>
      <point x="44" y="477"/>
      <point x="44" y="286" type="curve" smooth="yes"/>
      <point x="44" y="110"/>
      <point x="198" y="-20"/>
    </contour>
    <contour>
      <point x="451" y="31" type="curve" smooth="yes"/>
      <point x="287" y="31"/>
      <point x="152" y="159"/>
      <point x="152" y="324" type="curve" smooth="yes"/>
      <point x="152" y="481"/>
      <point x="248" y="574"/>
      <point x="423" y="574" type="curve" smooth="yes"/>
      <point x="579" y="574"/>
      <point x="709" y="451"/>
      <point x="709" y="289" type="curve" smooth="yes"/>
      <point x="709" y="129"/>
      <point x="620" y="31"/>
    </contour>
  </outline>
</glyph>
<glyph name="one" format="2">
  <advance width="491"/>
  <unicode hex="0031"/>
  <outline>
    <contour>
      <point x="16" y="460" type="line"/>
      <point x="201" y="501" type="line"/>
      <point x="201" y="50" type="line"/>
      <point x="21" y="8" type="line"/>
      <point x="23" y="0" type="line"/>
      <point x="475" y="0" type="line"/>
      <point x="477" y="8" type="line"/>
      <point x="297" y="50" type="line"/>
      <point x="298" y="620" type="line"/>
      <point x="14" y="468" type="line"/>
    </contour>
  </outline>
</glyph>
<glyph name="two" format="2">
	<advance width="876"/>
	<unicode hex="0032"/>
	<outline>
		<contour>
			<point x="398" y="569" type="curve" smooth="yes"/>
			<point x="533" y="569"/>
			<point x="617" y="502"/>
			<point x="616" y="397" type="curve" smooth="yes"/>
			<point x="615" y="295"/>
			<point x="534" y="243"/>
			<point x="56" y="34" type="curve"/>
			<point x="74" y="0" type="line"/>
			<point x="792" y="0" type="line"/>
			<point x="772" y="226" type="line"/>
			<point x="764" y="224" type="line"/>
			<point x="692" y="64" type="line"/>
			<point x="136" y="48" type="line"/>
			<point x="142" y="6" type="line"/>
			<point x="585" y="199"/>
			<point x="739" y="306"/>
			<point x="738" y="423" type="curve" smooth="yes"/>
			<point x="737" y="536"/>
			<point x="611" y="623"/>
			<point x="430" y="623" type="curve" smooth="yes"/>
			<point x="314" y="623"/>
			<point x="168" y="599"/>
			<point x="80" y="574" type="curve"/>
			<point x="127" y="363" type="line"/>
			<point x="135" y="365" type="line"/>
			<point x="172" y="546" type="line"/>
			<point x="233" y="560"/>
			<point x="308" y="569"/>
		</contour>
	</outline>
</glyph>
<glyph name="three" format="2">
  <advance width="842"/>
  <unicode hex="0033"/>
  <outline>
    <contour>
      <point x="454" y="318" type="curve" smooth="yes"/>
      <point x="605" y="318"/>
      <point x="694" y="258"/>
      <point x="694" y="170" type="curve" smooth="yes"/>
      <point x="694" y="82"/>
      <point x="594" y="29"/>
      <point x="410" y="29" type="curve" smooth="yes"/>
      <point x="286" y="29"/>
      <point x="139" y="88"/>
      <point x="116" y="127" type="curve"/>
      <point x="99" y="294" type="line"/>
      <point x="91" y="296" type="line"/>
      <point x="24" y="95" type="line"/>
      <point x="107" y="15"/>
      <point x="227" y="-20"/>
      <point x="410" y="-20" type="curve" smooth="yes"/>
      <point x="611" y="-20"/>
      <point x="798" y="76"/>
      <point x="798" y="206" type="curve" smooth="yes"/>
      <point x="798" y="313"/>
      <point x="668" y="386"/>
      <point x="546" y="386" type="curve" smooth="yes"/>
      <point x="462" y="386"/>
      <point x="356" y="354"/>
      <point x="322" y="333" type="curve"/>
      <point x="318" y="318" type="line"/>
      <point x="753" y="554" type="line"/>
      <point x="732" y="600" type="line"/>
      <point x="62" y="612" type="line"/>
      <point x="102" y="386" type="line"/>
      <point x="110" y="388" type="line"/>
      <point x="142" y="541" type="line"/>
      <point x="670" y="548" type="line"/>
      <point x="664" y="579" type="line"/>
      <point x="199" y="332" type="line"/>
      <point x="238" y="276" type="line"/>
      <point x="313" y="306"/>
      <point x="381" y="318"/>
    </contour>
  </outline>
</glyph>
<glyph name="four" format="2">
	<advance width="863"/>
	<unicode hex="0034"/>
	<outline>
		<contour>
			<point x="835" y="153" type="line"/>
			<point x="835" y="200" type="line"/>
			<point x="68" y="200" type="line"/>
			<point x="88" y="166" type="line"/>
			<point x="583" y="553" type="line"/>
			<point x="526" y="570" type="line"/>
			<point x="526" y="50" type="line"/>
			<point x="351" y="8" type="line"/>
			<point x="353" y="0" type="line"/>
			<point x="758" y="0" type="line"/>
			<point x="760" y="8" type="line"/>
			<point x="630" y="50" type="line"/>
			<point x="630" y="552" type="line"/>
			<point x="750" y="592" type="line"/>
			<point x="748" y="600" type="line"/>
			<point x="526" y="600" type="line"/>
			<point x="10" y="198" type="line"/>
			<point x="29" y="153" type="line"/>
		</contour>
	</outline>
</glyph>
<glyph name="five" format="2">
	<advance width="869"/>
	<unicode hex="0035"/>
	<outline>
		<contour>
			<point x="815" y="208" type="curve" smooth="yes"/>
			<point x="815" y="330"/>
			<point x="663" y="396"/>
			<point x="465" y="396" type="curve" smooth="yes"/>
			<point x="343" y="396"/>
			<point x="230" y="363"/>
			<point x="170" y="306" type="curve"/>
			<point x="181" y="289" type="line"/>
			<point x="249" y="592" type="line"/>
			<point x="182" y="559" type="line"/>
			<point x="683" y="551" type="line"/>
			<point x="717" y="392" type="line"/>
			<point x="725" y="390" type="line"/>
			<point x="785" y="612" type="line"/>
			<point x="168" y="600" type="line"/>
			<point x="102" y="315" type="line"/>
			<point x="159" y="265" type="line"/>
			<point x="224" y="293"/>
			<point x="317" y="312"/>
			<point x="412" y="312" type="curve" smooth="yes"/>
			<point x="575" y="312"/>
			<point x="712" y="262"/>
			<point x="712" y="170" type="curve" smooth="yes"/>
			<point x="712" y="84"/>
			<point x="575" y="29"/>
			<point x="428" y="29" type="curve" smooth="yes"/>
			<point x="316" y="29"/>
			<point x="228" y="54"/>
			<point x="141" y="89" type="curve"/>
			<point x="124" y="250" type="line"/>
			<point x="116" y="252" type="line"/>
			<point x="49" y="55" type="line"/>
			<point x="120" y="18"/>
			<point x="276" y="-20"/>
			<point x="429" y="-20" type="curve" smooth="yes"/>
			<point x="634" y="-20"/>
			<point x="815" y="72"/>
		</contour>
	</outline>
</glyph>
<glyph name="six" format="2">
	<advance width="916"/>
	<unicode hex="0036"/>
	<outline>
		<contour>
			<point x="147" y="264" type="curve"/>
			<point x="152" y="202" type="line"/>
			<point x="254" y="300"/>
			<point x="356" y="331"/>
			<point x="477" y="331" type="curve" smooth="yes"/>
			<point x="638" y="331"/>
			<point x="758" y="267"/>
			<point x="758" y="185" type="curve" smooth="yes"/>
			<point x="758" y="96"/>
			<point x="647" y="31"/>
			<point x="495" y="31" type="curve" smooth="yes"/>
			<point x="292" y="31"/>
			<point x="157" y="138"/>
			<point x="157" y="299" type="curve" smooth="yes"/>
			<point x="157" y="455"/>
			<point x="286" y="574"/>
			<point x="466" y="574" type="curve" smooth="yes"/>
			<point x="565" y="574"/>
			<point x="653" y="556"/>
			<point x="710" y="533" type="curve"/>
			<point x="735" y="406" type="line"/>
			<point x="743" y="404" type="line"/>
			<point x="800" y="577" type="line"/>
			<point x="727" y="604"/>
			<point x="607" y="625"/>
			<point x="500" y="625" type="curve" smooth="yes"/>
			<point x="237" y="625"/>
			<point x="54" y="481"/>
			<point x="54" y="273" type="curve" smooth="yes"/>
			<point x="54" y="86"/>
			<point x="206" y="-20"/>
			<point x="447" y="-20" type="curve" smooth="yes"/>
			<point x="676" y="-20"/>
			<point x="862" y="86"/>
			<point x="862" y="218" type="curve" smooth="yes"/>
			<point x="862" y="320"/>
			<point x="736" y="384"/>
			<point x="536" y="383" type="curve" smooth="yes"/>
			<point x="373" y="382"/>
			<point x="237" y="338"/>
		</contour>
	</outline>
</glyph>
<glyph name="seven" format="2">
	<advance width="720"/>
	<unicode hex="0037"/>
	<outline>
		<contour>
			<point x="29" y="612" type="line"/>
			<point x="59" y="367" type="line"/>
			<point x="67" y="369" type="line"/>
			<point x="115" y="542" type="line"/>
			<point x="651" y="551" type="line"/>
			<point x="607" y="588" type="line"/>
			<point x="269" y="50" type="line"/>
			<point x="109" y="8" type="line"/>
			<point x="111" y="0" type="line"/>
			<point x="531" y="0" type="line"/>
			<point x="533" y="8" type="line"/>
			<point x="373" y="50" type="line"/>
			<point x="676" y="552" type="line"/>
			<point x="665" y="600" type="line"/>
		</contour>
	</outline>
</glyph>
<glyph name="eight" format="2">
  <advance width="927"/>
  <unicode hex="0038"/>
  <outline>
    <contour>
      <point x="369" y="306" type="curve" smooth="yes"/>
      <point x="543" y="280" type="line" smooth="yes"/>
      <point x="726" y="253"/>
      <point x="779" y="211"/>
      <point x="779" y="154" type="curve" smooth="yes"/>
      <point x="779" y="92"/>
      <point x="663" y="32"/>
      <point x="519" y="32" type="curve" smooth="yes"/>
      <point x="341" y="32"/>
      <point x="167" y="106"/>
      <point x="167" y="181" type="curve" smooth="yes"/>
      <point x="167" y="232"/>
      <point x="214" y="283"/>
      <point x="449" y="298" type="curve"/>
      <point x="353" y="323" type="line"/>
      <point x="165" y="297"/>
      <point x="64" y="224"/>
      <point x="64" y="143" type="curve" smooth="yes"/>
      <point x="64" y="50"/>
      <point x="237" y="-20"/>
      <point x="469" y="-20" type="curve" smooth="yes"/>
      <point x="717" y="-20"/>
      <point x="883" y="61"/>
      <point x="883" y="183" type="curve" smooth="yes"/>
      <point x="883" y="252"/>
      <point x="792" y="306"/>
      <point x="573" y="344" type="curve" smooth="yes"/>
      <point x="347" y="383" type="line" smooth="yes"/>
      <point x="259" y="398"/>
      <point x="212" y="431"/>
      <point x="212" y="480" type="curve" smooth="yes"/>
      <point x="212" y="534"/>
      <point x="301" y="571"/>
      <point x="434" y="571" type="curve" smooth="yes"/>
      <point x="606" y="571"/>
      <point x="724" y="526"/>
      <point x="724" y="456" type="curve" smooth="yes"/>
      <point x="724" y="397"/>
      <point x="674" y="377"/>
      <point x="539" y="345" type="curve"/>
      <point x="594" y="326" type="line"/>
      <point x="749" y="356"/>
      <point x="828" y="417"/>
      <point x="828" y="490" type="curve" smooth="yes"/>
      <point x="828" y="571"/>
      <point x="693" y="625"/>
      <point x="494" y="625" type="curve" smooth="yes"/>
      <point x="264" y="625"/>
      <point x="109" y="563"/>
      <point x="109" y="469" type="curve" smooth="yes"/>
      <point x="109" y="378"/>
      <point x="199" y="331"/>
    </contour>
  </outline>
</glyph>
<glyph name="nine" format="2">
	<advance width="902"/>
	<unicode hex="0039"/>
	<outline>
		<contour>
			<point x="768" y="350" type="curve"/>
			<point x="763" y="412" type="line"/>
			<point x="677" y="321"/>
			<point x="572" y="275"/>
			<point x="455" y="275" type="curve" smooth="yes"/>
			<point x="274" y="275"/>
			<point x="157" y="334"/>
			<point x="157" y="426" type="curve" smooth="yes"/>
			<point x="157" y="516"/>
			<point x="264" y="574"/>
			<point x="420" y="574" type="curve" smooth="yes"/>
			<point x="629" y="574"/>
			<point x="758" y="472"/>
			<point x="758" y="306" type="curve" smooth="yes"/>
			<point x="758" y="133"/>
			<point x="650" y="31"/>
			<point x="450" y="31" type="curve" smooth="yes"/>
			<point x="353" y="31"/>
			<point x="216" y="50"/>
			<point x="171" y="77" type="curve"/>
			<point x="146" y="238" type="line"/>
			<point x="138" y="240" type="line"/>
			<point x="81" y="46" type="line"/>
			<point x="154" y="3"/>
			<point x="302" y="-20"/>
			<point x="415" y="-20" type="curve" smooth="yes"/>
			<point x="683" y="-20"/>
			<point x="848" y="119"/>
			<point x="848" y="333" type="curve" smooth="yes"/>
			<point x="848" y="521"/>
			<point x="711" y="625"/>
			<point x="469" y="625" type="curve" smooth="yes"/>
			<point x="237" y="625"/>
			<point x="54" y="525"/>
			<point x="54" y="394" type="curve" smooth="yes"/>
			<point x="54" y="289"/>
			<point x="173" y="221"/>
			<point x="394" y="222" type="curve" smooth="yes"/>
			<point x="560" y="223"/>
			<point x="678" y="262"/>
		</contour>
	</outline>
</glyph>
<glyph name="equal" format="2">
  <advance width="530"/>
  <unicode hex="003D"/>
  <outline>
    <contour>
      <point x="54" y="392" type="line"/>
      <point x="54" y="330" type="line"/>
      <point x="476" y="329" type="line"/>
      <point x="476" y="392" type="line"/>
    </contour>
    <contour>
      <point x="54" y="232" type="line"/>
      <point x="54" y="170" type="line"/>
      <point x="476" y="169" type="line"/>
      <point x="476" y="232" type="line"/>
    </contour>
  </outline>
</glyph>
<glyph name="greater" format="2">
  <advance width="520"/>
  <unicode hex="003E"/>
  <outline>
    <contour>
      <point x="54" y="102" type="line"/>
      <point x="466" y="256" type="line"/>
      <point x="466" y="333" type="line"/>
      <point x="54" y="488" type="line"/>
      <point x="54" y="413" type="line"/>
      <point x="444" y="269" type="line"/>
      <point x="444" y="320" type="line"/>
      <point x="54" y="177" type="line"/>
    </contour>
  </outline>
</glyph>
<glyph name="question" format="2">
	<advance width="701"/>
	<unicode hex="003F"/>
	<outline>
		<contour>
			<point x="334" y="678" type="curve" smooth="yes"/>
			<point x="476" y="678"/>
			<point x="552" y="623"/>
			<point x="552" y="521" type="curve" smooth="yes"/>
			<point x="551" y="408"/>
			<point x="458" y="303"/>
			<point x="195" y="177" type="curve"/>
			<point x="213" y="143" type="line"/>
			<point x="515" y="141" type="line"/>
			<point x="517" y="149" type="line"/>
			<point x="275" y="201" type="line"/>
			<point x="261" y="169" type="line"/>
			<point x="528" y="274"/>
			<point x="658" y="414"/>
			<point x="657" y="547" type="curve" smooth="yes"/>
			<point x="656" y="669"/>
			<point x="557" y="726"/>
			<point x="347" y="726" type="curve" smooth="yes"/>
			<point x="258" y="726"/>
			<point x="170" y="715"/>
			<point x="34" y="688" type="curve"/>
			<point x="95" y="496" type="line"/>
			<point x="103" y="498" type="line"/>
			<point x="118" y="654" type="line"/>
			<point x="190" y="669"/>
			<point x="274" y="678"/>
		</contour>
		<component base="dotaccentcomb" xOffset="245" yOffset="-540"/>
	</outline>
</glyph>
<glyph name="at" format="2">
  <advance width="919"/>
  <unicode hex="0040"/>
  <outline>
    <contour>
      <point x="84" y="194" type="curve" smooth="yes"/>
      <point x="84" y="28"/>
      <point x="248" y="-93"/>
      <point x="471" y="-93" type="curve" smooth="yes"/>
      <point x="611" y="-93"/>
      <point x="737" y="-45"/>
      <point x="786" y="27" type="curve"/>
      <point x="774" y="38" type="line"/>
      <point x="730" y="-19"/>
      <point x="630" y="-54"/>
      <point x="511" y="-54" type="curve" smooth="yes"/>
      <point x="300" y="-54"/>
      <point x="171" y="45"/>
      <point x="171" y="219" type="curve" smooth="yes"/>
      <point x="171" y="370"/>
      <point x="306" y="462"/>
      <point x="475" y="462" type="curve" smooth="yes"/>
      <point x="678" y="462"/>
      <point x="778" y="391"/>
      <point x="778" y="232" type="curve" smooth="yes"/>
      <point x="778" y="149"/>
      <point x="747" y="106"/>
      <point x="707" y="106" type="curve" smooth="yes"/>
      <point x="675" y="106"/>
      <point x="657" y="133"/>
      <point x="661" y="174" type="curve" smooth="yes"/>
      <point x="681" y="374" type="line"/>
      <point x="605" y="364" type="line"/>
      <point x="604" y="337" type="line"/>
      <point x="578" y="348"/>
      <point x="554" y="352"/>
      <point x="523" y="352" type="curve" smooth="yes"/>
      <point x="381" y="352"/>
      <point x="251" y="271"/>
      <point x="251" y="182" type="curve" smooth="yes"/>
      <point x="251" y="125"/>
      <point x="313" y="87"/>
      <point x="407" y="87" type="curve" smooth="yes"/>
      <point x="488" y="87"/>
      <point x="552" y="114"/>
      <point x="601" y="168" type="curve"/>
      <point x="584" y="171" type="line"/>
      <point x="575" y="119"/>
      <point x="603" y="72"/>
      <point x="683" y="72" type="curve" smooth="yes"/>
      <point x="784" y="72"/>
      <point x="865" y="152"/>
      <point x="865" y="252" type="curve" smooth="yes"/>
      <point x="865" y="394"/>
      <point x="704" y="503"/>
      <point x="496" y="503" type="curve" smooth="yes"/>
      <point x="265" y="503"/>
      <point x="84" y="368"/>
    </contour>
    <contour>
      <point x="340" y="191" type="curve" smooth="yes"/>
      <point x="340" y="260"/>
      <point x="414" y="321"/>
      <point x="497" y="321" type="curve" smooth="yes"/>
      <point x="536" y="321"/>
      <point x="570" y="308"/>
      <point x="596" y="284" type="curve"/>
      <point x="584" y="180" type="line"/>
      <point x="563" y="145"/>
      <point x="507" y="122"/>
      <point x="443" y="122" type="curve" smooth="yes"/>
      <point x="374" y="122"/>
      <point x="340" y="145"/>
    </contour>
  </outline>
</glyph>
<glyph name="A" format="2">
  <advance width="848"/>
  <unicode hex="0041"/>
  <anchor x="402" y="0" name="bottom"/>
  <anchor x="714" y="10" name="ogonek"/>
  <anchor x="386" y="600" name="top"/>
  <outline>
    <contour>
      <point x="638" y="185" type="line"/>
      <point x="638" y="231" type="line"/>
      <point x="161" y="231" type="line"/>
      <point x="161" y="185" type="line"/>
    </contour>
    <contour>
      <point x="363" y="572" type="line"/>
      <point x="671" y="50" type="line"/>
      <point x="481" y="8" type="line"/>
      <point x="483" y="0" type="line"/>
      <point x="912" y="0" type="line"/>
      <point x="914" y="8" type="line"/>
      <point x="794" y="50" type="line"/>
      <point x="452" y="600" type="line"/>
      <point x="174" y="600" type="line"/>
      <point x="172" y="592" type="line"/>
      <point x="338" y="552" type="line"/>
      <point x="38" y="49" type="line"/>
      <point x="-82" y="8" type="line"/>
      <point x="-80" y="0" type="line"/>
      <point x="286" y="0" type="line"/>
      <point x="288" y="8" type="line"/>
      <point x="103" y="49" type="line"/>
      <point x="410" y="572" type="line"/>
    </contour>
  </outline>
</glyph>
<glyph name="B" format="2">
  <advance width="917"/>
  <unicode hex="0042"/>
  <guideline x="526" y="293" angle="270"/>
  <anchor x="413" y="0" name="bottom"/>
  <anchor x="413" y="300" name="center"/>
  <anchor x="374" y="600" name="top"/>
  <outline>
    <contour>
      <point x="14" y="11" type="line"/>
      <point x="16" y="0" type="line"/>
      <point x="426" y="1" type="line" smooth="yes"/>
      <point x="724" y="2"/>
      <point x="873" y="49"/>
      <point x="873" y="173" type="curve" smooth="yes"/>
      <point x="873" y="256"/>
      <point x="771" y="323"/>
      <point x="553" y="328" type="curve"/>
      <point x="557" y="311" type="line"/>
      <point x="703" y="322"/>
      <point x="838" y="388"/>
      <point x="838" y="462" type="curve" smooth="yes"/>
      <point x="838" y="559"/>
      <point x="717" y="600"/>
      <point x="457" y="600" type="curve" smooth="yes"/>
      <point x="16" y="600" type="line"/>
      <point x="14" y="589" type="line"/>
      <point x="164" y="550" type="line"/>
      <point x="164" y="50" type="line"/>
    </contour>
    <contour>
      <point x="260" y="56" type="line"/>
      <point x="260" y="283" type="line"/>
      <point x="416" y="283" type="line" smooth="yes"/>
      <point x="696" y="283"/>
      <point x="762" y="259"/>
      <point x="762" y="152" type="curve" smooth="yes"/>
      <point x="762" y="102"/>
      <point x="690" y="33"/>
      <point x="477" y="44" type="curve" smooth="yes"/>
    </contour>
    <contour>
      <point x="262" y="329" type="line"/>
      <point x="262" y="556" type="line"/>
      <point x="416" y="560" type="line" smooth="yes"/>
      <point x="659" y="566"/>
      <point x="727" y="535"/>
      <point x="727" y="442" type="curve" smooth="yes"/>
      <point x="727" y="389"/>
      <point x="642" y="329"/>
      <point x="457" y="329" type="curve" smooth="yes"/>
    </contour>
  </outline>
</glyph>
<glyph name="C" format="2">
  <advance width="891"/>
  <unicode hex="0043"/>
  <anchor x="518" y="0" name="bottom"/>
  <anchor x="485" y="600" name="top"/>
  <outline>
    <contour>
      <point x="467" y="573" type="curve" smooth="yes"/>
      <point x="564" y="573"/>
      <point x="678" y="552"/>
      <point x="765" y="519" type="curve"/>
      <point x="782" y="358" type="line"/>
      <point x="790" y="356" type="line"/>
      <point x="851" y="576" type="line"/>
      <point x="757" y="606"/>
      <point x="625" y="625"/>
      <point x="516" y="625" type="curve" smooth="yes"/>
      <point x="230" y="625"/>
      <point x="24" y="487"/>
      <point x="24" y="296" type="curve" smooth="yes"/>
      <point x="24" y="113"/>
      <point x="217" y="-20"/>
      <point x="481" y="-20" type="curve" smooth="yes"/>
      <point x="622" y="-20"/>
      <point x="739" y="19"/>
      <point x="831" y="98" type="curve"/>
      <point x="818" y="112" type="line"/>
      <point x="758" y="62"/>
      <point x="663" y="32"/>
      <point x="541" y="32" type="curve" smooth="yes"/>
      <point x="290" y="32"/>
      <point x="127" y="144"/>
      <point x="127" y="318" type="curve" smooth="yes"/>
      <point x="127" y="476"/>
      <point x="257" y="573"/>
    </contour>
  </outline>
</glyph>
<glyph name="D" format="2">
  <advance width="1016"/>
  <unicode hex="0044"/>
  <anchor x="511" y="0" name="bottom"/>
  <anchor x="511" y="300" name="center"/>
  <anchor x="513" y="600" name="top"/>
  <outline>
    <contour>
      <point x="16" y="0" type="line"/>
      <point x="441" y="1" type="line" smooth="yes"/>
      <point x="809" y="2"/>
      <point x="987" y="102"/>
      <point x="987" y="300" type="curve" smooth="yes"/>
      <point x="987" y="505"/>
      <point x="819" y="600"/>
      <point x="463" y="600" type="curve" smooth="yes"/>
      <point x="16" y="600" type="line"/>
      <point x="14" y="591" type="line"/>
      <point x="164" y="550" type="line"/>
      <point x="164" y="50" type="line"/>
      <point x="14" y="8" type="line"/>
    </contour>
    <contour>
      <point x="260" y="56" type="line"/>
      <point x="262" y="556" type="line"/>
      <point x="422" y="561" type="line" smooth="yes"/>
      <point x="733" y="570"/>
      <point x="882" y="474"/>
      <point x="882" y="287" type="curve" smooth="yes"/>
      <point x="882" y="119"/>
      <point x="745" y="28"/>
      <point x="483" y="43" type="curve" smooth="yes"/>
    </contour>
  </outline>
</glyph>
<glyph name="E" format="2">
	<advance width="958"/>
	<unicode hex="0045"/>
	<anchor x="491" y="0" name="bottom"/>
	<anchor x="753" y="10" name="ogonek"/>
	<anchor x="488" y="600" name="top"/>
	<anchor x="13" y="600" name="topleft"/>
	<outline>
		<contour>
			<point x="14" y="8" type="line"/>
			<point x="16" y="0" type="line"/>
			<point x="898" y="0" type="line"/>
			<point x="877" y="232" type="line"/>
			<point x="869" y="230" type="line"/>
			<point x="812" y="51" type="line"/>
			<point x="259" y="43" type="line"/>
			<point x="259" y="271" type="line"/>
			<point x="600" y="263" type="line"/>
			<point x="665" y="145" type="line"/>
			<point x="673" y="147" type="line"/>
			<point x="654" y="293" type="line"/>
			<point x="671" y="440" type="line"/>
			<point x="663" y="442" type="line"/>
			<point x="600" y="323" type="line"/>
			<point x="261" y="315" type="line"/>
			<point x="261" y="561" type="line"/>
			<point x="808" y="554" type="line"/>
			<point x="848" y="392" type="line"/>
			<point x="856" y="390" type="line"/>
			<point x="895" y="612" type="line"/>
			<point x="16" y="600" type="line"/>
			<point x="14" y="592" type="line"/>
			<point x="164" y="550" type="line"/>
			<point x="164" y="50" type="line"/>
		</contour>
	</outline>
</glyph>
<glyph name="F" format="2">
  <advance width="839"/>
  <unicode hex="0046"/>
  <anchor x="468" y="0" name="bottom"/>
  <anchor x="480" y="600" name="top"/>
  <outline>
    <contour>
      <point x="16" y="600" type="line"/>
      <point x="14" y="592" type="line"/>
      <point x="164" y="550" type="line"/>
      <point x="165" y="50" type="line"/>
      <point x="15" y="8" type="line"/>
      <point x="17" y="0" type="line"/>
      <point x="458" y="0" type="line"/>
      <point x="460" y="8" type="line"/>
      <point x="261" y="53" type="line"/>
      <point x="261" y="257" type="line"/>
      <point x="570" y="250" type="line"/>
      <point x="635" y="130" type="line"/>
      <point x="643" y="133" type="line"/>
      <point x="624" y="280" type="line"/>
      <point x="641" y="428" type="line"/>
      <point x="633" y="431" type="line"/>
      <point x="570" y="311" type="line"/>
      <point x="261" y="302" type="line"/>
      <point x="260" y="561" type="line"/>
      <point x="759" y="551" type="line"/>
      <point x="798" y="392" type="line"/>
      <point x="805" y="390" type="line"/>
      <point x="845" y="612" type="line"/>
    </contour>
  </outline>
</glyph>
<glyph name="G" format="2">
  <advance width="909"/>
  <unicode hex="0047"/>
  <anchor x="498" y="0" name="bottom"/>
  <anchor x="477" y="600" name="top"/>
  <outline>
    <contour>
      <point x="776" y="206" type="line"/>
      <point x="825" y="-16" type="line"/>
      <point x="835" y="-18" type="line"/>
      <point x="856" y="269" type="line"/>
      <point x="370" y="268" type="line"/>
      <point x="372" y="253" type="line"/>
    </contour>
    <contour>
      <point x="467" y="573" type="curve" smooth="yes"/>
      <point x="560" y="573"/>
      <point x="677" y="552"/>
      <point x="765" y="519" type="curve"/>
      <point x="782" y="358" type="line"/>
      <point x="790" y="356" type="line"/>
      <point x="851" y="576" type="line"/>
      <point x="763" y="605"/>
      <point x="625" y="625"/>
      <point x="516" y="625" type="curve" smooth="yes"/>
      <point x="234" y="625"/>
      <point x="24" y="485"/>
      <point x="24" y="296" type="curve" smooth="yes"/>
      <point x="24" y="110"/>
      <point x="212" y="-20"/>
      <point x="481" y="-20" type="curve" smooth="yes"/>
      <point x="625" y="-20"/>
      <point x="756" y="16"/>
      <point x="822" y="74" type="curve"/>
      <point x="818" y="109" type="line"/>
      <point x="773" y="64"/>
      <point x="659" y="32"/>
      <point x="541" y="32" type="curve" smooth="yes"/>
      <point x="313" y="32"/>
      <point x="127" y="167"/>
      <point x="127" y="334" type="curve" smooth="yes"/>
      <point x="127" y="475"/>
      <point x="266" y="573"/>
    </contour>
  </outline>
</glyph>
<glyph name="H" format="2">
	<advance width="1090"/>
	<unicode hex="0048"/>
	<anchor x="548" y="477" name="bar"/>
	<anchor x="545" y="0" name="bottom"/>
	<anchor x="545" y="300" name="center"/>
	<anchor x="545" y="600" name="top"/>
	<anchor x="-8" y="600" name="topleft"/>
	<outline>
		<contour>
			<point x="241" y="50" type="line"/>
			<point x="241" y="555" type="line"/>
			<point x="411" y="592" type="line"/>
			<point x="409" y="600" type="line"/>
			<point x="16" y="600" type="line"/>
			<point x="14" y="592" type="line"/>
			<point x="144" y="555" type="line"/>
			<point x="144" y="50" type="line"/>
			<point x="14" y="8" type="line"/>
			<point x="16" y="0" type="line"/>
			<point x="409" y="0" type="line"/>
			<point x="411" y="8" type="line"/>
		</contour>
		<contour>
			<point x="925" y="277" type="line"/>
			<point x="925" y="323" type="line"/>
			<point x="186" y="323" type="line"/>
			<point x="186" y="277" type="line"/>
		</contour>
		<contour>
			<point x="849" y="555" type="line"/>
			<point x="849" y="50" type="line"/>
			<point x="679" y="8" type="line"/>
			<point x="681" y="0" type="line"/>
			<point x="1074" y="0" type="line"/>
			<point x="1076" y="8" type="line"/>
			<point x="946" y="50" type="line"/>
			<point x="946" y="555" type="line"/>
			<point x="1076" y="592" type="line"/>
			<point x="1074" y="600" type="line"/>
			<point x="681" y="600" type="line"/>
			<point x="679" y="592" type="line"/>
		</contour>
	</outline>
</glyph>
<glyph name="I" format="2">
  <advance width="423"/>
  <unicode hex="0049"/>
  <anchor x="201" y="10" name="ogonek"/>
  <anchor x="208" y="600" name="top"/>
  <anchor x="9" y="600" name="topleft"/>
  <outline>
    <contour>
      <point x="18" y="8" type="line"/>
      <point x="20" y="0" type="line"/>
      <point x="407" y="0" type="line"/>
      <point x="409" y="8" type="line"/>
      <point x="259" y="50" type="line"/>
      <point x="259" y="550" type="line"/>
      <point x="406" y="592" type="line"/>
      <point x="404" y="600" type="line"/>
      <point x="16" y="600" type="line"/>
      <point x="14" y="592" type="line"/>
      <point x="164" y="550" type="line"/>
      <point x="164" y="50" type="line"/>
    </contour>
  </outline>
</glyph>
<glyph name="J" format="2">
	<advance width="692"/>
	<unicode hex="004A"/>
	<anchor x="335" y="0" name="bottom"/>
	<anchor x="345" y="600" name="top"/>
	<outline>
		<contour>
			<point x="38" y="88" type="curve"/>
			<point x="48" y="107" type="line"/>
			<point x="131" y="65"/>
			<point x="259" y="42"/>
			<point x="357" y="42" type="curve" smooth="yes"/>
			<point x="469" y="42"/>
			<point x="502" y="88"/>
			<point x="502" y="180" type="curve" smooth="yes"/>
			<point x="502" y="590" type="line"/>
			<point x="541" y="551" type="line"/>
			<point x="190" y="547" type="line"/>
			<point x="156" y="388" type="line"/>
			<point x="148" y="386" type="line"/>
			<point x="109" y="608" type="line"/>
			<point x="598" y="600" type="line"/>
			<point x="598" y="200" type="line" smooth="yes"/>
			<point x="598" y="55"/>
			<point x="488" y="-20"/>
			<point x="336" y="-20" type="curve" smooth="yes"/>
			<point x="235" y="-20"/>
			<point x="114" y="24"/>
		</contour>
	</outline>
</glyph>
<glyph name="K" format="2">
	<advance width="1008"/>
	<unicode hex="004B"/>
	<anchor x="513" y="0" name="bottom"/>
	<anchor x="513" y="600" name="top"/>
	<outline>
		<contour>
			<point x="521" y="368" type="line"/>
			<point x="435" y="316" type="line"/>
			<point x="735" y="50" type="line"/>
			<point x="595" y="8" type="line"/>
			<point x="597" y="0" type="line"/>
			<point x="1010" y="0" type="line"/>
			<point x="1012" y="8" type="line"/>
			<point x="878" y="50" type="line"/>
		</contour>
		<contour>
			<point x="218" y="188" type="line"/>
			<point x="218" y="138" type="line"/>
			<point x="813" y="550" type="line"/>
			<point x="979" y="592" type="line"/>
			<point x="977" y="600" type="line"/>
			<point x="584" y="600" type="line"/>
			<point x="582" y="592" type="line"/>
			<point x="716" y="550" type="line"/>
		</contour>
		<contour>
			<point x="265" y="50" type="line"/>
			<point x="265" y="550" type="line"/>
			<point x="420" y="592" type="line"/>
			<point x="418" y="600" type="line"/>
			<point x="21" y="600" type="line"/>
			<point x="19" y="592" type="line"/>
			<point x="169" y="550" type="line"/>
			<point x="169" y="50" type="line"/>
			<point x="14" y="8" type="line"/>
			<point x="16" y="0" type="line"/>
			<point x="413" y="0" type="line"/>
			<point x="415" y="8" type="line"/>
		</contour>
	</outline>
</glyph>
<glyph name="L" format="2">
  <advance width="874"/>
  <unicode hex="004C"/>
  <anchor x="457" y="0" name="bottom"/>
  <anchor x="457" y="300" name="center"/>
  <anchor x="257" y="600" name="top"/>
  <anchor x="477" y="600" name="topright"/>
  <outline>
    <contour>
      <point x="14" y="8" type="line"/>
      <point x="16" y="0" type="line"/>
      <point x="820" y="0" type="line"/>
      <point x="800" y="240" type="line"/>
      <point x="792" y="238" type="line"/>
      <point x="734" y="63" type="line"/>
      <point x="260" y="42" type="line"/>
      <point x="262" y="550" type="line"/>
      <point x="409" y="592" type="line"/>
      <point x="407" y="600" type="line"/>
      <point x="17" y="600" type="line"/>
      <point x="15" y="592" type="line"/>
      <point x="165" y="550" type="line"/>
      <point x="164" y="50" type="line"/>
    </contour>
  </outline>
</glyph>
<glyph name="M" format="2">
	<advance width="1256"/>
	<unicode hex="004D"/>
	<anchor x="642" y="0" name="bottom"/>
	<anchor x="642" y="600" name="top"/>
	<outline>
		<contour>
			<point x="-6" y="8" type="line"/>
			<point x="-4" y="0" type="line"/>
			<point x="376" y="0" type="line"/>
			<point x="378" y="8" type="line"/>
			<point x="191" y="50" type="line"/>
			<point x="277" y="541" type="line"/>
			<point x="240" y="532" type="line"/>
			<point x="558" y="0" type="line"/>
			<point x="628" y="0" type="line"/>
			<point x="965" y="571" type="line"/>
			<point x="945" y="597" type="line"/>
			<point x="1013" y="50" type="line"/>
			<point x="836" y="8" type="line"/>
			<point x="838" y="0" type="line"/>
			<point x="1255" y="0" type="line"/>
			<point x="1257" y="8" type="line"/>
			<point x="1117" y="50" type="line"/>
			<point x="1039" y="552" type="line"/>
			<point x="1143" y="592" type="line"/>
			<point x="1141" y="600" type="line"/>
			<point x="929" y="600" type="line"/>
			<point x="594" y="38" type="line"/>
			<point x="635" y="65" type="line"/>
			<point x="318" y="600" type="line"/>
			<point x="86" y="600" type="line"/>
			<point x="84" y="592" type="line"/>
			<point x="237" y="549" type="line"/>
			<point x="134" y="50" type="line"/>
		</contour>
	</outline>
</glyph>
<glyph name="N" format="2">
	<advance width="1018"/>
	<unicode hex="004E"/>
	<anchor x="524" y="0" name="bottom"/>
	<anchor x="524" y="600" name="top"/>
	<outline>
		<contour>
			<point x="843" y="-13" type="line"/>
			<point x="888" y="0" type="line"/>
			<point x="893" y="550" type="line"/>
			<point x="1014" y="592" type="line"/>
			<point x="1012" y="600" type="line"/>
			<point x="657" y="600" type="line"/>
			<point x="655" y="592" type="line"/>
			<point x="834" y="550" type="line"/>
			<point x="839" y="50" type="line"/>
			<point x="878" y="80" type="line"/>
			<point x="208" y="600" type="line"/>
			<point x="6" y="600" type="line"/>
			<point x="4" y="592" type="line"/>
			<point x="154" y="550" type="line"/>
			<point x="150" y="50" type="line"/>
			<point x="30" y="8" type="line"/>
			<point x="30" y="0" type="line"/>
			<point x="389" y="0" type="line"/>
			<point x="389" y="8" type="line"/>
			<point x="208" y="50" type="line"/>
			<point x="202" y="550" type="line"/>
			<point x="157" y="523" type="line"/>
		</contour>
	</outline>
</glyph>
<glyph name="O" format="2">
	<advance width="967"/>
	<unicode hex="004F"/>
	<anchor x="481" y="0" name="bottom"/>
	<anchor x="481" y="300" name="center"/>
	<anchor x="868" y="10" name="ogonek"/>
	<anchor x="481" y="600" name="top"/>
	<anchor x="17" y="600" name="topleft"/>
	<anchor x="945" y="600" name="topright"/>
	<outline>
		<contour>
			<point x="476" y="-20" type="curve" smooth="yes"/>
			<point x="733" y="-20"/>
			<point x="938" y="127"/>
			<point x="938" y="313" type="curve" smooth="yes"/>
			<point x="938" y="506"/>
			<point x="773" y="625"/>
			<point x="507" y="625" type="curve" smooth="yes"/>
			<point x="240" y="625"/>
			<point x="24" y="478"/>
			<point x="24" y="293" type="curve" smooth="yes"/>
			<point x="24" y="99"/>
			<point x="196" y="-20"/>
		</contour>
		<contour>
			<point x="512" y="31" type="curve" smooth="yes"/>
			<point x="277" y="31"/>
			<point x="126" y="147"/>
			<point x="126" y="331" type="curve" smooth="yes"/>
			<point x="126" y="483"/>
			<point x="257" y="574"/>
			<point x="472" y="574" type="curve" smooth="yes"/>
			<point x="697" y="574"/>
			<point x="836" y="462"/>
			<point x="836" y="276" type="curve" smooth="yes"/>
			<point x="836" y="117"/>
			<point x="723" y="31"/>
		</contour>
	</outline>
</glyph>
<glyph name="P" format="2">
  <advance width="870"/>
  <unicode hex="0050"/>
  <anchor x="449" y="0" name="bottom"/>
  <anchor x="449" y="600" name="top"/>
  <outline>
    <contour>
      <point x="24" y="8" type="line"/>
      <point x="26" y="0" type="line"/>
      <point x="447" y="0" type="line"/>
      <point x="449" y="8" type="line"/>
      <point x="260" y="52" type="line"/>
      <point x="260" y="252" type="line"/>
      <point x="520" y="252" type="line" smooth="yes"/>
      <point x="720" y="252"/>
      <point x="846" y="299"/>
      <point x="846" y="433" type="curve" smooth="yes"/>
      <point x="846" y="557"/>
      <point x="721" y="600"/>
      <point x="526" y="600" type="curve" smooth="yes"/>
      <point x="16" y="600" type="line"/>
      <point x="14" y="592" type="line"/>
      <point x="164" y="550" type="line"/>
      <point x="164" y="50" type="line"/>
    </contour>
    <contour>
      <point x="260" y="304" type="line"/>
      <point x="260" y="553" type="line"/>
      <point x="480" y="553" type="line" smooth="yes"/>
      <point x="609" y="553"/>
      <point x="743" y="548"/>
      <point x="743" y="415" type="curve" smooth="yes"/>
      <point x="743" y="313"/>
      <point x="639" y="287"/>
      <point x="500" y="293" type="curve" smooth="yes"/>
    </contour>
  </outline>
</glyph>
<glyph name="Q" format="2">
  <advance width="967"/>
  <unicode hex="0051"/>
  <anchor x="484" y="0" name="bottom"/>
  <anchor x="481" y="300" name="center"/>
  <anchor x="868" y="10" name="ogonek"/>
  <anchor x="484" y="600" name="top"/>
  <anchor x="17" y="600" name="topleft"/>
  <anchor x="945" y="600" name="topright"/>
  <outline>
    <contour>
      <point x="402" y="204" type="curve" smooth="yes"/>
      <point x="563" y="204"/>
      <point x="679" y="100"/>
      <point x="679" y="-44" type="curve" smooth="yes"/>
      <point x="679" y="-118"/>
      <point x="648" y="-182"/>
      <point x="602" y="-202" type="curve"/>
      <point x="612" y="-212" type="line"/>
      <point x="703" y="-183"/>
      <point x="768" y="-89"/>
      <point x="768" y="12" type="curve" smooth="yes"/>
      <point x="768" y="156"/>
      <point x="638" y="256"/>
      <point x="451" y="256" type="curve" smooth="yes"/>
      <point x="330" y="256"/>
      <point x="221" y="214"/>
      <point x="133" y="133" type="curve"/>
      <point x="153" y="91" type="line"/>
      <point x="240" y="171"/>
      <point x="312" y="204"/>
    </contour>
    <contour>
      <point x="476" y="-20" type="curve" smooth="yes"/>
      <point x="733" y="-20"/>
      <point x="938" y="127"/>
      <point x="938" y="313" type="curve" smooth="yes"/>
      <point x="938" y="506"/>
      <point x="773" y="625"/>
      <point x="507" y="625" type="curve" smooth="yes"/>
      <point x="240" y="625"/>
      <point x="24" y="478"/>
      <point x="24" y="293" type="curve" smooth="yes"/>
      <point x="24" y="99"/>
      <point x="196" y="-20"/>
    </contour>
    <contour>
      <point x="512" y="31" type="curve" smooth="yes"/>
      <point x="277" y="31"/>
      <point x="126" y="147"/>
      <point x="126" y="331" type="curve" smooth="yes"/>
      <point x="126" y="483"/>
      <point x="257" y="574"/>
      <point x="472" y="574" type="curve" smooth="yes"/>
      <point x="697" y="574"/>
      <point x="836" y="462"/>
      <point x="836" y="276" type="curve" smooth="yes"/>
      <point x="836" y="117"/>
      <point x="723" y="31"/>
    </contour>
  </outline>
</glyph>
<glyph name="R" format="2">
	<advance width="985"/>
	<unicode hex="0052"/>
	<anchor x="502" y="0" name="bottom"/>
	<anchor x="482" y="600" name="top"/>
	<outline>
		<contour>
			<point x="262" y="258" type="line"/>
			<point x="650" y="262" type="line" smooth="yes"/>
			<point x="783" y="263"/>
			<point x="911" y="326"/>
			<point x="911" y="436" type="curve" smooth="yes"/>
			<point x="911" y="563"/>
			<point x="788" y="600"/>
			<point x="592" y="600" type="curve" smooth="yes"/>
			<point x="16" y="600" type="line"/>
			<point x="14" y="592" type="line"/>
			<point x="164" y="550" type="line"/>
			<point x="164" y="50" type="line"/>
			<point x="40" y="4" type="line"/>
			<point x="42" y="0" type="line"/>
			<point x="418" y="0" type="line"/>
			<point x="420" y="5" type="line"/>
			<point x="262" y="49" type="line"/>
		</contour>
		<contour>
			<point x="260" y="314" type="line"/>
			<point x="260" y="553" type="line"/>
			<point x="545" y="553" type="line" smooth="yes"/>
			<point x="672" y="553"/>
			<point x="809" y="555"/>
			<point x="809" y="419" type="curve" smooth="yes"/>
			<point x="809" y="328"/>
			<point x="701" y="305"/>
			<point x="565" y="308" type="curve" smooth="yes"/>
		</contour>
		<contour>
			<point x="643" y="285" type="line"/>
			<point x="532" y="285" type="line"/>
			<point x="685" y="50" type="line"/>
			<point x="545" y="8" type="line"/>
			<point x="547" y="0" type="line"/>
			<point x="958" y="0" type="line"/>
			<point x="960" y="8" type="line"/>
			<point x="800" y="50" type="line"/>
		</contour>
	</outline>
</glyph>
<glyph name="S" format="2">
  <advance width="906"/>
  <unicode hex="0053"/>
  <anchor x="446" y="0" name="bottom"/>
  <anchor x="446" y="600" name="top"/>
  <outline>
    <contour>
      <point x="29" y="58" type="line"/>
      <point x="127" y="13"/>
      <point x="304" y="-20"/>
      <point x="451" y="-20" type="curve" smooth="yes"/>
      <point x="693" y="-20"/>
      <point x="862" y="69"/>
      <point x="862" y="198" type="curve" smooth="yes"/>
      <point x="862" y="288"/>
      <point x="779" y="336"/>
      <point x="592" y="350" type="curve" smooth="yes"/>
      <point x="349" y="368" type="line" smooth="yes"/>
      <point x="197" y="379"/>
      <point x="139" y="406"/>
      <point x="140" y="459" type="curve" smooth="yes"/>
      <point x="142" y="529"/>
      <point x="284" y="578"/>
      <point x="441" y="578" type="curve" smooth="yes"/>
      <point x="537" y="578"/>
      <point x="645" y="559"/>
      <point x="730" y="531" type="curve"/>
      <point x="745" y="396" type="line"/>
      <point x="753" y="394" type="line"/>
      <point x="814" y="584" type="line"/>
      <point x="695" y="609"/>
      <point x="566" y="625"/>
      <point x="461" y="625" type="curve" smooth="yes"/>
      <point x="230" y="625"/>
      <point x="66" y="547"/>
      <point x="62" y="434" type="curve" smooth="yes"/>
      <point x="59" y="347"/>
      <point x="145" y="295"/>
      <point x="306" y="283" type="curve" smooth="yes"/>
      <point x="549" y="265" type="line" smooth="yes"/>
      <point x="718" y="252"/>
      <point x="780" y="224"/>
      <point x="779" y="157" type="curve" smooth="yes"/>
      <point x="777" y="84"/>
      <point x="652" y="34"/>
      <point x="491" y="34" type="curve" smooth="yes"/>
      <point x="356" y="34"/>
      <point x="179" y="67"/>
      <point x="115" y="107" type="curve"/>
      <point x="98" y="266" type="line"/>
      <point x="90" y="268" type="line"/>
    </contour>
  </outline>
</glyph>
<glyph name="T" format="2">
  <advance width="947"/>
  <unicode hex="0054"/>
  <anchor x="492" y="0" name="bottom"/>
  <anchor x="473" y="300" name="center"/>
  <anchor x="473" y="600" name="top"/>
  <outline>
    <contour>
      <point x="19" y="610" type="line"/>
      <point x="65" y="420" type="line"/>
      <point x="73" y="422" type="line"/>
      <point x="123" y="550" type="line"/>
      <point x="425" y="558" type="line"/>
      <point x="426" y="50" type="line"/>
      <point x="276" y="8" type="line"/>
      <point x="278" y="0" type="line"/>
      <point x="671" y="0" type="line"/>
      <point x="673" y="8" type="line"/>
      <point x="523" y="50" type="line"/>
      <point x="522" y="558" type="line"/>
      <point x="824" y="551" type="line"/>
      <point x="888" y="422" type="line"/>
      <point x="896" y="420" type="line"/>
      <point x="928" y="610" type="line"/>
      <point x="473" y="600" type="line"/>
    </contour>
  </outline>
</glyph>
<glyph name="U" format="2">
	<advance width="1071"/>
	<unicode hex="0055"/>
	<anchor x="546" y="0" name="bottom"/>
	<anchor x="711" y="10" name="ogonek"/>
	<anchor x="546" y="600" name="top"/>
	<anchor x="1084" y="600" name="topright"/>
	<outline>
		<contour>
			<point x="144" y="255" type="line" smooth="yes"/>
			<point x="144" y="79"/>
			<point x="277" y="-20"/>
			<point x="516" y="-20" type="curve" smooth="yes"/>
			<point x="757" y="-20"/>
			<point x="906" y="81"/>
			<point x="911" y="247" type="curve" smooth="yes"/>
			<point x="921" y="550" type="line"/>
			<point x="1071" y="592" type="line"/>
			<point x="1069" y="600" type="line"/>
			<point x="702" y="600" type="line"/>
			<point x="700" y="592" type="line"/>
			<point x="850" y="550" type="line"/>
			<point x="852" y="220" type="line" smooth="yes"/>
			<point x="853" y="106"/>
			<point x="739" y="31"/>
			<point x="566" y="31" type="curve" smooth="yes"/>
			<point x="365" y="31"/>
			<point x="240" y="131"/>
			<point x="240" y="291" type="curve" smooth="yes"/>
			<point x="240" y="550" type="line"/>
			<point x="390" y="592" type="line"/>
			<point x="388" y="600" type="line"/>
			<point x="-4" y="600" type="line"/>
			<point x="-6" y="592" type="line"/>
			<point x="144" y="550" type="line"/>
		</contour>
	</outline>
</glyph>
<glyph name="V" format="2">
  <advance width="906"/>
  <unicode hex="0056"/>
  <anchor x="484" y="0" name="bottom"/>
  <anchor x="480" y="600" name="top"/>
  <outline>
    <contour>
      <point x="-66" y="592" type="line"/>
      <point x="72" y="550" type="line"/>
      <point x="441" y="0" type="line"/>
      <point x="503" y="0" type="line"/>
      <point x="832" y="550" type="line"/>
      <point x="962" y="592" type="line"/>
      <point x="960" y="600" type="line"/>
      <point x="588" y="600" type="line"/>
      <point x="586" y="592" type="line"/>
      <point x="761" y="550" type="line"/>
      <point x="474" y="35" type="line"/>
      <point x="528" y="33" type="line"/>
      <point x="198" y="550" type="line"/>
      <point x="373" y="592" type="line"/>
      <point x="371" y="600" type="line"/>
      <point x="-64" y="600" type="line"/>
    </contour>
  </outline>
</glyph>
<glyph name="W" format="2">
	<advance width="1176"/>
	<unicode hex="0057"/>
	<anchor x="590" y="0" name="bottom"/>
	<anchor x="590" y="600" name="top"/>
	<outline>
		<contour>
			<point x="-76" y="592" type="line"/>
			<point x="90" y="547" type="line"/>
			<point x="330" y="0" type="line"/>
			<point x="384" y="0" type="line"/>
			<point x="617" y="585" type="line"/>
			<point x="567" y="574" type="line"/>
			<point x="833" y="0" type="line"/>
			<point x="889" y="0" type="line"/>
			<point x="1080" y="547" type="line"/>
			<point x="1242" y="592" type="line"/>
			<point x="1240" y="600" type="line"/>
			<point x="807" y="600" type="line"/>
			<point x="805" y="592" type="line"/>
			<point x="1010" y="547" type="line"/>
			<point x="865" y="66" type="line"/>
			<point x="905" y="69" type="line"/>
			<point x="650" y="600" type="line"/>
			<point x="569" y="579" type="line"/>
			<point x="362" y="56" type="line"/>
			<point x="402" y="60" type="line"/>
			<point x="206" y="547" type="line"/>
			<point x="420" y="592" type="line"/>
			<point x="417" y="600" type="line"/>
			<point x="-74" y="600" type="line"/>
		</contour>
	</outline>
</glyph>
<glyph name="X" format="2">
  <advance width="1031"/>
  <unicode hex="0058"/>
  <anchor x="513" y="0" name="bottom"/>
  <anchor x="513" y="600" name="top"/>
  <outline>
    <contour>
      <point x="498" y="334" type="line"/>
      <point x="546" y="312" type="line"/>
      <point x="887" y="550" type="line"/>
      <point x="1011" y="592" type="line"/>
      <point x="1009" y="600" type="line"/>
      <point x="619" y="600" type="line"/>
      <point x="617" y="592" type="line"/>
      <point x="777" y="550" type="line"/>
    </contour>
    <contour>
      <point x="508" y="295" type="line"/>
      <point x="458" y="319" type="line"/>
      <point x="98" y="50" type="line"/>
      <point x="-26" y="8" type="line"/>
      <point x="-24" y="0" type="line"/>
      <point x="382" y="0" type="line"/>
      <point x="384" y="8" type="line"/>
      <point x="214" y="50" type="line"/>
    </contour>
    <contour>
      <point x="927" y="50" type="line"/>
      <point x="269" y="550" type="line"/>
      <point x="429" y="592" type="line"/>
      <point x="426" y="600" type="line"/>
      <point x="-6" y="600" type="line"/>
      <point x="-8" y="592" type="line"/>
      <point x="122" y="550" type="line"/>
      <point x="780" y="50" type="line"/>
      <point x="610" y="8" type="line"/>
      <point x="612" y="0" type="line"/>
      <point x="1055" y="0" type="line"/>
      <point x="1057" y="8" type="line"/>
    </contour>
  </outline>
</glyph>
<glyph name="Y" format="2">
  <advance width="986"/>
  <unicode hex="0059"/>
  <anchor x="507" y="0" name="bottom"/>
  <anchor x="527" y="600" name="top"/>
  <anchor x="35" y="600" name="topleft"/>
  <outline>
    <contour>
      <point x="-16" y="592" type="line"/>
      <point x="104" y="550" type="line"/>
      <point x="448" y="250" type="line"/>
      <point x="448" y="50" type="line"/>
      <point x="293" y="6" type="line"/>
      <point x="295" y="0" type="line"/>
      <point x="692" y="0" type="line"/>
      <point x="694" y="6" type="line"/>
      <point x="544" y="50" type="line"/>
      <point x="544" y="251" type="line"/>
      <point x="862" y="550" type="line"/>
      <point x="982" y="592" type="line"/>
      <point x="980" y="600" type="line"/>
      <point x="599" y="600" type="line"/>
      <point x="597" y="592" type="line"/>
      <point x="777" y="550" type="line"/>
      <point x="502" y="264" type="line"/>
      <point x="558" y="274" type="line"/>
      <point x="261" y="550" type="line"/>
      <point x="441" y="592" type="line"/>
      <point x="439" y="600" type="line"/>
      <point x="-14" y="600" type="line"/>
    </contour>
  </outline>
</glyph>
<glyph name="Z" format="2">
  <advance width="834"/>
  <unicode hex="005A"/>
  <anchor x="423" y="0" name="bottom"/>
  <anchor x="423" y="300" name="center"/>
  <anchor x="423" y="600" name="top"/>
  <outline>
    <contour>
      <point x="25" y="0" type="line"/>
      <point x="830" y="0" type="line"/>
      <point x="810" y="237" type="line"/>
      <point x="802" y="235" type="line"/>
      <point x="750" y="62" type="line"/>
      <point x="92" y="44" type="line"/>
      <point x="105" y="9" type="line"/>
      <point x="796" y="560" type="line"/>
      <point x="776" y="600" type="line"/>
      <point x="19" y="612" type="line"/>
      <point x="67" y="390" type="line"/>
      <point x="75" y="392" type="line"/>
      <point x="100" y="551" type="line"/>
      <point x="710" y="559" type="line"/>
      <point x="697" y="592" type="line"/>
      <point x="4" y="40" type="line"/>
    </contour>
  </outline>
</glyph>
<glyph name="bracketleft" format="2">
	<advance width="386"/>
	<unicode hex="005B"/>
	<outline>
		<contour>
			<point x="94" y="-117" type="line"/>
			<point x="350" y="-117" type="line"/>
			<point x="352" y="-109" type="line"/>
			<point x="178" y="-62" type="line"/>
			<point x="178" y="645" type="line"/>
			<point x="352" y="692" type="line"/>
			<point x="350" y="700" type="line"/>
			<point x="94" y="700" type="line"/>
		</contour>
	</outline>
</glyph>
<glyph name="asciicircum" format="2">
	<advance width="538"/>
	<unicode hex="005E"/>
	<outline>
		<contour>
			<point x="306" y="606" type="line"/>
			<point x="228" y="606" type="line"/>
			<point x="24" y="394" type="line"/>
			<point x="119" y="394" type="line"/>
			<point x="305" y="596" type="line"/>
			<point x="228" y="596" type="line"/>
			<point x="419" y="394" type="line"/>
			<point x="514" y="394" type="line"/>
		</contour>
	</outline>
</glyph>
<glyph name="underscore" format="2">
	<advance width="987"/>
	<unicode hex="005F"/>
	<outline>
		<contour>
			<point x="34" y="52" type="line"/>
			<point x="34" y="0" type="line"/>
			<point x="953" y="0" type="line"/>
			<point x="953" y="52" type="line"/>
		</contour>
	</outline>
</glyph>
<glyph name="a" format="2">
	<advance width="695"/>
	<unicode hex="0061"/>
	<anchor x="369" y="0" name="bottom"/>
	<anchor x="555" y="10" name="ogonek"/>
	<anchor x="337" y="415" name="top"/>
	<outline>
		<contour>
			<point x="26" y="117" type="curve" smooth="yes"/>
			<point x="26" y="37"/>
			<point x="135" y="-20"/>
			<point x="268" y="-20" type="curve" smooth="yes"/>
			<point x="352" y="-20"/>
			<point x="446" y="13"/>
			<point x="513" y="70" type="curve"/>
			<point x="513" y="-23" type="line"/>
			<point x="700" y="64" type="line"/>
			<point x="698" y="72" type="line"/>
			<point x="592" y="62" type="line"/>
			<point x="597" y="188" type="line" smooth="yes"/>
			<point x="604" y="370"/>
			<point x="528" y="435"/>
			<point x="355" y="435" type="curve" smooth="yes"/>
			<point x="241" y="435"/>
			<point x="139" y="415"/>
			<point x="59" y="383" type="curve"/>
			<point x="110" y="259" type="line"/>
			<point x="118" y="261" type="line"/>
			<point x="129" y="357" type="line"/>
			<point x="172" y="375"/>
			<point x="231" y="386"/>
			<point x="303" y="386" type="curve" smooth="yes"/>
			<point x="469" y="386"/>
			<point x="519" y="324"/>
			<point x="513" y="175" type="curve"/>
			<point x="529" y="194" type="line"/>
			<point x="484" y="239"/>
			<point x="390" y="265"/>
			<point x="273" y="265" type="curve" smooth="yes"/>
			<point x="145" y="265"/>
			<point x="26" y="209"/>
		</contour>
		<contour>
			<point x="128" y="134" type="curve" smooth="yes"/>
			<point x="128" y="195"/>
			<point x="181" y="224"/>
			<point x="280" y="224" type="curve" smooth="yes"/>
			<point x="365" y="224"/>
			<point x="462" y="205"/>
			<point x="513" y="162" type="curve"/>
			<point x="513" y="101" type="line"/>
			<point x="448" y="48"/>
			<point x="373" y="26"/>
			<point x="295" y="26" type="curve" smooth="yes"/>
			<point x="193" y="26"/>
			<point x="128" y="70"/>
		</contour>
	</outline>
</glyph>
<glyph name="b" format="2">
	<advance width="716"/>
	<unicode hex="0062"/>
	<anchor x="344" y="0" name="bottom"/>
	<anchor x="344" y="205" name="center"/>
	<anchor x="340" y="415" name="top"/>
	<outline>
		<contour>
			<point x="153" y="75" type="curve"/>
			<point x="153" y="285" type="line"/>
			<point x="225" y="355"/>
			<point x="297" y="385"/>
			<point x="387" y="385" type="curve" smooth="yes"/>
			<point x="528" y="385"/>
			<point x="601" y="308"/>
			<point x="601" y="198" type="curve" smooth="yes"/>
			<point x="601" y="96"/>
			<point x="507" y="23"/>
			<point x="370" y="23" type="curve" smooth="yes"/>
			<point x="294" y="23"/>
			<point x="203" y="40"/>
		</contour>
		<contour>
			<point x="-75" y="640" type="line"/>
			<point x="-73" y="632" type="line"/>
			<point x="66" y="640" type="line"/>
			<point x="66" y="59" type="line"/>
			<point x="125" y="11"/>
			<point x="232" y="-20"/>
			<point x="335" y="-20" type="curve" smooth="yes"/>
			<point x="537" y="-20"/>
			<point x="687" y="91"/>
			<point x="687" y="230" type="curve" smooth="yes"/>
			<point x="687" y="342"/>
			<point x="579" y="435"/>
			<point x="427" y="435" type="curve" smooth="yes"/>
			<point x="334" y="435"/>
			<point x="234" y="399"/>
			<point x="153" y="336" type="curve"/>
			<point x="153" y="720" type="line"/>
		</contour>
	</outline>
</glyph>
<glyph name="c" format="2">
	<advance width="652"/>
	<unicode hex="0063"/>
	<anchor x="359" y="0" name="bottom"/>
	<anchor x="339" y="410" name="top"/>
	<outline>
		<contour>
			<point x="616" y="100" type="curve"/>
			<point x="603" y="114" type="line"/>
			<point x="531" y="65"/>
			<point x="456" y="43"/>
			<point x="361" y="43" type="curve" smooth="yes"/>
			<point x="207" y="43"/>
			<point x="113" y="109"/>
			<point x="113" y="219" type="curve" smooth="yes"/>
			<point x="113" y="331"/>
			<point x="198" y="391"/>
			<point x="356" y="391" type="curve" smooth="yes"/>
			<point x="417" y="391"/>
			<point x="475" y="382"/>
			<point x="531" y="364" type="curve"/>
			<point x="551" y="253" type="line"/>
			<point x="559" y="251" type="line"/>
			<point x="609" y="407" type="line"/>
			<point x="527" y="425"/>
			<point x="443" y="435"/>
			<point x="379" y="435" type="curve" smooth="yes"/>
			<point x="179" y="435"/>
			<point x="26" y="327"/>
			<point x="26" y="187" type="curve" smooth="yes"/>
			<point x="26" y="65"/>
			<point x="145" y="-20"/>
			<point x="316" y="-20" type="curve" smooth="yes"/>
			<point x="427" y="-20"/>
			<point x="514" y="15"/>
		</contour>
	</outline>
</glyph>
<glyph name="d" format="2">
  <advance width="761"/>
  <unicode hex="0064"/>
  <anchor x="386" y="0" name="bottom"/>
  <anchor x="386" y="205" name="center"/>
  <anchor x="386" y="700" name="top"/>
  <anchor x="725" y="700" name="topright"/>
  <outline>
    <contour>
      <point x="26" y="185" type="curve" smooth="yes"/>
      <point x="26" y="68"/>
      <point x="136" y="-20"/>
      <point x="282" y="-20" type="curve" smooth="yes"/>
      <point x="379" y="-20"/>
      <point x="486" y="18"/>
      <point x="563" y="79" type="curve"/>
      <point x="563" y="-13" type="line"/>
      <point x="786" y="63" type="line"/>
      <point x="784" y="71" type="line"/>
      <point x="647" y="61" type="line"/>
      <point x="647" y="725" type="line"/>
      <point x="410" y="640" type="line"/>
      <point x="414" y="632" type="line"/>
      <point x="561" y="640" type="line"/>
      <point x="561" y="389" type="line"/>
      <point x="509" y="417"/>
      <point x="440" y="435"/>
      <point x="379" y="435" type="curve" smooth="yes"/>
      <point x="179" y="435"/>
      <point x="26" y="327"/>
    </contour>
    <contour>
      <point x="561" y="322" type="curve"/>
      <point x="561" y="129" type="line"/>
      <point x="489" y="61"/>
      <point x="414" y="30"/>
      <point x="321" y="30" type="curve" smooth="yes"/>
      <point x="190" y="30"/>
      <point x="113" y="99"/>
      <point x="113" y="217" type="curve" smooth="yes"/>
      <point x="113" y="320"/>
      <point x="208" y="393"/>
      <point x="344" y="393" type="curve" smooth="yes"/>
      <point x="430" y="393"/>
      <point x="516" y="365"/>
    </contour>
  </outline>
</glyph>
<glyph name="e" format="2">
	<advance width="667"/>
	<unicode hex="0065"/>
	<anchor x="337" y="0" name="bottom"/>
	<anchor x="455" y="10" name="ogonek"/>
	<anchor x="327" y="415" name="top"/>
	<outline>
		<contour>
			<point x="80" y="229" type="line"/>
			<point x="82" y="203" type="line"/>
			<point x="633" y="192" type="line"/>
			<point x="631" y="337"/>
			<point x="514" y="435"/>
			<point x="342" y="435" type="curve" smooth="yes"/>
			<point x="166" y="435"/>
			<point x="26" y="330"/>
			<point x="26" y="198" type="curve" smooth="yes"/>
			<point x="26" y="75"/>
			<point x="151" y="-20"/>
			<point x="316" y="-20" type="curve" smooth="yes"/>
			<point x="436" y="-20"/>
			<point x="546" y="29"/>
			<point x="638" y="123" type="curve"/>
			<point x="623" y="138" type="line"/>
			<point x="562" y="77"/>
			<point x="466" y="42"/>
			<point x="361" y="42" type="curve" smooth="yes"/>
			<point x="200" y="42"/>
			<point x="97" y="113"/>
			<point x="99" y="218" type="curve" smooth="yes"/>
			<point x="100" y="317"/>
			<point x="188" y="396"/>
			<point x="299" y="396" type="curve" smooth="yes"/>
			<point x="455" y="396"/>
			<point x="537" y="321"/>
			<point x="538" y="250" type="curve"/>
		</contour>
	</outline>
</glyph>
<glyph name="f" format="2">
  <advance width="533"/>
  <unicode hex="0066"/>
  <anchor x="266" y="0" name="bottom"/>
  <anchor x="266" y="705" name="top"/>
  <outline>
    <contour>
      <point x="125" y="530" type="curve" smooth="yes"/>
      <point x="125" y="415" type="line"/>
      <point x="15" y="378" type="line"/>
      <point x="17" y="368" type="line"/>
      <point x="125" y="368" type="line"/>
      <point x="126" y="50" type="line"/>
      <point x="6" y="8" type="line"/>
      <point x="8" y="0" type="line"/>
      <point x="430" y="0" type="line"/>
      <point x="432" y="8" type="line"/>
      <point x="212" y="49" type="line"/>
      <point x="212" y="375" type="line"/>
      <point x="447" y="375" type="line"/>
      <point x="464" y="273" type="line"/>
      <point x="472" y="271" type="line"/>
      <point x="526" y="415" type="line"/>
      <point x="212" y="415" type="line"/>
      <point x="212" y="530" type="line" smooth="yes"/>
      <point x="212" y="650"/>
      <point x="232" y="678"/>
      <point x="318" y="678" type="curve" smooth="yes"/>
      <point x="377" y="678"/>
      <point x="452" y="662"/>
      <point x="490" y="645" type="curve"/>
      <point x="506" y="494" type="line"/>
      <point x="514" y="492" type="line"/>
      <point x="572" y="667" type="line"/>
      <point x="499" y="700"/>
      <point x="389" y="725"/>
      <point x="313" y="725" type="curve" smooth="yes"/>
      <point x="193" y="725"/>
      <point x="125" y="655"/>
    </contour>
  </outline>
</glyph>
<glyph name="g" format="2">
	<advance width="737"/>
	<unicode hex="0067"/>
	<anchor x="372" y="-255" name="bottom"/>
	<anchor x="372" y="415" name="top"/>
	<outline>
		<contour>
			<point x="45" y="182"/>
			<point x="162" y="130"/>
			<point x="351" y="130" type="curve" smooth="yes"/>
			<point x="540" y="130"/>
			<point x="655" y="193"/>
			<point x="655" y="294" type="curve" smooth="yes"/>
			<point x="655" y="345"/>
			<point x="624" y="382"/>
			<point x="563" y="395" type="curve"/>
			<point x="539" y="372" type="line"/>
			<point x="722" y="426" type="line"/>
			<point x="720" y="435" type="line"/>
			<point x="361" y="435" type="line" smooth="yes"/>
			<point x="182" y="435"/>
			<point x="45" y="364"/>
			<point x="45" y="268" type="curve" smooth="yes"/>
		</contour>
		<contour>
			<point x="132" y="291" type="curve" smooth="yes"/>
			<point x="133" y="359"/>
			<point x="203" y="400"/>
			<point x="328" y="400" type="curve" smooth="yes"/>
			<point x="475" y="400"/>
			<point x="569" y="352"/>
			<point x="570" y="269" type="curve" smooth="yes"/>
			<point x="571" y="198"/>
			<point x="510" y="164"/>
			<point x="390" y="164" type="curve" smooth="yes"/>
			<point x="234" y="164"/>
			<point x="131" y="210"/>
		</contour>
		<contour>
			<point x="282" y="153" type="line"/>
			<point x="219" y="160" type="line"/>
			<point x="58" y="48" type="line"/>
			<point x="57" y="14" type="line"/>
			<point x="425" y="-21" type="line" smooth="yes"/>
			<point x="555" y="-33"/>
			<point x="636" y="-71"/>
			<point x="636" y="-118" type="curve" smooth="yes"/>
			<point x="636" y="-184"/>
			<point x="506" y="-235"/>
			<point x="368" y="-235" type="curve" smooth="yes"/>
			<point x="188" y="-235"/>
			<point x="118" y="-180"/>
			<point x="118" y="-102" type="curve" smooth="yes"/>
			<point x="118" y="-52"/>
			<point x="154" y="-21"/>
			<point x="250" y="23" type="curve"/>
			<point x="183" y="26" type="line"/>
			<point x="76" y="-28"/>
			<point x="31" y="-65"/>
			<point x="31" y="-128" type="curve" smooth="yes"/>
			<point x="31" y="-220"/>
			<point x="138" y="-275"/>
			<point x="334" y="-275" type="curve" smooth="yes"/>
			<point x="541" y="-275"/>
			<point x="725" y="-207"/>
			<point x="725" y="-87" type="curve" smooth="yes"/>
			<point x="725" y="-26"/>
			<point x="662" y="17"/>
			<point x="490" y="35" type="curve" smooth="yes"/>
			<point x="101" y="75" type="line"/>
			<point x="121" y="38" type="line"/>
		</contour>
	</outline>
</glyph>
<glyph name="h" format="2">
  <advance width="826"/>
  <unicode hex="0068"/>
  <anchor x="356" y="0" name="bottom"/>
  <anchor x="356" y="375" name="center"/>
  <anchor x="356" y="705" name="top"/>
  <outline>
    <contour>
      <point x="150" y="323" type="curve"/>
      <point x="150" y="284" type="line"/>
      <point x="245" y="347"/>
      <point x="344" y="379"/>
      <point x="413" y="379" type="curve" smooth="yes"/>
      <point x="535" y="379"/>
      <point x="601" y="321"/>
      <point x="602" y="213" type="curve" smooth="yes"/>
      <point x="604" y="50" type="line"/>
      <point x="454" y="8" type="line"/>
      <point x="456" y="0" type="line"/>
      <point x="818" y="1" type="line"/>
      <point x="820" y="9" type="line"/>
      <point x="689" y="49" type="line"/>
      <point x="689" y="210" type="line" smooth="yes"/>
      <point x="689" y="355"/>
      <point x="606" y="435"/>
      <point x="461" y="435" type="curve" smooth="yes"/>
      <point x="364" y="435"/>
      <point x="258" y="397"/>
    </contour>
    <contour>
      <point x="-43" y="632" type="line"/>
      <point x="96" y="640" type="line"/>
      <point x="96" y="50" type="line"/>
      <point x="-44" y="9" type="line"/>
      <point x="-42" y="0" type="line"/>
      <point x="331" y="0" type="line"/>
      <point x="333" y="9" type="line"/>
      <point x="183" y="50" type="line"/>
      <point x="183" y="725" type="line"/>
      <point x="-45" y="640" type="line"/>
    </contour>
  </outline>
</glyph>
<glyph name="k" format="2">
  <advance width="831"/>
  <unicode hex="006B"/>
  <anchor x="397" y="0" name="bottom"/>
  <anchor x="397" y="705" name="top"/>
  <outline>
    <contour>
      <point x="163" y="118" type="line"/>
      <point x="619" y="365" type="line"/>
      <point x="748" y="407" type="line"/>
      <point x="746" y="415" type="line"/>
      <point x="351" y="415" type="line"/>
      <point x="349" y="407" type="line"/>
      <point x="510" y="365" type="line"/>
      <point x="136" y="146" type="line"/>
    </contour>
    <contour>
      <point x="-43" y="637" type="line"/>
      <point x="96" y="645" type="line"/>
      <point x="96" y="50" type="line"/>
      <point x="-44" y="8" type="line"/>
      <point x="-42" y="0" type="line"/>
      <point x="341" y="0" type="line"/>
      <point x="343" y="8" type="line"/>
      <point x="183" y="50" type="line"/>
      <point x="183" y="725" type="line"/>
      <point x="-45" y="645" type="line"/>
    </contour>
    <contour>
      <point x="411" y="256" type="line"/>
      <point x="333" y="221" type="line"/>
      <point x="594" y="50" type="line"/>
      <point x="434" y="8" type="line"/>
      <point x="436" y="0" type="line"/>
      <point x="834" y="0" type="line"/>
      <point x="836" y="8" type="line"/>
      <point x="714" y="50" type="line"/>
    </contour>
  </outline>
</glyph>
<glyph name="l" format="2">
  <advance width="338"/>
  <unicode hex="006C"/>
  <anchor x="154" y="0" name="bottom"/>
  <anchor x="154" y="375" name="center"/>
  <anchor x="154" y="650" name="top"/>
  <anchor x="256" y="705" name="topright"/>
  <outline>
    <contour>
      <point x="-43" y="637" type="line"/>
      <point x="106" y="645" type="line"/>
      <point x="106" y="50" type="line"/>
      <point x="-44" y="8" type="line"/>
      <point x="-42" y="0" type="line"/>
      <point x="341" y="0" type="line"/>
      <point x="343" y="8" type="line"/>
      <point x="193" y="50" type="line"/>
      <point x="193" y="725" type="line"/>
      <point x="-45" y="645" type="line"/>
    </contour>
  </outline>
</glyph>
<glyph name="m" format="2">
	<advance width="1276"/>
	<unicode hex="006D"/>
	<anchor x="609" y="0" name="bottom"/>
	<anchor x="615" y="415" name="top"/>
	<outline>
		<contour>
			<point x="694" y="289" type="line"/>
			<point x="739" y="340"/>
			<point x="795" y="379"/>
			<point x="882" y="379" type="curve" smooth="yes"/>
			<point x="988" y="379"/>
			<point x="1034" y="330"/>
			<point x="1034" y="214" type="curve" smooth="yes"/>
			<point x="1034" y="50" type="line"/>
			<point x="884" y="8" type="line"/>
			<point x="886" y="0" type="line"/>
			<point x="1268" y="0" type="line"/>
			<point x="1270" y="8" type="line"/>
			<point x="1119" y="49" type="line"/>
			<point x="1120" y="218" type="line" smooth="yes"/>
			<point x="1121" y="357"/>
			<point x="1048" y="435"/>
			<point x="919" y="435" type="curve" smooth="yes"/>
			<point x="828" y="435"/>
			<point x="710" y="381"/>
			<point x="647" y="274" type="curve"/>
			<point x="682" y="301" type="line"/>
			<point x="666" y="375"/>
			<point x="592" y="435"/>
			<point x="495" y="435" type="curve" smooth="yes"/>
			<point x="412" y="435"/>
			<point x="329" y="405"/>
			<point x="241" y="304" type="curve"/>
			<point x="262" y="289" type="line"/>
			<point x="330" y="355"/>
			<point x="389" y="379"/>
			<point x="459" y="379" type="curve" smooth="yes"/>
			<point x="563" y="379"/>
			<point x="607" y="322"/>
			<point x="607" y="197" type="curve" smooth="yes"/>
			<point x="607" y="50" type="line"/>
			<point x="457" y="8" type="line"/>
			<point x="459" y="0" type="line"/>
			<point x="843" y="0" type="line"/>
			<point x="845" y="8" type="line"/>
			<point x="695" y="49" type="line"/>
		</contour>
		<contour>
			<point x="269" y="50" type="line"/>
			<point x="269" y="435" type="line"/>
			<point x="31" y="350" type="line"/>
			<point x="33" y="342" type="line"/>
			<point x="182" y="350" type="line"/>
			<point x="182" y="50" type="line"/>
			<point x="32" y="8" type="line"/>
			<point x="34" y="0" type="line"/>
			<point x="417" y="0" type="line"/>
			<point x="419" y="8" type="line"/>
		</contour>
	</outline>
</glyph>
<glyph name="n" format="2">
  <advance width="902"/>
  <unicode hex="006E"/>
  <anchor x="456" y="0" name="bottom"/>
  <anchor x="436" y="415" name="top"/>
  <outline>
    <contour>
      <point x="226" y="323" type="curve"/>
      <point x="226" y="284" type="line"/>
      <point x="323" y="347"/>
      <point x="408" y="379"/>
      <point x="489" y="379" type="curve" smooth="yes"/>
      <point x="602" y="379"/>
      <point x="677" y="317"/>
      <point x="678" y="213" type="curve" smooth="yes"/>
      <point x="680" y="50" type="line"/>
      <point x="530" y="8" type="line"/>
      <point x="532" y="0" type="line"/>
      <point x="894" y="1" type="line"/>
      <point x="896" y="9" type="line"/>
      <point x="765" y="49" type="line"/>
      <point x="765" y="224" type="line" smooth="yes"/>
      <point x="765" y="360"/>
      <point x="681" y="435"/>
      <point x="537" y="435" type="curve" smooth="yes"/>
      <point x="438" y="435"/>
      <point x="338" y="399"/>
    </contour>
    <contour>
      <point x="33" y="342" type="line"/>
      <point x="172" y="350" type="line"/>
      <point x="172" y="50" type="line"/>
      <point x="32" y="9" type="line"/>
      <point x="34" y="0" type="line"/>
      <point x="407" y="0" type="line"/>
      <point x="409" y="6" type="line"/>
      <point x="259" y="50" type="line"/>
      <point x="259" y="435" type="line"/>
      <point x="31" y="350" type="line"/>
    </contour>
  </outline>
</glyph>
<glyph name="o" format="2">
  <advance width="724"/>
  <unicode hex="006F"/>
  <anchor x="360" y="0" name="bottom"/>
  <anchor x="360" y="205" name="center"/>
  <anchor x="644" y="10" name="ogonek"/>
  <anchor x="360" y="415" name="top"/>
  <anchor x="695" y="410" name="topright"/>
  <outline>
    <contour>
      <point x="361" y="-20" type="curve" smooth="yes"/>
      <point x="561" y="-20"/>
      <point x="695" y="72"/>
      <point x="695" y="211" type="curve" smooth="yes"/>
      <point x="695" y="343"/>
      <point x="559" y="435"/>
      <point x="364" y="435" type="curve" smooth="yes"/>
      <point x="168" y="435"/>
      <point x="26" y="336"/>
      <point x="26" y="198" type="curve" smooth="yes"/>
      <point x="26" y="69"/>
      <point x="163" y="-20"/>
    </contour>
    <contour>
      <point x="392" y="17" type="curve" smooth="yes"/>
      <point x="236" y="17"/>
      <point x="115" y="111"/>
      <point x="115" y="231" type="curve" smooth="yes"/>
      <point x="115" y="336"/>
      <point x="195" y="397"/>
      <point x="335" y="397" type="curve" smooth="yes"/>
      <point x="488" y="397"/>
      <point x="607" y="302"/>
      <point x="607" y="179" type="curve" smooth="yes"/>
      <point x="607" y="80"/>
      <point x="524" y="17"/>
    </contour>
  </outline>
</glyph>
<glyph name="p" format="2">
  <advance width="736"/>
  <unicode hex="0070"/>
  <anchor x="346" y="0" name="bottom"/>
  <anchor x="346" y="415" name="top"/>
  <outline>
    <contour>
      <point x="173" y="92" type="curve"/>
      <point x="173" y="285" type="line"/>
      <point x="245" y="354"/>
      <point x="321" y="384"/>
      <point x="413" y="384" type="curve" smooth="yes"/>
      <point x="544" y="384"/>
      <point x="621" y="315"/>
      <point x="621" y="197" type="curve" smooth="yes"/>
      <point x="621" y="93"/>
      <point x="525" y="20"/>
      <point x="389" y="20" type="curve" smooth="yes"/>
      <point x="301" y="20"/>
      <point x="214" y="50"/>
    </contour>
    <contour>
      <point x="-55" y="355" type="line"/>
      <point x="-51" y="347" type="line"/>
      <point x="86" y="355" type="line"/>
      <point x="86" y="-202" type="line"/>
      <point x="-44" y="-246" type="line"/>
      <point x="-42" y="-255" type="line"/>
      <point x="341" y="-255" type="line"/>
      <point x="343" y="-246" type="line"/>
      <point x="173" y="-202" type="line"/>
      <point x="173" y="27" type="line"/>
      <point x="225" y="-2"/>
      <point x="304" y="-21"/>
      <point x="369" y="-21" type="curve" smooth="yes"/>
      <point x="568" y="-21"/>
      <point x="707" y="86"/>
      <point x="707" y="229" type="curve" smooth="yes"/>
      <point x="707" y="347"/>
      <point x="597" y="434"/>
      <point x="453" y="434" type="curve" smooth="yes"/>
      <point x="359" y="434"/>
      <point x="254" y="400"/>
      <point x="173" y="338" type="curve"/>
      <point x="173" y="435" type="line"/>
    </contour>
  </outline>
</glyph>
<glyph name="q" format="2">
	<advance width="693"/>
	<unicode hex="0071"/>
	<anchor x="387" y="0" name="bottom"/>
	<anchor x="387" y="410" name="top"/>
	<outline>
		<contour>
			<point x="561" y="343" type="curve"/>
			<point x="561" y="125" type="line"/>
			<point x="493" y="60"/>
			<point x="420" y="30"/>
			<point x="326" y="30" type="curve" smooth="yes"/>
			<point x="187" y="30"/>
			<point x="113" y="103"/>
			<point x="113" y="215" type="curve" smooth="yes"/>
			<point x="113" y="321"/>
			<point x="206" y="392"/>
			<point x="342" y="392" type="curve" smooth="yes"/>
			<point x="418" y="392"/>
			<point x="507" y="377"/>
		</contour>
		<contour>
			<point x="26" y="185" type="curve" smooth="yes"/>
			<point x="26" y="73"/>
			<point x="133" y="-20"/>
			<point x="291" y="-20" type="curve" smooth="yes"/>
			<point x="388" y="-20"/>
			<point x="487" y="18"/>
			<point x="561" y="76" type="curve"/>
			<point x="561" y="-202" type="line"/>
			<point x="391" y="-244" type="line"/>
			<point x="393" y="-255" type="line"/>
			<point x="775" y="-255" type="line"/>
			<point x="777" y="-244" type="line"/>
			<point x="647" y="-202" type="line"/>
			<point x="647" y="359" type="line"/>
			<point x="582" y="406"/>
			<point x="470" y="435"/>
			<point x="373" y="435" type="curve" smooth="yes"/>
			<point x="176" y="435"/>
			<point x="26" y="322"/>
		</contour>
	</outline>
</glyph>
<glyph name="r" format="2">
	<advance width="600"/>
	<unicode hex="0072"/>
	<anchor x="301" y="0" name="bottom"/>
	<anchor x="292" y="410" name="top"/>
	<outline>
		<contour>
			<point x="229" y="254" type="curve"/>
			<point x="244" y="227" type="line"/>
			<point x="330" y="337"/>
			<point x="431" y="375"/>
			<point x="535" y="349" type="curve"/>
			<point x="510" y="423" type="line"/>
			<point x="532" y="258" type="line"/>
			<point x="540" y="256" type="line"/>
			<point x="589" y="427" type="line"/>
			<point x="576" y="432"/>
			<point x="552" y="436"/>
			<point x="537" y="436" type="curve" smooth="yes"/>
			<point x="447" y="436"/>
			<point x="328" y="384"/>
		</contour>
		<contour>
			<point x="259" y="50" type="line"/>
			<point x="259" y="435" type="line"/>
			<point x="31" y="355" type="line"/>
			<point x="33" y="347" type="line"/>
			<point x="172" y="355" type="line"/>
			<point x="172" y="49" type="line"/>
			<point x="42" y="8" type="line"/>
			<point x="44" y="0" type="line"/>
			<point x="457" y="0" type="line"/>
			<point x="459" y="7" type="line"/>
		</contour>
	</outline>
</glyph>
<glyph name="s" format="2">
	<advance width="620"/>
	<unicode hex="0073"/>
	<anchor x="333" y="0" name="bottom"/>
	<anchor x="313" y="410" name="top"/>
	<outline>
		<contour>
			<point x="26" y="46" type="line"/>
			<point x="104" y="1"/>
			<point x="212" y="-22"/>
			<point x="327" y="-19" type="curve" smooth="yes"/>
			<point x="491" y="-15"/>
			<point x="583" y="46"/>
			<point x="582" y="150" type="curve" smooth="yes"/>
			<point x="582" y="204"/>
			<point x="513" y="240"/>
			<point x="397" y="248" type="curve" smooth="yes"/>
			<point x="245" y="258" type="line" smooth="yes"/>
			<point x="143" y="265"/>
			<point x="108" y="279"/>
			<point x="108" y="313" type="curve" smooth="yes"/>
			<point x="108" y="360"/>
			<point x="174" y="392"/>
			<point x="277" y="395" type="curve" smooth="yes"/>
			<point x="338" y="397"/>
			<point x="420" y="387"/>
			<point x="484" y="369" type="curve"/>
			<point x="499" y="281" type="line"/>
			<point x="507" y="279" type="line"/>
			<point x="557" y="405" type="line"/>
			<point x="461" y="431"/>
			<point x="372" y="443"/>
			<point x="298" y="441" type="curve" smooth="yes"/>
			<point x="153" y="438"/>
			<point x="52" y="376"/>
			<point x="52" y="290" type="curve" smooth="yes"/>
			<point x="52" y="224"/>
			<point x="112" y="186"/>
			<point x="227" y="179" type="curve" smooth="yes"/>
			<point x="379" y="170" type="line" smooth="yes"/>
			<point x="479" y="164"/>
			<point x="526" y="144"/>
			<point x="526" y="107" type="curve" smooth="yes"/>
			<point x="526" y="57"/>
			<point x="468" y="32"/>
			<point x="346" y="30" type="curve" smooth="yes"/>
			<point x="257" y="29"/>
			<point x="159" y="49"/>
			<point x="100" y="81" type="curve"/>
			<point x="85" y="168" type="line"/>
			<point x="77" y="170" type="line"/>
		</contour>
	</outline>
</glyph>
<glyph name="t" format="2">
  <advance width="598"/>
  <unicode hex="0074"/>
  <anchor x="302" y="0" name="bottom"/>
  <anchor x="302" y="205" name="center"/>
  <anchor x="302" y="415" name="top"/>
  <anchor x="249" y="705" name="topright"/>
  <outline>
    <contour>
      <point x="-5" y="383" type="line"/>
      <point x="-3" y="375" type="line"/>
      <point x="86" y="375" type="line"/>
      <point x="86" y="176" type="line" smooth="yes"/>
      <point x="86" y="56"/>
      <point x="195" y="-20"/>
      <point x="314" y="-20" type="curve" smooth="yes"/>
      <point x="403" y="-20"/>
      <point x="501" y="35"/>
      <point x="592" y="88" type="curve"/>
      <point x="575" y="111" type="line"/>
      <point x="503" y="65"/>
      <point x="400" y="43"/>
      <point x="333" y="43" type="curve" smooth="yes"/>
      <point x="231" y="43"/>
      <point x="173" y="86"/>
      <point x="173" y="176" type="curve" smooth="yes"/>
      <point x="173" y="563" type="line"/>
      <point x="161" y="565" type="line"/>
      <point x="93" y="423" type="line"/>
    </contour>
    <contour>
      <point x="143" y="375" type="line"/>
      <point x="441" y="375" type="line"/>
      <point x="458" y="253" type="line"/>
      <point x="466" y="251" type="line"/>
      <point x="521" y="415" type="line"/>
      <point x="143" y="415" type="line"/>
    </contour>
  </outline>
</glyph>
<glyph name="u" format="2">
	<advance width="823"/>
	<unicode hex="0075"/>
	<anchor x="456" y="0" name="bottom"/>
	<anchor x="667" y="10" name="ogonek"/>
	<anchor x="405" y="415" name="top"/>
	<anchor x="843" y="415" name="topright"/>
	<outline>
		<contour>
			<point x="-26" y="350" type="line"/>
			<point x="-24" y="342" type="line"/>
			<point x="115" y="350" type="line"/>
			<point x="115" y="201" type="line" smooth="yes"/>
			<point x="115" y="60"/>
			<point x="190" y="-20"/>
			<point x="335" y="-20" type="curve" smooth="yes"/>
			<point x="426" y="-20"/>
			<point x="531" y="4"/>
			<point x="627" y="60" type="curve"/>
			<point x="627" y="-12" type="line"/>
			<point x="850" y="73" type="line"/>
			<point x="848" y="81" type="line"/>
			<point x="710" y="70" type="line"/>
			<point x="711" y="435" type="line"/>
			<point x="483" y="350" type="line"/>
			<point x="485" y="342" type="line"/>
			<point x="623" y="350" type="line"/>
			<point x="623" y="97" type="line"/>
			<point x="550" y="57"/>
			<point x="474" y="36"/>
			<point x="400" y="36" type="curve" smooth="yes"/>
			<point x="271" y="36"/>
			<point x="202" y="92"/>
			<point x="202" y="201" type="curve" smooth="yes"/>
			<point x="202" y="435" type="line"/>
		</contour>
	</outline>
</glyph>
<glyph name="v" format="2">
  <advance width="761"/>
  <unicode hex="0076"/>
  <anchor x="419" y="0" name="bottom"/>
  <anchor x="419" y="415" name="top"/>
  <outline>
    <contour>
      <point x="-25" y="407" type="line"/>
      <point x="115" y="365" type="line"/>
      <point x="385" y="0" type="line"/>
      <point x="434" y="0" type="line"/>
      <point x="691" y="365" type="line"/>
      <point x="831" y="407" type="line"/>
      <point x="829" y="415" type="line"/>
      <point x="469" y="415" type="line"/>
      <point x="467" y="407" type="line"/>
      <point x="627" y="365" type="line"/>
      <point x="409" y="14" type="line"/>
      <point x="446" y="30" type="line"/>
      <point x="230" y="365" type="line"/>
      <point x="390" y="407" type="line"/>
      <point x="388" y="415" type="line"/>
      <point x="-23" y="415" type="line"/>
    </contour>
  </outline>
</glyph>
<glyph name="w" format="2">
  <advance width="913"/>
  <unicode hex="0077"/>
  <anchor x="473" y="0" name="bottom"/>
  <anchor x="473" y="410" name="top"/>
  <outline>
    <contour>
      <point x="-75" y="407" type="line"/>
      <point x="55" y="365" type="line"/>
      <point x="244" y="0" type="line"/>
      <point x="301" y="0" type="line"/>
      <point x="491" y="417" type="line"/>
      <point x="449" y="403" type="line"/>
      <point x="641" y="0" type="line"/>
      <point x="693" y="0" type="line"/>
      <point x="863" y="365" type="line"/>
      <point x="993" y="407" type="line"/>
      <point x="991" y="415" type="line"/>
      <point x="637" y="415" type="line"/>
      <point x="635" y="407" type="line"/>
      <point x="805" y="365" type="line"/>
      <point x="667" y="30" type="line"/>
      <point x="705" y="39" type="line"/>
      <point x="513" y="425" type="line"/>
      <point x="448" y="411" type="line"/>
      <point x="274" y="24" type="line"/>
      <point x="304" y="39" type="line"/>
      <point x="157" y="365" type="line"/>
      <point x="337" y="407" type="line"/>
      <point x="335" y="415" type="line"/>
      <point x="-73" y="415" type="line"/>
    </contour>
  </outline>
</glyph>
<glyph name="x" format="2">
	<advance width="825"/>
	<unicode hex="0078"/>
	<guideline x="-236.5" y="35" angle="0"/>
	<anchor x="414" y="0" name="bottom"/>
	<anchor x="414" y="415" name="top"/>
	<outline>
		<contour>
			<point x="404" y="222" type="line"/>
			<point x="436" y="203" type="line"/>
			<point x="650" y="365" type="line"/>
			<point x="788" y="407" type="line"/>
			<point x="786" y="415" type="line"/>
			<point x="455" y="415" type="line"/>
			<point x="453" y="407" type="line"/>
			<point x="575" y="365" type="line"/>
		</contour>
		<contour>
			<point x="172" y="365" type="line"/>
			<point x="575" y="49" type="line"/>
			<point x="426" y="8" type="line"/>
			<point x="428" y="0" type="line"/>
			<point x="817" y="0" type="line"/>
			<point x="819" y="8" type="line"/>
			<point x="679" y="49" type="line"/>
			<point x="276" y="365" type="line"/>
			<point x="406" y="407" type="line"/>
			<point x="404" y="415" type="line"/>
			<point x="34" y="415" type="line"/>
			<point x="32" y="407" type="line"/>
		</contour>
		<contour>
			<point x="425" y="199" type="line"/>
			<point x="398" y="221" type="line"/>
			<point x="144" y="50" type="line"/>
			<point x="6" y="8" type="line"/>
			<point x="8" y="0" type="line"/>
			<point x="367" y="0" type="line"/>
			<point x="369" y="8" type="line"/>
			<point x="225" y="49" type="line"/>
		</contour>
	</outline>
</glyph>
<glyph name="y" format="2">
	<advance width="641"/>
	<unicode hex="0079"/>
	<anchor x="319" y="0" name="bottom"/>
	<anchor x="310" y="410" name="top"/>
	<outline>
		<contour>
			<point x="-105" y="409" type="line"/>
			<point x="23" y="365" type="line"/>
			<point x="302" y="-36" type="line"/>
			<point x="296" y="-10" type="line"/>
			<point x="89" y="-251" type="line"/>
			<point x="89" y="-255" type="line"/>
			<point x="191" y="-255" type="line"/>
			<point x="348" y="0" type="line"/>
			<point x="605" y="365" type="line"/>
			<point x="740" y="409" type="line"/>
			<point x="738" y="415" type="line"/>
			<point x="383" y="415" type="line"/>
			<point x="381" y="409" type="line"/>
			<point x="542" y="365" type="line"/>
			<point x="309" y="11" type="line"/>
			<point x="331" y="29" type="line"/>
			<point x="138" y="365" type="line"/>
			<point x="305" y="409" type="line"/>
			<point x="303" y="415" type="line"/>
			<point x="-103" y="415" type="line"/>
		</contour>
	</outline>
</glyph>
<glyph name="z" format="2">
  <advance width="666"/>
  <unicode hex="007A"/>
  <anchor x="311" y="0" name="bottom"/>
  <anchor x="311" y="205" name="center"/>
  <anchor x="311" y="410" name="top"/>
  <outline>
    <contour>
      <point x="16" y="22" type="line"/>
      <point x="39" y="0" type="line"/>
      <point x="635" y="0" type="line"/>
      <point x="611" y="158" type="line"/>
      <point x="603" y="159" type="line"/>
      <point x="558" y="48" type="line"/>
      <point x="105" y="40" type="line"/>
      <point x="123" y="10" type="line"/>
      <point x="625" y="388" type="line"/>
      <point x="609" y="415" type="line"/>
      <point x="23" y="426" type="line"/>
      <point x="57" y="273" type="line"/>
      <point x="65" y="276" type="line"/>
      <point x="101" y="376" type="line"/>
      <point x="545" y="380" type="line"/>
      <point x="523" y="405" type="line"/>
    </contour>
  </outline>
</glyph>
<glyph name="braceleft" format="2">
  <advance width="432"/>
  <unicode hex="007B"/>
  <outline>
    <contour>
      <point x="250" y="511" type="line" smooth="yes"/>
      <point x="250" y="630"/>
      <point x="273" y="648"/>
      <point x="396" y="702" type="curve"/>
      <point x="388" y="720" type="line"/>
      <point x="241" y="686"/>
      <point x="167" y="626"/>
      <point x="167" y="510" type="curve" smooth="yes"/>
      <point x="167" y="411" type="line" smooth="yes"/>
      <point x="167" y="348"/>
      <point x="152" y="305"/>
      <point x="64" y="305" type="curve"/>
      <point x="64" y="290" type="line"/>
      <point x="154" y="290"/>
      <point x="167" y="235"/>
      <point x="167" y="173" type="curve" smooth="yes"/>
      <point x="167" y="74" type="line" smooth="yes"/>
      <point x="167" y="-37"/>
      <point x="234" y="-100"/>
      <point x="388" y="-136" type="curve"/>
      <point x="396" y="-118" type="line"/>
      <point x="273" y="-64"/>
      <point x="250" y="-46"/>
      <point x="250" y="73" type="curve" smooth="yes"/>
      <point x="250" y="167" type="line" smooth="yes"/>
      <point x="250" y="261"/>
      <point x="192" y="307"/>
      <point x="89" y="306" type="curve"/>
      <point x="89" y="292" type="line"/>
      <point x="187" y="291"/>
      <point x="250" y="341"/>
      <point x="250" y="417" type="curve" smooth="yes"/>
    </contour>
  </outline>
</glyph>
<glyph name="bar" format="2">
  <advance width="176"/>
  <unicode hex="007C"/>
  <outline>
    <contour>
      <point x="59" y="-250" type="line"/>
      <point x="117" y="-250" type="line"/>
      <point x="118" y="700" type="line"/>
      <point x="59" y="700" type="line"/>
    </contour>
  </outline>
</glyph>
<glyph name="asciitilde" format="2">
	<advance width="568"/>
	<unicode hex="007E"/>
	<outline>
		<contour>
			<point x="253" y="329" type="curve" smooth="yes"/>
			<point x="354" y="279" type="line" smooth="yes"/>
			<point x="368" y="272"/>
			<point x="380" y="268"/>
			<point x="388" y="268" type="curve" smooth="yes"/>
			<point x="439" y="268"/>
			<point x="453" y="294"/>
			<point x="453" y="342" type="curve"/>
			<point x="514" y="342" type="line"/>
			<point x="514" y="260"/>
			<point x="471" y="210"/>
			<point x="384" y="210" type="curve" smooth="yes"/>
			<point x="363" y="210"/>
			<point x="346" y="214"/>
			<point x="315" y="229" type="curve" smooth="yes"/>
			<point x="214" y="279" type="line" smooth="yes"/>
			<point x="200" y="286"/>
			<point x="188" y="290"/>
			<point x="177" y="290" type="curve" smooth="yes"/>
			<point x="127" y="290"/>
			<point x="115" y="264"/>
			<point x="115" y="217" type="curve"/>
			<point x="54" y="217" type="line"/>
			<point x="54" y="298"/>
			<point x="98" y="348"/>
			<point x="184" y="348" type="curve" smooth="yes"/>
			<point x="205" y="348"/>
			<point x="225" y="343"/>
		</contour>
	</outline>
</glyph>
<glyph name="cent" format="2">
  <advance width="620"/>
  <unicode hex="00A2"/>
  <outline>
    <contour>
      <point x="545" y="100" type="curve"/>
      <point x="532" y="114" type="line"/>
      <point x="472" y="65"/>
      <point x="411" y="43"/>
      <point x="334" y="43" type="curve" smooth="yes"/>
      <point x="205" y="43"/>
      <point x="138" y="103"/>
      <point x="138" y="219" type="curve" smooth="yes"/>
      <point x="138" y="333"/>
      <point x="200" y="391"/>
      <point x="323" y="391" type="curve" smooth="yes"/>
      <point x="373" y="391"/>
      <point x="425" y="381"/>
      <point x="467" y="364" type="curve"/>
      <point x="490" y="253" type="line"/>
      <point x="498" y="251" type="line"/>
      <point x="545" y="407" type="line"/>
      <point x="472" y="424"/>
      <point x="394" y="435"/>
      <point x="342" y="435" type="curve" smooth="yes"/>
      <point x="178" y="435"/>
      <point x="51" y="327"/>
      <point x="51" y="187" type="curve" smooth="yes"/>
      <point x="51" y="64"/>
      <point x="151" y="-20"/>
      <point x="297" y="-20" type="curve" smooth="yes"/>
      <point x="390" y="-20"/>
      <point x="460" y="14"/>
    </contour>
    <contour>
      <point x="295" y="500" type="line"/>
      <point x="295" y="-100" type="line"/>
      <point x="340" y="-100" type="line"/>
      <point x="340" y="500" type="line"/>
    </contour>
  </outline>
</glyph>
<glyph name="sterling" format="2">
  <advance width="741"/>
  <unicode hex="00A3"/>
  <outline>
    <contour>
      <point x="45" y="319" type="line"/>
      <point x="45" y="266" type="line"/>
      <point x="500" y="266" type="line"/>
      <point x="500" y="319" type="line"/>
    </contour>
    <contour>
      <point x="365" y="576" type="curve" smooth="yes"/>
      <point x="454" y="576"/>
      <point x="523" y="566"/>
      <point x="584" y="542" type="curve"/>
      <point x="599" y="407" type="line"/>
      <point x="607" y="405" type="line"/>
      <point x="668" y="595" type="line"/>
      <point x="582" y="613"/>
      <point x="513" y="623"/>
      <point x="395" y="623" type="curve" smooth="yes"/>
      <point x="210" y="623"/>
      <point x="82" y="532"/>
      <point x="82" y="441" type="curve" smooth="yes"/>
      <point x="82" y="352"/>
      <point x="154" y="276"/>
      <point x="154" y="192" type="curve" smooth="yes"/>
      <point x="154" y="144"/>
      <point x="129" y="98"/>
      <point x="32" y="45" type="curve"/>
      <point x="53" y="0" type="line"/>
      <point x="685" y="0" type="line"/>
      <point x="665" y="230" type="line"/>
      <point x="657" y="228" type="line"/>
      <point x="600" y="55" type="line"/>
      <point x="81" y="42" type="line"/>
      <point x="54" y="16" type="line"/>
      <point x="175" y="81"/>
      <point x="258" y="152"/>
      <point x="258" y="210" type="curve" smooth="yes"/>
      <point x="258" y="288"/>
      <point x="179" y="377"/>
      <point x="179" y="468" type="curve" smooth="yes"/>
      <point x="179" y="552"/>
      <point x="259" y="576"/>
    </contour>
  </outline>
</glyph>
<glyph name="currency" format="2">
	<advance width="596"/>
	<unicode hex="00A4"/>
	<outline>
		<contour>
			<point x="304" y="34" type="curve" smooth="yes"/>
			<point x="181" y="34"/>
			<point x="99" y="103"/>
			<point x="99" y="205" type="curve" smooth="yes"/>
			<point x="99" y="311"/>
			<point x="181" y="379"/>
			<point x="308" y="379" type="curve" smooth="yes"/>
			<point x="432" y="379"/>
			<point x="512" y="312"/>
			<point x="512" y="210" type="curve" smooth="yes"/>
			<point x="512" y="103"/>
			<point x="430" y="34"/>
		</contour>
		<contour>
			<point x="306" y="-20" type="curve" smooth="yes"/>
			<point x="472" y="-20"/>
			<point x="583" y="70"/>
			<point x="583" y="205" type="curve" smooth="yes"/>
			<point x="583" y="343"/>
			<point x="472" y="434"/>
			<point x="306" y="434" type="curve" smooth="yes"/>
			<point x="138" y="434"/>
			<point x="27" y="343"/>
			<point x="27" y="210" type="curve" smooth="yes"/>
			<point x="27" y="72"/>
			<point x="140" y="-20"/>
		</contour>
		<contour>
			<point x="72" y="436" type="line"/>
			<point x="26" y="390" type="line"/>
			<point x="109" y="318" type="line"/>
			<point x="156" y="364" type="line"/>
		</contour>
		<contour>
			<point x="528" y="436" type="line"/>
			<point x="446" y="364" type="line"/>
			<point x="492" y="318" type="line"/>
			<point x="575" y="390" type="line"/>
		</contour>
		<contour>
			<point x="528" y="-21" type="line"/>
			<point x="574" y="25" type="line"/>
			<point x="492" y="97" type="line"/>
			<point x="444" y="51" type="line"/>
		</contour>
		<contour>
			<point x="72" y="-21" type="line"/>
			<point x="156" y="51" type="line"/>
			<point x="109" y="97" type="line"/>
			<point x="26" y="25" type="line"/>
		</contour>
	</outline>
</glyph>
<glyph name="yen" format="2">
  <advance width="976"/>
  <unicode hex="00A5"/>
  <outline>
    <contour>
      <point x="-16" y="592" type="line"/>
      <point x="114" y="550" type="line"/>
      <point x="428" y="250" type="line"/>
      <point x="428" y="50" type="line"/>
      <point x="273" y="6" type="line"/>
      <point x="275" y="0" type="line"/>
      <point x="672" y="0" type="line"/>
      <point x="674" y="6" type="line"/>
      <point x="524" y="50" type="line"/>
      <point x="524" y="251" type="line"/>
      <point x="842" y="550" type="line"/>
      <point x="972" y="592" type="line"/>
      <point x="970" y="600" type="line"/>
      <point x="589" y="600" type="line"/>
      <point x="587" y="592" type="line"/>
      <point x="757" y="550" type="line"/>
      <point x="482" y="264" type="line"/>
      <point x="523" y="274" type="line"/>
      <point x="241" y="550" type="line"/>
      <point x="395" y="592" type="line"/>
      <point x="393" y="600" type="line"/>
      <point x="-14" y="600" type="line"/>
    </contour>
    <contour>
      <point x="237" y="297" type="line"/>
      <point x="237" y="251" type="line"/>
      <point x="714" y="251" type="line"/>
      <point x="714" y="297" type="line"/>
      <point x="531" y="297" type="line"/>
      <point x="505" y="284" type="line"/>
      <point x="442" y="297" type="line"/>
    </contour>
    <contour>
      <point x="237" y="179" type="line"/>
      <point x="237" y="133" type="line"/>
      <point x="714" y="133" type="line"/>
      <point x="714" y="179" type="line"/>
    </contour>
  </outline>
</glyph>
<glyph name="brokenbar" format="2">
  <advance width="176"/>
  <unicode hex="00A6"/>
  <outline>
    <contour>
      <point x="59" y="-256" type="line"/>
      <point x="118" y="-256" type="line"/>
      <point x="118" y="169" type="line"/>
      <point x="59" y="169" type="line"/>
    </contour>
    <contour>
      <point x="59" y="271" type="line"/>
      <point x="118" y="271" type="line"/>
      <point x="118" y="706" type="line"/>
      <point x="59" y="706" type="line"/>
    </contour>
  </outline>
</glyph>
<glyph name="section" format="2">
	<advance width="680"/>
	<unicode hex="00A7"/>
	<outline>
		<contour>
			<point x="444" y="260" type="curve"/>
			<point x="474" y="223" type="line"/>
			<point x="551" y="247"/>
			<point x="603" y="301"/>
			<point x="602" y="373" type="curve" smooth="yes"/>
			<point x="601" y="442"/>
			<point x="548" y="482"/>
			<point x="428" y="494" type="curve" smooth="yes"/>
			<point x="275" y="509" type="line" smooth="yes"/>
			<point x="189" y="517"/>
			<point x="173" y="532"/>
			<point x="173" y="571" type="curve" smooth="yes"/>
			<point x="173" y="627"/>
			<point x="212" y="660"/>
			<point x="307" y="663" type="curve" smooth="yes"/>
			<point x="382" y="665"/>
			<point x="491" y="644"/>
			<point x="515" y="627" type="curve"/>
			<point x="530" y="529" type="line"/>
			<point x="538" y="527" type="line"/>
			<point x="589" y="647" type="line"/>
			<point x="533" y="682"/>
			<point x="415" y="708"/>
			<point x="330" y="706" type="curve" smooth="yes"/>
			<point x="190" y="703"/>
			<point x="97" y="636"/>
			<point x="97" y="539" type="curve" smooth="yes"/>
			<point x="97" y="466"/>
			<point x="149" y="429"/>
			<point x="258" y="416" type="curve" smooth="yes"/>
			<point x="410" y="398" type="line" smooth="yes"/>
			<point x="503" y="387"/>
			<point x="531" y="370"/>
			<point x="531" y="331" type="curve" smooth="yes"/>
			<point x="531" y="283"/>
			<point x="493" y="264"/>
		</contour>
		<contour>
			<point x="204" y="425" type="curve"/>
			<point x="184" y="458" type="line"/>
			<point x="134" y="439"/>
			<point x="91" y="372"/>
			<point x="91" y="324" type="curve" smooth="yes"/>
			<point x="91" y="259"/>
			<point x="161" y="208"/>
			<point x="268" y="196" type="curve" smooth="yes"/>
			<point x="419" y="179" type="line" smooth="yes"/>
			<point x="508" y="169"/>
			<point x="547" y="148"/>
			<point x="547" y="109" type="curve" smooth="yes"/>
			<point x="547" y="57"/>
			<point x="497" y="32"/>
			<point x="383" y="30" type="curve" smooth="yes"/>
			<point x="303" y="29"/>
			<point x="187" y="50"/>
			<point x="139" y="77" type="curve"/>
			<point x="124" y="171" type="line"/>
			<point x="116" y="173" type="line"/>
			<point x="64" y="49" type="line"/>
			<point x="134" y="6"/>
			<point x="250" y="-20"/>
			<point x="366" y="-17" type="curve" smooth="yes"/>
			<point x="526" y="-13"/>
			<point x="626" y="49"/>
			<point x="625" y="142" type="curve" smooth="yes"/>
			<point x="624" y="222"/>
			<point x="553" y="263"/>
			<point x="437" y="275" type="curve" smooth="yes"/>
			<point x="284" y="291" type="line" smooth="yes"/>
			<point x="182" y="302"/>
			<point x="157" y="329"/>
			<point x="157" y="364" type="curve" smooth="yes"/>
			<point x="157" y="393"/>
			<point x="178" y="419"/>
		</contour>
	</outline>
</glyph>
<glyph name="copyright" format="2">
	<advance width="942"/>
	<unicode hex="00A9"/>
	<outline>
		<contour>
			<point x="474" y="-20" type="curve" smooth="yes"/>
			<point x="219" y="-20"/>
			<point x="64" y="99"/>
			<point x="64" y="299" type="curve" smooth="yes"/>
			<point x="64" y="503"/>
			<point x="217" y="625"/>
			<point x="470" y="625" type="curve" smooth="yes"/>
			<point x="722" y="625"/>
			<point x="878" y="506"/>
			<point x="878" y="306" type="curve" smooth="yes"/>
			<point x="878" y="102"/>
			<point x="724" y="-20"/>
		</contour>
		<contour>
			<point x="460" y="574" type="curve" smooth="yes"/>
			<point x="254" y="574"/>
			<point x="126" y="473"/>
			<point x="126" y="299" type="curve" smooth="yes"/>
			<point x="126" y="132"/>
			<point x="260" y="32"/>
			<point x="482" y="32" type="curve" smooth="yes"/>
			<point x="687" y="32"/>
			<point x="816" y="133"/>
			<point x="816" y="307" type="curve" smooth="yes"/>
			<point x="816" y="475"/>
			<point x="681" y="574"/>
		</contour>
		<contour>
			<point x="219" y="304" type="curve" smooth="yes"/>
			<point x="219" y="200"/>
			<point x="329" y="123"/>
			<point x="488" y="123" type="curve" smooth="yes"/>
			<point x="566" y="123"/>
			<point x="628" y="141"/>
			<point x="680" y="183" type="curve"/>
			<point x="662" y="202" type="line"/>
			<point x="637" y="177"/>
			<point x="581" y="167"/>
			<point x="525" y="167" type="curve" smooth="yes"/>
			<point x="371" y="167"/>
			<point x="290" y="214"/>
			<point x="290" y="312" type="curve" smooth="yes"/>
			<point x="290" y="409"/>
			<point x="349" y="439"/>
			<point x="470" y="439" type="curve" smooth="yes"/>
			<point x="537" y="439"/>
			<point x="609" y="421"/>
			<point x="643" y="412" type="curve"/>
			<point x="652" y="323" type="line"/>
			<point x="660" y="321" type="line"/>
			<point x="693" y="443" type="line"/>
			<point x="634" y="471"/>
			<point x="577" y="484"/>
			<point x="494" y="484" type="curve" smooth="yes"/>
			<point x="337" y="484"/>
			<point x="219" y="410"/>
		</contour>
	</outline>
</glyph>
<glyph name="logicalnot" format="2">
	<advance width="536"/>
	<unicode hex="00AC"/>
	<outline>
		<contour>
			<point x="54" y="381" type="line"/>
			<point x="54" y="319" type="line"/>
			<point x="419" y="318" type="line"/>
			<point x="419" y="142" type="line"/>
			<point x="482" y="142" type="line"/>
			<point x="482" y="381" type="line"/>
		</contour>
	</outline>
</glyph>
<glyph name="registered" format="2">
  <advance width="942"/>
  <unicode hex="00AE"/>
  <outline>
    <contour>
      <point x="474" y="-12" type="curve" smooth="yes"/>
      <point x="219" y="-12"/>
      <point x="64" y="99"/>
      <point x="64" y="299" type="curve" smooth="yes"/>
      <point x="64" y="503"/>
      <point x="217" y="617"/>
      <point x="470" y="617" type="curve" smooth="yes"/>
      <point x="723" y="617"/>
      <point x="878" y="506"/>
      <point x="878" y="306" type="curve" smooth="yes"/>
      <point x="878" y="102"/>
      <point x="724" y="-12"/>
    </contour>
    <contour>
      <point x="460" y="566" type="curve" smooth="yes"/>
      <point x="254" y="566"/>
      <point x="126" y="473"/>
      <point x="126" y="299" type="curve" smooth="yes"/>
      <point x="126" y="132"/>
      <point x="260" y="40"/>
      <point x="482" y="40" type="curve" smooth="yes"/>
      <point x="687" y="40"/>
      <point x="816" y="133"/>
      <point x="816" y="307" type="curve" smooth="yes"/>
      <point x="816" y="475"/>
      <point x="681" y="566"/>
    </contour>
    <contour>
      <point x="206" y="160" type="line"/>
      <point x="208" y="154" type="line"/>
      <point x="420" y="154" type="line"/>
      <point x="422" y="161" type="line"/>
      <point x="344" y="184" type="line"/>
      <point x="344" y="286" type="line"/>
      <point x="529" y="286" type="line" smooth="yes"/>
      <point x="603" y="286"/>
      <point x="677" y="324"/>
      <point x="677" y="381" type="curve" smooth="yes"/>
      <point x="677" y="447"/>
      <point x="608" y="466"/>
      <point x="507" y="466" type="curve" smooth="yes"/>
      <point x="208" y="466" type="line"/>
      <point x="206" y="459" type="line"/>
      <point x="283" y="431" type="line"/>
      <point x="283" y="184" type="line"/>
    </contour>
    <contour>
      <point x="343" y="325" type="line"/>
      <point x="343" y="425" type="line"/>
      <point x="492" y="431" type="line" smooth="yes"/>
      <point x="566" y="434"/>
      <point x="614" y="417"/>
      <point x="614" y="374" type="curve" smooth="yes"/>
      <point x="614" y="329"/>
      <point x="605" y="315"/>
      <point x="502" y="319" type="curve" smooth="yes"/>
    </contour>
    <contour>
      <point x="565" y="302" type="line"/>
      <point x="494" y="302" type="line"/>
      <point x="589" y="184" type="line"/>
      <point x="511" y="162" type="line"/>
      <point x="513" y="154" type="line"/>
      <point x="728" y="154" type="line"/>
      <point x="730" y="162" type="line"/>
      <point x="661" y="184" type="line"/>
    </contour>
  </outline>
</glyph>
<glyph name="degree" format="2">
  <advance width="381"/>
  <unicode hex="00B0"/>
  <outline>
    <contour>
      <point x="191" y="289" type="curve" smooth="yes"/>
      <point x="281" y="288"/>
      <point x="357" y="367"/>
      <point x="357" y="457" type="curve" smooth="yes"/>
      <point x="357" y="546"/>
      <point x="282" y="622"/>
      <point x="191" y="622" type="curve" smooth="yes"/>
      <point x="99" y="622"/>
      <point x="24" y="547"/>
      <point x="24" y="457" type="curve" smooth="yes"/>
      <point x="24" y="365"/>
      <point x="100" y="290"/>
    </contour>
    <contour>
      <point x="191" y="357" type="curve" smooth="yes"/>
      <point x="134" y="356"/>
      <point x="91" y="404"/>
      <point x="91" y="457" type="curve" smooth="yes"/>
      <point x="91" y="510"/>
      <point x="134" y="555"/>
      <point x="191" y="554" type="curve" smooth="yes"/>
      <point x="245" y="553"/>
      <point x="290" y="511"/>
      <point x="290" y="457" type="curve" smooth="yes"/>
      <point x="290" y="404"/>
      <point x="246" y="358"/>
    </contour>
  </outline>
</glyph>
<glyph name="plusminus" format="2">
	<advance width="564"/>
	<unicode hex="00B1"/>
	<outline>
		<contour>
			<point x="50" y="253" type="line"/>
			<point x="251" y="253" type="line"/>
			<point x="251" y="100" type="line"/>
			<point x="314" y="100" type="line"/>
			<point x="314" y="252" type="line"/>
			<point x="514" y="252" type="line"/>
			<point x="514" y="309" type="line"/>
			<point x="314" y="309" type="line"/>
			<point x="314" y="462" type="line"/>
			<point x="252" y="462" type="line"/>
			<point x="252" y="309" type="line"/>
			<point x="50" y="309" type="line"/>
		</contour>
		<contour>
			<point x="72" y="73" type="line"/>
			<point x="72" y="11" type="line"/>
			<point x="493" y="10" type="line"/>
			<point x="493" y="73" type="line"/>
		</contour>
	</outline>
</glyph>
<glyph name="twosuperior" format="2">
  <advance width="566"/>
  <unicode hex="00B2"/>
  <outline>
    <contour>
      <point x="58" y="558" type="curve"/>
      <point x="85" y="450" type="line"/>
      <point x="90" y="452" type="line"/>
      <point x="112" y="552" type="line"/>
      <point x="138" y="571"/>
      <point x="217" y="588"/>
      <point x="267" y="588" type="curve" smooth="yes"/>
      <point x="346" y="588"/>
      <point x="372" y="550"/>
      <point x="372" y="489" type="curve" smooth="yes"/>
      <point x="372" y="426"/>
      <point x="350" y="404"/>
      <point x="61" y="277" type="curve"/>
      <point x="72" y="249" type="line"/>
      <point x="504" y="249" type="line"/>
      <point x="492" y="387" type="line"/>
      <point x="487" y="386" type="line"/>
      <point x="443" y="290" type="line"/>
      <point x="124" y="281" type="line"/>
      <point x="123" y="260" type="line"/>
      <point x="427" y="394"/>
      <point x="471" y="434"/>
      <point x="470" y="514" type="curve" smooth="yes"/>
      <point x="469" y="572"/>
      <point x="384" y="623"/>
      <point x="286" y="623" type="curve" smooth="yes"/>
      <point x="206" y="623"/>
      <point x="102" y="594"/>
    </contour>
  </outline>
</glyph>
<glyph name="threesuperior" format="2">
	<advance width="599"/>
	<unicode hex="00B3"/>
	<outline>
		<contour>
			<point x="332" y="438" type="curve" smooth="yes"/>
			<point x="421" y="438"/>
			<point x="466" y="399"/>
			<point x="466" y="348" type="curve" smooth="yes"/>
			<point x="466" y="295"/>
			<point x="415" y="265"/>
			<point x="304" y="265" type="curve" smooth="yes"/>
			<point x="227" y="265"/>
			<point x="129" y="302"/>
			<point x="118" y="323" type="curve"/>
			<point x="106" y="417" type="line"/>
			<point x="102" y="418" type="line"/>
			<point x="62" y="302" type="line"/>
			<point x="112" y="255"/>
			<point x="195" y="233"/>
			<point x="304" y="233" type="curve" smooth="yes"/>
			<point x="423" y="233"/>
			<point x="537" y="289"/>
			<point x="537" y="369" type="curve" smooth="yes"/>
			<point x="537" y="432"/>
			<point x="461" y="483"/>
			<point x="386" y="483" type="curve" smooth="yes"/>
			<point x="333" y="483"/>
			<point x="270" y="465"/>
			<point x="253" y="453" type="curve"/>
			<point x="246" y="436" type="line"/>
			<point x="523" y="578" type="line"/>
			<point x="513" y="605" type="line"/>
			<point x="84" y="612" type="line"/>
			<point x="108" y="458" type="line"/>
			<point x="113" y="459" type="line"/>
			<point x="132" y="563" type="line"/>
			<point x="461" y="568" type="line"/>
			<point x="460" y="593" type="line"/>
			<point x="164" y="444" type="line"/>
			<point x="202" y="413" type="line"/>
			<point x="244" y="431"/>
			<point x="286" y="438"/>
		</contour>
	</outline>
</glyph>
<glyph name="paragraph" format="2">
	<advance width="794"/>
	<unicode hex="00B6"/>
	<outline>
		<contour>
			<point x="740" y="8" type="line"/>
			<point x="590" y="50" type="line"/>
			<point x="590" y="650" type="line"/>
			<point x="740" y="692" type="line"/>
			<point x="738" y="700" type="line"/>
			<point x="328" y="700" type="line" smooth="yes"/>
			<point x="144" y="700"/>
			<point x="10" y="650"/>
			<point x="10" y="524" type="curve" smooth="yes"/>
			<point x="10" y="400"/>
			<point x="134" y="345"/>
			<point x="328" y="343" type="curve" smooth="yes"/>
			<point x="423" y="342" type="line"/>
			<point x="423" y="50" type="line"/>
			<point x="243" y="8" type="line"/>
			<point x="245" y="0" type="line"/>
			<point x="738" y="0" type="line"/>
		</contour>
		<contour>
			<point x="484" y="650" type="line"/>
			<point x="530" y="650" type="line"/>
			<point x="530" y="50" type="line"/>
			<point x="484" y="50" type="line"/>
		</contour>
	</outline>
</glyph>
<glyph name="onesuperior" format="2">
  <advance width="412"/>
  <unicode hex="00B9"/>
  <outline>
    <contour>
      <point x="63" y="524" type="line"/>
      <point x="174" y="554" type="line"/>
      <point x="174" y="280" type="line"/>
      <point x="66" y="253" type="line"/>
      <point x="67" y="248" type="line"/>
      <point x="349" y="248" type="line"/>
      <point x="350" y="253" type="line"/>
      <point x="242" y="280" type="line"/>
      <point x="242" y="620" type="line"/>
      <point x="62" y="529" type="line"/>
    </contour>
  </outline>
</glyph>
<glyph name="onequarter" format="2">
  <advance width="1151"/>
  <unicode hex="00BC"/>
  <outline>
    <contour>
      <point x="1021" y="94" type="line"/>
      <point x="1021" y="127" type="line"/>
      <point x="573" y="127" type="line"/>
      <point x="603" y="100" type="line"/>
      <point x="885" y="328" type="line"/>
      <point x="836" y="342" type="line"/>
      <point x="836" y="34" type="line"/>
      <point x="731" y="5" type="line"/>
      <point x="732" y="0" type="line"/>
      <point x="985" y="0" type="line"/>
      <point x="985" y="5" type="line"/>
      <point x="907" y="34" type="line"/>
      <point x="907" y="329" type="line"/>
      <point x="979" y="355" type="line"/>
      <point x="979" y="360" type="line"/>
      <point x="836" y="360" type="line"/>
      <point x="538" y="119" type="line"/>
      <point x="549" y="94" type="line"/>
    </contour>
    <component base="onesuperior" xOffset="80" identifier="8C875BF5"/>
    <component base="fraction" xOffset="212" identifier="CBA07396"/>
  </outline>
</glyph>
<glyph name="threequarters" format="2">
  <advance width="1261"/>
  <unicode hex="00BE"/>
  <outline>
    <contour>
      <point x="1162" y="94" type="line"/>
      <point x="1162" y="127" type="line"/>
      <point x="714" y="127" type="line"/>
      <point x="744" y="100" type="line"/>
      <point x="1026" y="328" type="line"/>
      <point x="977" y="342" type="line"/>
      <point x="977" y="34" type="line"/>
      <point x="872" y="5" type="line"/>
      <point x="873" y="0" type="line"/>
      <point x="1126" y="0" type="line"/>
      <point x="1126" y="5" type="line"/>
      <point x="1048" y="34" type="line"/>
      <point x="1048" y="329" type="line"/>
      <point x="1120" y="355" type="line"/>
      <point x="1120" y="360" type="line"/>
      <point x="977" y="360" type="line"/>
      <point x="679" y="119" type="line"/>
      <point x="690" y="94" type="line"/>
    </contour>
    <component base="fraction" xOffset="332" identifier="D9358DA9"/>
    <component base="threesuperior" xOffset="80"/>
  </outline>
</glyph>
<glyph name="AE" format="2">
  <advance width="1303"/>
  <unicode hex="00C6"/>
  <anchor x="772" y="600" name="top"/>
  <outline>
    <contour>
      <point x="122" y="56" type="line"/>
      <point x="629" y="577" type="line"/>
      <point x="597" y="590" type="line"/>
      <point x="597" y="55" type="line"/>
      <point x="454" y="5" type="line"/>
      <point x="456" y="0" type="line"/>
      <point x="1225" y="0" type="line"/>
      <point x="1207" y="232" type="line"/>
      <point x="1201" y="230" type="line"/>
      <point x="1141" y="57" type="line"/>
      <point x="693" y="42" type="line"/>
      <point x="693" y="270" type="line"/>
      <point x="986" y="267" type="line"/>
      <point x="1051" y="145" type="line"/>
      <point x="1059" y="147" type="line"/>
      <point x="1040" y="293" type="line"/>
      <point x="1057" y="440" type="line"/>
      <point x="1049" y="442" type="line"/>
      <point x="986" y="320" type="line"/>
      <point x="695" y="314" type="line"/>
      <point x="695" y="559" type="line"/>
      <point x="1156" y="551" type="line"/>
      <point x="1182" y="392" type="line"/>
      <point x="1188" y="390" type="line"/>
      <point x="1243" y="612" type="line"/>
      <point x="374" y="601" type="line"/>
      <point x="378" y="595" type="line"/>
      <point x="570" y="549" type="line"/>
      <point x="587" y="595" type="line"/>
      <point x="38" y="56" type="line"/>
      <point x="-82" y="7" type="line"/>
      <point x="-80" y="0" type="line"/>
      <point x="272" y="0" type="line"/>
      <point x="274" y="7" type="line"/>
    </contour>
    <contour>
      <point x="234" y="217" type="line"/>
      <point x="192" y="172" type="line"/>
      <point x="624" y="172" type="line"/>
      <point x="624" y="217" type="line"/>
    </contour>
  </outline>
</glyph>
<glyph name="Eth" format="2">
  <advance width="1016"/>
  <unicode hex="00D0"/>
  <outline>
    <contour>
      <point x="468" y="320" type="line"/>
      <point x="14" y="320" type="line"/>
      <point x="14" y="280" type="line"/>
      <point x="468" y="280" type="line"/>
    </contour>
    <component base="D"/>
  </outline>
</glyph>
<glyph name="multiply" format="2">
  <advance width="485"/>
  <unicode hex="00D7"/>
  <outline>
    <contour>
      <point x="97" y="468" type="line"/>
      <point x="54" y="427" type="line"/>
      <point x="200" y="280" type="line"/>
      <point x="55" y="135" type="line"/>
      <point x="97" y="95" type="line"/>
      <point x="243" y="237" type="line"/>
      <point x="387" y="91" type="line"/>
      <point x="431" y="134" type="line"/>
      <point x="285" y="279" type="line"/>
      <point x="431" y="426" type="line"/>
      <point x="388" y="468" type="line"/>
      <point x="243" y="320" type="line"/>
    </contour>
  </outline>
</glyph>
<glyph name="Oslash" format="2">
	<advance width="967"/>
	<unicode hex="00D8"/>
	<outline>
		<contour>
			<point x="703" y="669" type="line"/>
			<point x="233" y="-62" type="line"/>
			<point x="278" y="-62" type="line"/>
			<point x="748" y="669" type="line"/>
		</contour>
		<component base="O"/>
	</outline>
</glyph>
<glyph name="Thorn" format="2">
	<advance width="827"/>
	<unicode hex="00DE"/>
	<outline>
		<contour>
			<point x="14" y="8" type="line"/>
			<point x="16" y="0" type="line"/>
			<point x="411" y="0" type="line"/>
			<point x="413" y="8" type="line"/>
			<point x="217" y="50" type="line"/>
			<point x="217" y="133" type="line"/>
			<point x="478" y="134" type="line" smooth="yes"/>
			<point x="686" y="135"/>
			<point x="803" y="190"/>
			<point x="803" y="313" type="curve" smooth="yes"/>
			<point x="803" y="434"/>
			<point x="674" y="480"/>
			<point x="484" y="480" type="curve" smooth="yes"/>
			<point x="217" y="480" type="line"/>
			<point x="217" y="550" type="line"/>
			<point x="418" y="592" type="line"/>
			<point x="416" y="600" type="line"/>
			<point x="21" y="600" type="line"/>
			<point x="19" y="592" type="line"/>
			<point x="123" y="550" type="line"/>
			<point x="123" y="50" type="line"/>
		</contour>
		<contour>
			<point x="217" y="178" type="line"/>
			<point x="217" y="434" type="line"/>
			<point x="436" y="434" type="line" smooth="yes"/>
			<point x="561" y="434"/>
			<point x="700" y="430"/>
			<point x="700" y="296" type="curve" smooth="yes"/>
			<point x="700" y="201"/>
			<point x="569" y="178"/>
			<point x="456" y="178" type="curve" smooth="yes"/>
		</contour>
	</outline>
</glyph>
<glyph name="germandbls" format="2">
  <advance width="824"/>
  <unicode hex="00DF"/>
  <outline>
    <contour>
      <point x="145" y="464" type="curve" smooth="yes"/>
      <point x="145" y="415" type="line"/>
      <point x="35" y="378" type="line"/>
      <point x="37" y="368" type="line"/>
      <point x="145" y="368" type="line"/>
      <point x="146" y="50" type="line"/>
      <point x="6" y="8" type="line"/>
      <point x="8" y="0" type="line"/>
      <point x="232" y="0" type="line"/>
      <point x="232" y="464" type="line" smooth="yes"/>
      <point x="232" y="632"/>
      <point x="254" y="678"/>
      <point x="344" y="678" type="curve" smooth="yes"/>
      <point x="430" y="678"/>
      <point x="510" y="636"/>
      <point x="569" y="544" type="curve"/>
      <point x="586" y="615" type="line"/>
      <point x="316" y="338" type="line"/>
      <point x="336" y="301" type="line"/>
      <point x="426" y="336"/>
      <point x="472" y="348"/>
      <point x="512" y="348" type="curve" smooth="yes"/>
      <point x="628" y="348"/>
      <point x="705" y="278"/>
      <point x="705" y="175" type="curve" smooth="yes"/>
      <point x="705" y="74"/>
      <point x="647" y="27"/>
      <point x="539" y="27" type="curve" smooth="yes"/>
      <point x="484" y="27"/>
      <point x="428" y="42"/>
      <point x="355" y="71" type="curve"/>
      <point x="340" y="173" type="line"/>
      <point x="332" y="175" type="line"/>
      <point x="286" y="41" type="line"/>
      <point x="369" y="1"/>
      <point x="456" y="-21"/>
      <point x="532" y="-19" type="curve" smooth="yes"/>
      <point x="676" y="-16"/>
      <point x="789" y="84"/>
      <point x="789" y="198" type="curve" smooth="yes"/>
      <point x="789" y="307"/>
      <point x="690" y="393"/>
      <point x="545" y="393" type="curve" smooth="yes"/>
      <point x="483" y="393"/>
      <point x="417" y="372"/>
      <point x="346" y="327" type="curve"/>
      <point x="363" y="316" type="line"/>
      <point x="641" y="593" type="line"/>
      <point x="593" y="670"/>
      <point x="476" y="725"/>
      <point x="371" y="725" type="curve" smooth="yes"/>
      <point x="231" y="725"/>
      <point x="145" y="625"/>
    </contour>
  </outline>
</glyph>
<glyph name="ae" format="2">
  <advance width="1108"/>
  <unicode hex="00E6"/>
  <anchor x="557" y="415" name="top"/>
  <outline>
    <contour>
      <point x="128" y="134" type="curve" smooth="yes"/>
      <point x="128" y="188"/>
      <point x="185" y="223"/>
      <point x="270" y="223" type="curve" smooth="yes"/>
      <point x="368" y="223"/>
      <point x="450" y="198"/>
      <point x="493" y="160" type="curve"/>
      <point x="493" y="91" type="line"/>
      <point x="449" y="54"/>
      <point x="373" y="27"/>
      <point x="290" y="27" type="curve" smooth="yes"/>
      <point x="182" y="27"/>
      <point x="128" y="65"/>
    </contour>
    <contour>
      <point x="366" y="435" type="curve" smooth="yes"/>
      <point x="245" y="435"/>
      <point x="143" y="415"/>
      <point x="39" y="373" type="curve"/>
      <point x="90" y="259" type="line"/>
      <point x="98" y="261" type="line"/>
      <point x="109" y="354" type="line"/>
      <point x="158" y="375"/>
      <point x="232" y="386"/>
      <point x="304" y="386" type="curve" smooth="yes"/>
      <point x="447" y="386"/>
      <point x="491" y="340"/>
      <point x="493" y="209" type="curve"/>
      <point x="446" y="240"/>
      <point x="390" y="257"/>
      <point x="304" y="264" type="curve" smooth="yes"/>
      <point x="156" y="276"/>
      <point x="26" y="207"/>
      <point x="26" y="117" type="curve" smooth="yes"/>
      <point x="26" y="42"/>
      <point x="135" y="-20"/>
      <point x="263" y="-20" type="curve" smooth="yes"/>
      <point x="379" y="-20"/>
      <point x="473" y="16"/>
      <point x="585" y="115" type="curve"/>
      <point x="524" y="111" type="line"/>
      <point x="560" y="35"/>
      <point x="649" y="-20"/>
      <point x="782" y="-20" type="curve" smooth="yes"/>
      <point x="894" y="-20"/>
      <point x="978" y="19"/>
      <point x="1079" y="123" type="curve"/>
      <point x="1064" y="138" type="line"/>
      <point x="995" y="69"/>
      <point x="918" y="42"/>
      <point x="827" y="42" type="curve" smooth="yes"/>
      <point x="675" y="42"/>
      <point x="575" y="117"/>
      <point x="576" y="209" type="curve" smooth="yes"/>
      <point x="578" y="327"/>
      <point x="674" y="396"/>
      <point x="765" y="396" type="curve" smooth="yes"/>
      <point x="877" y="396"/>
      <point x="955" y="347"/>
      <point x="993" y="250" type="curve"/>
      <point x="556" y="229" type="line"/>
      <point x="558" y="203" type="line"/>
      <point x="1075" y="192" type="line"/>
      <point x="1073" y="340"/>
      <point x="972" y="435"/>
      <point x="809" y="435" type="curve" smooth="yes"/>
      <point x="683" y="435"/>
      <point x="590" y="384"/>
      <point x="536" y="314" type="curve"/>
      <point x="562" y="304" type="line"/>
      <point x="537" y="401"/>
      <point x="479" y="435"/>
    </contour>
  </outline>
</glyph>
<glyph name="eth" format="2">
	<advance width="727"/>
	<unicode hex="00F0"/>
	<outline>
		<contour>
			<point x="272" y="557" type="line"/>
			<point x="280" y="526" type="line"/>
			<point x="638" y="620" type="line"/>
			<point x="628" y="652" type="line"/>
		</contour>
		<contour>
			<point x="193" y="725" type="curve"/>
			<point x="188" y="699" type="line"/>
			<point x="423" y="643"/>
			<point x="605" y="442"/>
			<point x="605" y="237" type="curve" smooth="yes"/>
			<point x="605" y="101"/>
			<point x="527" y="24"/>
			<point x="390" y="24" type="curve" smooth="yes"/>
			<point x="230" y="24"/>
			<point x="115" y="109"/>
			<point x="115" y="227" type="curve" smooth="yes"/>
			<point x="115" y="334"/>
			<point x="189" y="393"/>
			<point x="326" y="397" type="curve" smooth="yes"/>
			<point x="475" y="401"/>
			<point x="581" y="337"/>
			<point x="618" y="220" type="curve"/>
			<point x="643" y="326" type="line"/>
			<point x="567" y="402"/>
			<point x="479" y="435"/>
			<point x="353" y="435" type="curve" smooth="yes"/>
			<point x="157" y="435"/>
			<point x="26" y="339"/>
			<point x="26" y="196" type="curve" smooth="yes"/>
			<point x="26" y="67"/>
			<point x="162" y="-20"/>
			<point x="361" y="-20" type="curve" smooth="yes"/>
			<point x="556" y="-20"/>
			<point x="691" y="101"/>
			<point x="691" y="276" type="curve" smooth="yes"/>
			<point x="691" y="481"/>
			<point x="481" y="671"/>
		</contour>
	</outline>
</glyph>
<glyph name="divide" format="2">
  <advance width="530"/>
  <unicode hex="00F7"/>
  <outline>
    <contour>
      <point x="215" y="460" type="line"/>
      <point x="215" y="364" type="line"/>
      <point x="315" y="364" type="line"/>
      <point x="315" y="460" type="line"/>
    </contour>
    <contour>
      <point x="215" y="100" type="line"/>
      <point x="315" y="100" type="line"/>
      <point x="315" y="196" type="line"/>
      <point x="215" y="196" type="line"/>
    </contour>
    <contour>
      <point x="54" y="311" type="line"/>
      <point x="54" y="249" type="line"/>
      <point x="476" y="248" type="line"/>
      <point x="476" y="311" type="line"/>
    </contour>
  </outline>
</glyph>
<glyph name="oslash" format="2">
	<advance width="724"/>
	<unicode hex="00F8"/>
	<anchor x="374" y="415" name="top"/>
	<outline>
		<contour>
			<point x="26" y="198" type="curve" smooth="yes"/>
			<point x="26" y="111"/>
			<point x="90" y="39"/>
			<point x="200" y="3" type="curve"/>
			<point x="156" y="-62" type="line"/>
			<point x="206" y="-62" type="line"/>
			<point x="243" y="-7" type="line"/>
			<point x="282" y="-17"/>
			<point x="320" y="-20"/>
			<point x="361" y="-20" type="curve" smooth="yes"/>
			<point x="561" y="-20"/>
			<point x="695" y="83"/>
			<point x="695" y="211" type="curve" smooth="yes"/>
			<point x="695" y="305"/>
			<point x="632" y="379"/>
			<point x="527" y="414" type="curve"/>
			<point x="566" y="472" type="line"/>
			<point x="516" y="472" type="line"/>
			<point x="485" y="426" type="line"/>
			<point x="450" y="432"/>
			<point x="410" y="435"/>
			<point x="380" y="435" type="curve" smooth="yes"/>
			<point x="166" y="435"/>
			<point x="26" y="333"/>
		</contour>
		<contour>
			<point x="115" y="231" type="curve" smooth="yes"/>
			<point x="115" y="323"/>
			<point x="202" y="397"/>
			<point x="337" y="397" type="curve" smooth="yes"/>
			<point x="384" y="397"/>
			<point x="424" y="392"/>
			<point x="456" y="382" type="curve"/>
			<point x="235" y="54" type="line"/>
			<point x="161" y="90"/>
			<point x="115" y="154"/>
		</contour>
		<contour>
			<point x="273" y="37" type="curve"/>
			<point x="494" y="367" type="line"/>
			<point x="572" y="330"/>
			<point x="607" y="265"/>
			<point x="607" y="179" type="curve" smooth="yes"/>
			<point x="607" y="95"/>
			<point x="528" y="17"/>
			<point x="404" y="17" type="curve" smooth="yes"/>
			<point x="350" y="17"/>
			<point x="309" y="25"/>
		</contour>
	</outline>
</glyph>
<glyph name="idotless" format="2">
  <advance width="430"/>
  <unicode hex="0131"/>
  <anchor x="227" y="10" name="ogonek"/>
  <anchor x="226" y="415" name="top"/>
  <outline>
    <contour>
      <point x="269" y="50" type="line"/>
      <point x="269" y="435" type="line"/>
      <point x="31" y="350" type="line"/>
      <point x="33" y="342" type="line"/>
      <point x="182" y="350" type="line"/>
      <point x="182" y="50" type="line"/>
      <point x="32" y="8" type="line"/>
      <point x="34" y="0" type="line"/>
      <point x="417" y="0" type="line"/>
      <point x="419" y="8" type="line"/>
    </contour>
  </outline>
</glyph>
<glyph name="Lslash" format="2">
  <advance width="876"/>
  <unicode hex="0141"/>
  <outline>
    <contour>
      <point x="546" y="376" type="line"/>
      <point x="533" y="413" type="line"/>
      <point x="14" y="224" type="line"/>
      <point x="27" y="187" type="line"/>
    </contour>
    <component base="L" xOffset="2"/>
  </outline>
</glyph>
<glyph name="lslash" format="2">
	<advance width="331"/>
	<unicode hex="0142"/>
	<outline>
		<contour>
			<point x="-21" y="284" type="line"/>
			<point x="-3" y="250" type="line"/>
			<point x="310" y="414" type="line"/>
			<point x="290" y="449" type="line"/>
		</contour>
		<component base="l"/>
	</outline>
</glyph>
<glyph name="OE" format="2">
  <advance width="1359"/>
  <unicode hex="0152"/>
  <anchor x="674" y="0" name="bottom"/>
  <anchor x="674" y="600" name="top"/>
  <outline>
    <contour>
      <point x="125" y="331" type="curve" smooth="yes"/>
      <point x="125" y="471"/>
      <point x="251" y="564"/>
      <point x="442" y="564" type="curve" smooth="yes"/>
      <point x="533" y="564"/>
      <point x="622" y="548"/>
      <point x="687" y="522" type="curve"/>
      <point x="687" y="49" type="line"/>
      <point x="649" y="37"/>
      <point x="594" y="31"/>
      <point x="543" y="31" type="curve" smooth="yes"/>
      <point x="291" y="31"/>
      <point x="125" y="151"/>
    </contour>
    <contour>
      <point x="24" y="293" type="curve" smooth="yes"/>
      <point x="24" y="112"/>
      <point x="206" y="-20"/>
      <point x="477" y="-20" type="curve" smooth="yes"/>
      <point x="538" y="-20"/>
      <point x="615" y="-13"/>
      <point x="668" y="0" type="curve"/>
      <point x="1281" y="0" type="line"/>
      <point x="1262" y="232" type="line"/>
      <point x="1257" y="230" type="line"/>
      <point x="1196" y="54" type="line"/>
      <point x="783" y="42" type="line"/>
      <point x="783" y="270" type="line"/>
      <point x="1036" y="267" type="line"/>
      <point x="1101" y="145" type="line"/>
      <point x="1109" y="147" type="line"/>
      <point x="1090" y="293" type="line"/>
      <point x="1107" y="440" type="line"/>
      <point x="1099" y="442" type="line"/>
      <point x="1036" y="320" type="line"/>
      <point x="784" y="314" type="line"/>
      <point x="784" y="559" type="line"/>
      <point x="1212" y="551" type="line"/>
      <point x="1237" y="392" type="line"/>
      <point x="1244" y="390" type="line"/>
      <point x="1299" y="612" type="line"/>
      <point x="675" y="600" type="line"/>
      <point x="626" y="601"/>
      <point x="561" y="615"/>
      <point x="507" y="615" type="curve" smooth="yes"/>
      <point x="218" y="615"/>
      <point x="24" y="484"/>
    </contour>
  </outline>
</glyph>
<glyph name="oe" format="2">
  <advance width="1173"/>
  <unicode hex="0153"/>
  <outline>
    <contour>
      <point x="341" y="-20" type="curve" smooth="yes"/>
      <point x="484" y="-20"/>
      <point x="581" y="21"/>
      <point x="628" y="103" type="curve"/>
      <point x="601" y="105" type="line"/>
      <point x="643" y="23"/>
      <point x="729" y="-20"/>
      <point x="847" y="-20" type="curve" smooth="yes"/>
      <point x="960" y="-20"/>
      <point x="1043" y="20"/>
      <point x="1144" y="123" type="curve"/>
      <point x="1130" y="138" type="line"/>
      <point x="1059" y="68"/>
      <point x="994" y="42"/>
      <point x="892" y="42" type="curve" smooth="yes"/>
      <point x="732" y="42"/>
      <point x="653" y="100"/>
      <point x="655" y="216" type="curve" smooth="yes"/>
      <point x="656" y="328"/>
      <point x="722" y="396"/>
      <point x="831" y="396" type="curve" smooth="yes"/>
      <point x="934" y="396"/>
      <point x="1023" y="339"/>
      <point x="1058" y="250" type="curve"/>
      <point x="632" y="229" type="line"/>
      <point x="634" y="203" type="line"/>
      <point x="1140" y="192" type="line"/>
      <point x="1138" y="343"/>
      <point x="1037" y="435"/>
      <point x="874" y="435" type="curve" smooth="yes"/>
      <point x="754" y="435"/>
      <point x="654" y="385"/>
      <point x="607" y="303" type="curve"/>
      <point x="635" y="290" type="line"/>
      <point x="592" y="385"/>
      <point x="491" y="435"/>
      <point x="344" y="435" type="curve" smooth="yes"/>
      <point x="149" y="435"/>
      <point x="26" y="343"/>
      <point x="26" y="198" type="curve" smooth="yes"/>
      <point x="26" y="60"/>
      <point x="142" y="-20"/>
    </contour>
    <contour>
      <point x="115" y="231" type="curve" smooth="yes"/>
      <point x="115" y="338"/>
      <point x="186" y="397"/>
      <point x="317" y="397" type="curve" smooth="yes"/>
      <point x="466" y="397"/>
      <point x="567" y="309"/>
      <point x="567" y="179" type="curve" smooth="yes"/>
      <point x="567" y="73"/>
      <point x="499" y="17"/>
      <point x="370" y="17" type="curve" smooth="yes"/>
      <point x="216" y="17"/>
      <point x="115" y="102"/>
    </contour>
  </outline>
</glyph>
<glyph name="Schwa" format="2">
	<advance width="919"/>
	<unicode hex="018F"/>
	<outline>
		<contour>
			<point x="813" y="275" type="line"/>
			<point x="811" y="306" type="line"/>
			<point x="24" y="319" type="line"/>
			<point x="24" y="116"/>
			<point x="187" y="-19"/>
			<point x="423" y="-19" type="curve" smooth="yes"/>
			<point x="688" y="-19"/>
			<point x="890" y="126"/>
			<point x="890" y="316" type="curve" smooth="yes"/>
			<point x="890" y="491"/>
			<point x="713" y="625"/>
			<point x="480" y="625" type="curve" smooth="yes"/>
			<point x="314" y="625"/>
			<point x="156" y="557"/>
			<point x="54" y="442" type="curve"/>
			<point x="75" y="421" type="line"/>
			<point x="156" y="515"/>
			<point x="286" y="573"/>
			<point x="416" y="573" type="curve" smooth="yes"/>
			<point x="622" y="573"/>
			<point x="789" y="444"/>
			<point x="787" y="288" type="curve" smooth="yes"/>
			<point x="785" y="138"/>
			<point x="649" y="33"/>
			<point x="474" y="33" type="curve" smooth="yes"/>
			<point x="303" y="33"/>
			<point x="149" y="141"/>
			<point x="141" y="259" type="curve"/>
		</contour>
	</outline>
</glyph>
<glyph name="florin" format="2">
	<advance width="614"/>
	<unicode hex="0192"/>
	<outline>
		<contour>
			<point x="258" y="6" type="curve" smooth="yes"/>
			<point x="272" y="375" type="line"/>
			<point x="451" y="375" type="line"/>
			<point x="468" y="273" type="line"/>
			<point x="476" y="271" type="line"/>
			<point x="530" y="416" type="line"/>
			<point x="274" y="416" type="line"/>
			<point x="276" y="464" type="line" smooth="yes"/>
			<point x="283" y="635"/>
			<point x="314" y="679"/>
			<point x="428" y="679" type="curve" smooth="yes"/>
			<point x="492" y="679"/>
			<point x="550" y="668"/>
			<point x="600" y="646" type="curve"/>
			<point x="616" y="495" type="line"/>
			<point x="624" y="493" type="line"/>
			<point x="682" y="668" type="line"/>
			<point x="609" y="701"/>
			<point x="496" y="726"/>
			<point x="423" y="726" type="curve" smooth="yes"/>
			<point x="282" y="726"/>
			<point x="197" y="631"/>
			<point x="190" y="464" type="curve" smooth="yes"/>
			<point x="188" y="415" type="line"/>
			<point x="13" y="377" type="line"/>
			<point x="15" y="367" type="line"/>
			<point x="185" y="367" type="line"/>
			<point x="170" y="6" type="line" smooth="yes"/>
			<point x="163" y="-171"/>
			<point x="144" y="-204"/>
			<point x="48" y="-204" type="curve" smooth="yes"/>
			<point x="-40" y="-204"/>
			<point x="-106" y="-195"/>
			<point x="-187" y="-152" type="curve"/>
			<point x="-196" y="-168" type="line"/>
			<point x="-104" y="-236"/>
			<point x="2" y="-256"/>
			<point x="48" y="-256" type="curve" smooth="yes"/>
			<point x="177" y="-256"/>
			<point x="252" y="-159"/>
		</contour>
	</outline>
</glyph>
<glyph name="jdotless" format="2">
  <advance width="338"/>
  <unicode hex="0237"/>
  <anchor x="195" y="415" name="top"/>
  <outline>
    <contour>
      <point x="5" y="350" type="line"/>
      <point x="7" y="342" type="line"/>
      <point x="156" y="350" type="line"/>
      <point x="156" y="9" type="line" smooth="yes"/>
      <point x="156" y="-141"/>
      <point x="134" y="-187"/>
      <point x="15" y="-239" type="curve"/>
      <point x="23" y="-251" type="line"/>
      <point x="170" y="-212"/>
      <point x="242" y="-131"/>
      <point x="242" y="9" type="curve" smooth="yes"/>
      <point x="242" y="435" type="line"/>
    </contour>
  </outline>
</glyph>
<glyph name="gravecomb" format="2">
  <advance width="362"/>
  <unicode hex="0300"/>
  <anchor x="216" y="410" name="_top"/>
  <outline>
    <contour>
      <point x="44" y="594" type="line"/>
      <point x="309" y="519" type="line"/>
      <point x="319" y="540" type="line"/>
      <point x="80" y="675" type="line"/>
    </contour>
  </outline>
</glyph>
<glyph name="circumflexcomb" format="2">
  <advance width="457"/>
  <unicode hex="0302"/>
  <anchor x="229" y="410" name="_top"/>
  <outline>
    <contour>
      <point x="229" y="647" type="line"/>
      <point x="40" y="548" type="line"/>
      <point x="53" y="527" type="line"/>
      <point x="229" y="572" type="line"/>
      <point x="404" y="527" type="line"/>
      <point x="417" y="548" type="line"/>
    </contour>
  </outline>
</glyph>
<glyph name="tildecomb" format="2">
  <advance width="489"/>
  <unicode hex="0303"/>
  <anchor x="235" y="410" name="_top"/>
  <outline>
    <contour>
      <point x="421" y="633" type="curve"/>
      <point x="408" y="638" type="line"/>
      <point x="392" y="611"/>
      <point x="353" y="601"/>
      <point x="322" y="601" type="curve" smooth="yes"/>
      <point x="262" y="601"/>
      <point x="243" y="646"/>
      <point x="179" y="646" type="curve" smooth="yes"/>
      <point x="114" y="646"/>
      <point x="59" y="610"/>
      <point x="48" y="545" type="curve"/>
      <point x="63" y="539" type="line"/>
      <point x="84" y="571"/>
      <point x="119" y="577"/>
      <point x="149" y="577" type="curve" smooth="yes"/>
      <point x="207" y="577"/>
      <point x="232" y="531"/>
      <point x="294" y="531" type="curve" smooth="yes"/>
      <point x="367" y="531"/>
      <point x="415" y="582"/>
    </contour>
  </outline>
</glyph>
<glyph name="macroncomb" format="2">
  <advance width="438"/>
  <unicode hex="0304"/>
  <anchor x="220" y="410" name="_top"/>
  <outline>
    <contour>
      <point x="51" y="613" type="line"/>
      <point x="51" y="559" type="line"/>
      <point x="387" y="559" type="line"/>
      <point x="387" y="613" type="line"/>
    </contour>
  </outline>
</glyph>
<glyph name="brevecomb" format="2">
  <advance width="394"/>
  <unicode hex="0306"/>
  <anchor x="199" y="410" name="_top"/>
  <outline>
    <contour>
      <point x="369" y="656" type="curve"/>
      <point x="330" y="656" type="line"/>
      <point x="322" y="605"/>
      <point x="262" y="587"/>
      <point x="199" y="587" type="curve" smooth="yes"/>
      <point x="127" y="587"/>
      <point x="74" y="608"/>
      <point x="66" y="656" type="curve"/>
      <point x="26" y="656" type="line"/>
      <point x="27" y="577"/>
      <point x="99" y="528"/>
      <point x="199" y="528" type="curve" smooth="yes"/>
      <point x="294" y="528"/>
      <point x="368" y="573"/>
    </contour>
  </outline>
</glyph>
<glyph name="dotaccentcomb" format="2">
  <advance width="210"/>
  <unicode hex="0307"/>
  <anchor x="105" y="410" name="_top"/>
  <outline>
    <contour>
      <point x="54" y="634" type="line"/>
      <point x="54" y="540" type="line"/>
      <point x="156" y="540" type="line"/>
      <point x="156" y="634" type="line"/>
    </contour>
  </outline>
</glyph>
<glyph name="dieresiscomb" format="2">
	<advance width="412"/>
	<unicode hex="0308"/>
	<anchor x="205" y="410" name="_top"/>
	<outline>
		<contour>
			<point x="43" y="637" type="line"/>
			<point x="43" y="543" type="line"/>
			<point x="145" y="543" type="line"/>
			<point x="145" y="637" type="line"/>
		</contour>
		<contour>
			<point x="267" y="637" type="line"/>
			<point x="267" y="543" type="line"/>
			<point x="369" y="543" type="line"/>
			<point x="369" y="637" type="line"/>
		</contour>
	</outline>
</glyph>
<glyph name="ringcomb" format="2">
	<advance width="348"/>
	<unicode hex="030A"/>
	<anchor x="175" y="410" name="_top"/>
	<outline>
		<contour>
			<point x="171" y="503" type="curve" smooth="yes"/>
			<point x="260" y="503"/>
			<point x="314" y="543"/>
			<point x="314" y="607" type="curve" smooth="yes"/>
			<point x="314" y="664"/>
			<point x="262" y="700"/>
			<point x="179" y="700" type="curve" smooth="yes"/>
			<point x="90" y="700"/>
			<point x="34" y="661"/>
			<point x="34" y="598" type="curve" smooth="yes"/>
			<point x="34" y="539"/>
			<point x="86" y="503"/>
		</contour>
		<contour>
			<point x="179" y="548" type="curve" smooth="yes"/>
			<point x="130" y="548"/>
			<point x="101" y="570"/>
			<point x="101" y="606" type="curve" smooth="yes"/>
			<point x="101" y="637"/>
			<point x="127" y="656"/>
			<point x="171" y="656" type="curve" smooth="yes"/>
			<point x="218" y="656"/>
			<point x="249" y="633"/>
			<point x="249" y="600" type="curve" smooth="yes"/>
			<point x="249" y="567"/>
			<point x="221" y="548"/>
		</contour>
	</outline>
</glyph>
<glyph name="hungarumlautcomb" format="2">
  <advance width="492"/>
  <unicode hex="030B"/>
  <anchor x="225" y="410" name="_top"/>
  <outline>
    <contour>
      <point x="463" y="577" type="line"/>
      <point x="427" y="649" type="line"/>
      <point x="200" y="532" type="line"/>
      <point x="213" y="511" type="line"/>
    </contour>
    <contour>
      <point x="285" y="620" type="line"/>
      <point x="236" y="685" type="line"/>
      <point x="36" y="533" type="line"/>
      <point x="52" y="516" type="line"/>
    </contour>
  </outline>
</glyph>
<glyph name="cedillacomb" format="2">
  <advance width="425"/>
  <unicode hex="0327"/>
  <anchor x="235" y="0" name="_bottom"/>
  <outline>
    <contour>
      <point x="191" y="0" type="line"/>
      <point x="149" y="-86" type="line"/>
      <point x="174" y="-101" type="line"/>
      <point x="179" y="-99"/>
      <point x="197" y="-97"/>
      <point x="205" y="-97" type="curve" smooth="yes"/>
      <point x="228" y="-97"/>
      <point x="243" y="-108"/>
      <point x="243" y="-141" type="curve" smooth="yes"/>
      <point x="243" y="-160"/>
      <point x="218" y="-180"/>
      <point x="172" y="-180" type="curve" smooth="yes"/>
      <point x="127" y="-180"/>
      <point x="114" y="-175"/>
      <point x="100" y="-160" type="curve"/>
      <point x="90" y="-169" type="line"/>
      <point x="112" y="-197"/>
      <point x="166" y="-221"/>
      <point x="221" y="-221" type="curve" smooth="yes"/>
      <point x="281" y="-221"/>
      <point x="329" y="-184"/>
      <point x="329" y="-139" type="curve" smooth="yes"/>
      <point x="329" y="-92"/>
      <point x="290" y="-66"/>
      <point x="233" y="-66" type="curve" smooth="yes"/>
      <point x="214" y="-66"/>
      <point x="202" y="-69"/>
      <point x="192" y="-72" type="curve"/>
      <point x="194" y="-85" type="line"/>
      <point x="237" y="0" type="line"/>
    </contour>
  </outline>
</glyph>
<glyph name="ogonekcomb" format="2">
	<advance width="310"/>
	<unicode hex="0328"/>
	<anchor x="178" y="0" name="_ogonek"/>
	<outline>
		<contour>
			<point x="338" y="-70" type="curve"/>
			<point x="321" y="-60" type="line"/>
			<point x="264" y="-122"/>
			<point x="218" y="-130"/>
			<point x="189" y="-130" type="curve" smooth="yes"/>
			<point x="123" y="-130"/>
			<point x="132" y="-52"/>
			<point x="219" y="7" type="curve"/>
			<point x="177" y="7" type="line"/>
			<point x="107" y="-34"/>
			<point x="64" y="-90"/>
			<point x="64" y="-132" type="curve" smooth="yes"/>
			<point x="64" y="-181"/>
			<point x="104" y="-220"/>
			<point x="156" y="-220" type="curve" smooth="yes"/>
			<point x="202" y="-220"/>
			<point x="252" y="-192"/>
		</contour>
	</outline>
</glyph>
<glyph name="mu" format="2">
  <advance width="804"/>
  <unicode hex="03BC"/>
  <outline>
    <contour>
      <point x="96" y="250" type="line"/>
      <point x="96" y="-255" type="line"/>
      <point x="183" y="-255" type="line"/>
      <point x="183" y="250" type="line"/>
    </contour>
    <contour>
      <point x="-45" y="350" type="line"/>
      <point x="-43" y="342" type="line"/>
      <point x="96" y="350" type="line"/>
      <point x="96" y="201" type="line" smooth="yes"/>
      <point x="96" y="60"/>
      <point x="171" y="-20"/>
      <point x="316" y="-20" type="curve" smooth="yes"/>
      <point x="407" y="-20"/>
      <point x="512" y="4"/>
      <point x="608" y="60" type="curve"/>
      <point x="608" y="-12" type="line"/>
      <point x="831" y="43" type="line"/>
      <point x="829" y="51" type="line"/>
      <point x="691" y="60" type="line"/>
      <point x="692" y="435" type="line"/>
      <point x="464" y="350" type="line"/>
      <point x="466" y="342" type="line"/>
      <point x="604" y="350" type="line"/>
      <point x="604" y="97" type="line"/>
      <point x="522" y="52"/>
      <point x="446" y="36"/>
      <point x="381" y="36" type="curve" smooth="yes"/>
      <point x="252" y="36"/>
      <point x="183" y="92"/>
      <point x="183" y="201" type="curve" smooth="yes"/>
      <point x="183" y="435" type="line"/>
    </contour>
  </outline>
</glyph>
<glyph name="Germandbls" format="2">
  <advance width="981"/>
  <unicode hex="1E9E"/>
  <outline>
    <contour>
      <point x="866" y="574" type="line"/>
      <point x="847" y="611" type="line"/>
      <point x="16" y="600" type="line"/>
      <point x="14" y="592" type="line"/>
      <point x="164" y="550" type="line"/>
      <point x="164" y="50" type="line"/>
      <point x="14" y="8" type="line"/>
      <point x="16" y="0" type="line"/>
      <point x="260" y="0" type="line"/>
      <point x="261" y="561" type="line"/>
      <point x="799" y="550" type="line"/>
      <point x="763" y="597" type="line"/>
      <point x="460" y="325" type="line"/>
      <point x="484" y="286" type="line"/>
      <point x="788" y="328"/>
      <point x="858" y="256"/>
      <point x="856" y="159" type="curve" smooth="yes"/>
      <point x="855" y="98"/>
      <point x="768" y="30"/>
      <point x="659" y="30" type="curve" smooth="yes"/>
      <point x="550" y="30"/>
      <point x="472" y="58"/>
      <point x="404" y="107" type="curve"/>
      <point x="382" y="267" type="line"/>
      <point x="374" y="269" type="line"/>
      <point x="313" y="65" type="line"/>
      <point x="399" y="12"/>
      <point x="499" y="-20"/>
      <point x="603" y="-20" type="curve" smooth="yes"/>
      <point x="823" y="-20"/>
      <point x="943" y="85"/>
      <point x="943" y="195" type="curve" smooth="yes"/>
      <point x="943" y="300"/>
      <point x="851" y="406"/>
      <point x="527" y="339" type="curve"/>
      <point x="556" y="314" type="line"/>
    </contour>
  </outline>
</glyph>
<glyph name="endash" format="2">
	<advance width="642"/>
	<unicode hex="2013"/>
	<outline>
		<contour>
			<point x="34" y="269" type="line"/>
			<point x="34" y="211" type="line"/>
			<point x="608" y="211" type="line"/>
			<point x="608" y="269" type="line"/>
		</contour>
	</outline>
</glyph>
<glyph name="emdash" format="2">
	<advance width="987"/>
	<unicode hex="2014"/>
	<outline>
		<contour>
			<point x="34" y="268" type="line"/>
			<point x="34" y="210" type="line"/>
			<point x="953" y="210" type="line"/>
			<point x="953" y="268" type="line"/>
		</contour>
	</outline>
</glyph>
<glyph name="dagger" format="2">
	<advance width="522"/>
	<unicode hex="2020"/>
	<outline>
		<contour>
			<point x="348" y="390" type="line"/>
			<point x="272" y="-256" type="line"/>
			<point x="252" y="-256" type="line"/>
			<point x="174" y="390" type="line"/>
			<point x="233" y="530" type="line"/>
			<point x="220" y="656" type="line"/>
			<point x="106" y="698" type="line"/>
			<point x="108" y="706" type="line"/>
			<point x="416" y="706" type="line"/>
			<point x="418" y="698" type="line"/>
			<point x="302" y="656" type="line"/>
			<point x="289" y="530" type="line"/>
		</contour>
		<contour>
			<point x="54" y="564" type="line"/>
			<point x="262" y="547" type="line"/>
			<point x="468" y="564" type="line"/>
			<point x="468" y="507" type="line"/>
			<point x="262" y="525" type="line"/>
			<point x="54" y="508" type="line"/>
		</contour>
	</outline>
</glyph>
<glyph name="daggerdbl" format="2">
  <advance width="522"/>
  <unicode hex="2021"/>
  <outline>
    <contour>
      <point x="348" y="54" type="line"/>
      <point x="289" y="-80" type="line"/>
      <point x="302" y="-206" type="line"/>
      <point x="418" y="-248" type="line"/>
      <point x="416" y="-256" type="line"/>
      <point x="108" y="-256" type="line"/>
      <point x="106" y="-248" type="line"/>
      <point x="220" y="-206" type="line"/>
      <point x="233" y="-80" type="line"/>
      <point x="174" y="54" type="line"/>
      <point x="242" y="225" type="line"/>
      <point x="174" y="396" type="line"/>
      <point x="233" y="530" type="line"/>
      <point x="220" y="656" type="line"/>
      <point x="106" y="698" type="line"/>
      <point x="108" y="706" type="line"/>
      <point x="416" y="706" type="line"/>
      <point x="418" y="698" type="line"/>
      <point x="302" y="656" type="line"/>
      <point x="289" y="530" type="line"/>
      <point x="348" y="396" type="line"/>
      <point x="280" y="225" type="line"/>
    </contour>
    <contour>
      <point x="54" y="-114" type="line"/>
      <point x="54" y="-58" type="line"/>
      <point x="262" y="-75" type="line"/>
      <point x="468" y="-57" type="line"/>
      <point x="468" y="-114" type="line"/>
      <point x="262" y="-97" type="line"/>
    </contour>
    <contour>
      <point x="54" y="564" type="line"/>
      <point x="262" y="547" type="line"/>
      <point x="468" y="564" type="line"/>
      <point x="468" y="507" type="line"/>
      <point x="262" y="525" type="line"/>
      <point x="54" y="508" type="line"/>
    </contour>
  </outline>
</glyph>
<glyph name="bullet" format="2">
	<advance width="421"/>
	<unicode hex="2022"/>
	<outline>
		<contour>
			<point x="201" y="75" type="curve" smooth="yes"/>
			<point x="273" y="75"/>
			<point x="333" y="136"/>
			<point x="333" y="209" type="curve" smooth="yes"/>
			<point x="333" y="282"/>
			<point x="273" y="342"/>
			<point x="201" y="342" type="curve" smooth="yes"/>
			<point x="128" y="342"/>
			<point x="68" y="282"/>
			<point x="68" y="209" type="curve" smooth="yes"/>
			<point x="68" y="137"/>
			<point x="127" y="75"/>
		</contour>
	</outline>
</glyph>
<glyph name="guilsinglleft" format="2">
  <advance width="281"/>
  <unicode hex="2039"/>
  <outline>
    <contour>
      <point x="241" y="406" type="line"/>
      <point x="4" y="208" type="line"/>
      <point x="241" y="10" type="line"/>
      <point x="253" y="22" type="line"/>
      <point x="113" y="208" type="line"/>
      <point x="253" y="394" type="line"/>
    </contour>
  </outline>
</glyph>
<glyph name="fraction" format="2">
	<advance width="701"/>
	<unicode hex="2044"/>
	<outline>
		<contour>
			<point x="84" y="-3" type="line"/>
			<point x="651" y="588" type="line"/>
			<point x="616" y="620" type="line"/>
			<point x="49" y="29" type="line"/>
		</contour>
	</outline>
</glyph>
<glyph name="zerosuperior" format="2">
	<advance width="589"/>
	<unicode hex="2070"/>
	<outline>
		<contour>
			<point x="285" y="238" type="curve" smooth="yes"/>
			<point x="423" y="238"/>
			<point x="527" y="328"/>
			<point x="527" y="445" type="curve" smooth="yes"/>
			<point x="527" y="552"/>
			<point x="439" y="625"/>
			<point x="308" y="625" type="curve" smooth="yes"/>
			<point x="171" y="625"/>
			<point x="62" y="536"/>
			<point x="62" y="422" type="curve" smooth="yes"/>
			<point x="62" y="316"/>
			<point x="154" y="238"/>
		</contour>
		<contour>
			<point x="305" y="270" type="curve" smooth="yes"/>
			<point x="205" y="270"/>
			<point x="133" y="343"/>
			<point x="133" y="444" type="curve" smooth="yes"/>
			<point x="133" y="540"/>
			<point x="182" y="593"/>
			<point x="289" y="593" type="curve" smooth="yes"/>
			<point x="387" y="593"/>
			<point x="456" y="525"/>
			<point x="456" y="424" type="curve" smooth="yes"/>
			<point x="456" y="325"/>
			<point x="412" y="270"/>
		</contour>
	</outline>
</glyph>
<glyph name="euro" format="2">
	<advance width="881"/>
	<unicode hex="20AC"/>
	<outline>
		<contour>
			<point x="24" y="285" type="line"/>
			<point x="24" y="239" type="line"/>
			<point x="556" y="239" type="line"/>
			<point x="569" y="285" type="line"/>
		</contour>
		<contour>
			<point x="24" y="368" type="line"/>
			<point x="24" y="322" type="line"/>
			<point x="584" y="322" type="line"/>
			<point x="597" y="368" type="line"/>
		</contour>
		<contour>
			<point x="503" y="573" type="curve" smooth="yes"/>
			<point x="584" y="573"/>
			<point x="678" y="553"/>
			<point x="755" y="519" type="curve"/>
			<point x="775" y="358" type="line"/>
			<point x="783" y="356" type="line"/>
			<point x="841" y="576" type="line"/>
			<point x="761" y="605"/>
			<point x="640" y="625"/>
			<point x="545" y="625" type="curve" smooth="yes"/>
			<point x="299" y="625"/>
			<point x="123" y="488"/>
			<point x="123" y="296" type="curve" smooth="yes"/>
			<point x="123" y="112"/>
			<point x="287" y="-20"/>
			<point x="515" y="-20" type="curve" smooth="yes"/>
			<point x="639" y="-20"/>
			<point x="739" y="19"/>
			<point x="818" y="98" type="curve"/>
			<point x="805" y="112" type="line"/>
			<point x="750" y="59"/>
			<point x="670" y="32"/>
			<point x="567" y="32" type="curve" smooth="yes"/>
			<point x="355" y="32"/>
			<point x="226" y="140"/>
			<point x="226" y="318" type="curve" smooth="yes"/>
			<point x="226" y="478"/>
			<point x="329" y="573"/>
		</contour>
	</outline>
</glyph>
<glyph name="trademark" format="2">
	<advance width="853"/>
	<unicode hex="2122"/>
	<outline>
		<contour>
			<point x="50" y="614" type="line"/>
			<point x="84" y="526" type="line"/>
			<point x="88" y="528" type="line"/>
			<point x="95" y="583" type="line"/>
			<point x="177" y="585" type="line"/>
			<point x="177" y="426" type="line"/>
			<point x="131" y="404" type="line"/>
			<point x="133" y="400" type="line"/>
			<point x="270" y="400" type="line"/>
			<point x="272" y="404" type="line"/>
			<point x="226" y="426" type="line"/>
			<point x="226" y="585" type="line"/>
			<point x="308" y="584" type="line"/>
			<point x="317" y="529" type="line"/>
			<point x="321" y="527" type="line"/>
			<point x="352" y="614" type="line"/>
			<point x="200" y="610" type="line"/>
		</contour>
		<contour>
			<point x="311" y="404" type="line"/>
			<point x="312" y="400" type="line"/>
			<point x="456" y="400" type="line"/>
			<point x="458" y="404" type="line"/>
			<point x="402" y="427" type="line"/>
			<point x="438" y="590" type="line"/>
			<point x="414" y="588" type="line"/>
			<point x="524" y="400" type="line"/>
			<point x="559" y="400" type="line"/>
			<point x="659" y="603" type="line"/>
			<point x="632" y="610" type="line"/>
			<point x="677" y="427" type="line"/>
			<point x="623" y="404" type="line"/>
			<point x="625" y="400" type="line"/>
			<point x="785" y="400" type="line"/>
			<point x="787" y="404" type="line"/>
			<point x="733" y="427" type="line"/>
			<point x="681" y="583" type="line"/>
			<point x="724" y="606" type="line"/>
			<point x="722" y="610" type="line"/>
			<point x="626" y="610" type="line"/>
			<point x="528" y="412" type="line"/>
			<point x="571" y="419" type="line"/>
			<point x="461" y="610" type="line"/>
			<point x="353" y="610" type="line"/>
			<point x="351" y="606" type="line"/>
			<point x="406" y="582" type="line"/>
			<point x="364" y="427" type="line"/>
		</contour>
	</outline>
</glyph>
<glyph name="minus" format="2">
  <advance width="530"/>
  <unicode hex="2212"/>
  <outline>
    <contour>
      <point x="54" y="311" type="line"/>
      <point x="54" y="249" type="line"/>
      <point x="476" y="248" type="line"/>
      <point x="476" y="311" type="line"/>
    </contour>
  </outline>
</glyph>
<glyph name="notequal" format="2">
	<advance width="532"/>
	<unicode hex="2260"/>
	<outline>
		<contour>
			<point x="116" y="94" type="line"/>
			<point x="178" y="94" type="line"/>
			<point x="370" y="466" type="line"/>
			<point x="308" y="466" type="line"/>
		</contour>
		<component base="equal"/>
	</outline>
</glyph>
<glyph name="lessequal" format="2">
	<advance width="530"/>
	<unicode hex="2264"/>
	<outline>
		<contour>
			<point x="469" y="102" type="line"/>
			<point x="469" y="177" type="line"/>
			<point x="79" y="319" type="line"/>
			<point x="79" y="269" type="line"/>
			<point x="469" y="413" type="line"/>
			<point x="469" y="488" type="line"/>
			<point x="57" y="333" type="line"/>
			<point x="57" y="255" type="line"/>
		</contour>
		<contour>
			<point x="54" y="73" type="line"/>
			<point x="54" y="11" type="line"/>
			<point x="476" y="10" type="line"/>
			<point x="476" y="73" type="line"/>
		</contour>
	</outline>
</glyph>
<glyph name="greaterequal" format="2">
  <advance width="530"/>
  <unicode hex="2265"/>
  <outline>
    <contour>
      <point x="58" y="102" type="line"/>
      <point x="470" y="256" type="line"/>
      <point x="470" y="333" type="line"/>
      <point x="58" y="488" type="line"/>
      <point x="58" y="413" type="line"/>
      <point x="448" y="269" type="line"/>
      <point x="448" y="320" type="line"/>
      <point x="58" y="177" type="line"/>
    </contour>
    <contour>
      <point x="54" y="73" type="line"/>
      <point x="54" y="11" type="line"/>
      <point x="476" y="10" type="line"/>
      <point x="476" y="73" type="line"/>
    </contour>
  </outline>
</glyph>
<glyph name="T_b.liga" format="2">
	<advance width="1565"/>
	<outline>
		<contour>
			<point x="912" y="551" type="line"/>
			<point x="912" y="59" type="line"/>
			<point x="972" y="10"/>
			<point x="1080" y="-20"/>
			<point x="1182" y="-20" type="curve" smooth="yes"/>
			<point x="1384" y="-20"/>
			<point x="1536" y="92"/>
			<point x="1536" y="230" type="curve" smooth="yes"/>
			<point x="1536" y="342"/>
			<point x="1427" y="436"/>
			<point x="1276" y="436" type="curve" smooth="yes"/>
			<point x="1182" y="436"/>
			<point x="1082" y="399"/>
			<point x="1001" y="336" type="curve"/>
			<point x="1001" y="700" type="line"/>
			<point x="746" y="606" type="line"/>
			<point x="473" y="600" type="line"/>
			<point x="19" y="610" type="line"/>
			<point x="65" y="390" type="line"/>
			<point x="73" y="392" type="line"/>
			<point x="107" y="550" type="line"/>
			<point x="425" y="558" type="line"/>
			<point x="426" y="50" type="line"/>
			<point x="276" y="8" type="line"/>
			<point x="278" y="0" type="line"/>
			<point x="671" y="0" type="line"/>
			<point x="673" y="8" type="line"/>
			<point x="523" y="50" type="line"/>
			<point x="522" y="558" type="line"/>
		</contour>
		<contour>
			<point x="1001" y="75" type="curve"/>
			<point x="1001" y="285" type="line"/>
			<point x="1078" y="359"/>
			<point x="1150" y="385"/>
			<point x="1235" y="385" type="curve" smooth="yes"/>
			<point x="1376" y="385"/>
			<point x="1447" y="307"/>
			<point x="1447" y="198" type="curve" smooth="yes"/>
			<point x="1447" y="96"/>
			<point x="1353" y="24"/>
			<point x="1218" y="24" type="curve" smooth="yes"/>
			<point x="1148" y="24"/>
			<point x="1053" y="39"/>
		</contour>
	</outline>
</glyph>
<glyph name="T_h.liga" format="2">
  <advance width="1695"/>
  <anchor x="489" y="0" name="bottom"/>
  <anchor x="473" y="300" name="center"/>
  <anchor x="473" y="600" name="top"/>
  <outline>
    <contour>
      <point x="19" y="610" type="line"/>
      <point x="65" y="390" type="line"/>
      <point x="73" y="392" type="line"/>
      <point x="107" y="550" type="line"/>
      <point x="425" y="558" type="line"/>
      <point x="426" y="50" type="line"/>
      <point x="276" y="8" type="line"/>
      <point x="278" y="0" type="line"/>
      <point x="671" y="0" type="line"/>
      <point x="673" y="8" type="line"/>
      <point x="523" y="50" type="line"/>
      <point x="522" y="558" type="line"/>
      <point x="962" y="551" type="line"/>
      <point x="962" y="50" type="line"/>
      <point x="822" y="9" type="line"/>
      <point x="824" y="0" type="line"/>
      <point x="1199" y="0" type="line"/>
      <point x="1201" y="9" type="line"/>
      <point x="1051" y="50" type="line"/>
      <point x="1051" y="700" type="line"/>
      <point x="796" y="606" type="line"/>
      <point x="473" y="600" type="line"/>
    </contour>
    <contour>
      <point x="1017" y="323" type="curve"/>
      <point x="1017" y="284" type="line"/>
      <point x="1110" y="345"/>
      <point x="1210" y="379"/>
      <point x="1279" y="379" type="curve" smooth="yes"/>
      <point x="1402" y="379"/>
      <point x="1468" y="321"/>
      <point x="1469" y="212" type="curve" smooth="yes"/>
      <point x="1470" y="50" type="line"/>
      <point x="1320" y="8" type="line"/>
      <point x="1322" y="0" type="line"/>
      <point x="1687" y="1" type="line"/>
      <point x="1689" y="9" type="line"/>
      <point x="1558" y="49" type="line"/>
      <point x="1558" y="208" type="line" smooth="yes"/>
      <point x="1558" y="355"/>
      <point x="1473" y="436"/>
      <point x="1328" y="436" type="curve" smooth="yes"/>
      <point x="1231" y="436"/>
      <point x="1125" y="397"/>
    </contour>
  </outline>
</glyph>
<glyph name="T_k.liga" format="2">
  <advance width="1700"/>
  <anchor x="489" y="0" name="bottom"/>
  <anchor x="473" y="300" name="center"/>
  <anchor x="473" y="600" name="top"/>
  <outline>
    <contour>
      <point x="1030" y="118" type="line"/>
      <point x="1488" y="366" type="line"/>
      <point x="1615" y="408" type="line"/>
      <point x="1613" y="416" type="line"/>
      <point x="1217" y="416" type="line"/>
      <point x="1215" y="408" type="line"/>
      <point x="1376" y="366" type="line"/>
      <point x="1003" y="146" type="line"/>
    </contour>
    <contour>
      <point x="1279" y="256" type="line"/>
      <point x="1199" y="219" type="line"/>
      <point x="1460" y="50" type="line"/>
      <point x="1300" y="8" type="line"/>
      <point x="1302" y="0" type="line"/>
      <point x="1703" y="0" type="line"/>
      <point x="1705" y="8" type="line"/>
      <point x="1583" y="50" type="line"/>
    </contour>
    <contour>
      <point x="19" y="610" type="line"/>
      <point x="65" y="390" type="line"/>
      <point x="73" y="392" type="line"/>
      <point x="107" y="550" type="line"/>
      <point x="425" y="558" type="line"/>
      <point x="426" y="50" type="line"/>
      <point x="276" y="8" type="line"/>
      <point x="278" y="0" type="line"/>
      <point x="671" y="0" type="line"/>
      <point x="673" y="8" type="line"/>
      <point x="523" y="50" type="line"/>
      <point x="522" y="558" type="line"/>
      <point x="962" y="551" type="line"/>
      <point x="962" y="50" type="line"/>
      <point x="822" y="9" type="line"/>
      <point x="824" y="0" type="line"/>
      <point x="1199" y="0" type="line"/>
      <point x="1201" y="9" type="line"/>
      <point x="1051" y="50" type="line"/>
      <point x="1051" y="700" type="line"/>
      <point x="796" y="606" type="line"/>
      <point x="473" y="600" type="line"/>
    </contour>
  </outline>
</glyph>
<glyph name="T_l.liga" format="2">
	<advance width="1196"/>
	<outline>
		<contour>
			<point x="19" y="610" type="line"/>
			<point x="65" y="390" type="line"/>
			<point x="73" y="392" type="line"/>
			<point x="107" y="550" type="line"/>
			<point x="425" y="558" type="line"/>
			<point x="426" y="50" type="line"/>
			<point x="276" y="8" type="line"/>
			<point x="278" y="0" type="line"/>
			<point x="671" y="0" type="line"/>
			<point x="673" y="8" type="line"/>
			<point x="523" y="50" type="line"/>
			<point x="522" y="558" type="line"/>
			<point x="962" y="551" type="line"/>
			<point x="962" y="50" type="line"/>
			<point x="822" y="9" type="line"/>
			<point x="824" y="0" type="line"/>
			<point x="1199" y="0" type="line"/>
			<point x="1201" y="9" type="line"/>
			<point x="1051" y="50" type="line"/>
			<point x="1051" y="700" type="line"/>
			<point x="796" y="606" type="line"/>
			<point x="473" y="600" type="line"/>
		</contour>
	</outline>
</glyph>
<glyph name=".notdef" format="2">
  <advance width="622"/>
  <outline>
    <contour>
      <point x="281" y="482" type="curve" smooth="yes"/>
      <point x="306" y="482"/>
      <point x="328" y="504"/>
      <point x="328" y="530" type="curve" smooth="yes"/>
      <point x="328" y="554"/>
      <point x="306" y="576"/>
      <point x="281" y="576" type="curve" smooth="yes"/>
      <point x="256" y="576"/>
      <point x="234" y="554"/>
      <point x="234" y="530" type="curve" smooth="yes"/>
      <point x="234" y="504"/>
      <point x="256" y="482"/>
    </contour>
    <contour>
      <point x="281" y="504" type="curve" smooth="yes"/>
      <point x="267" y="504"/>
      <point x="256" y="516"/>
      <point x="256" y="530" type="curve" smooth="yes"/>
      <point x="256" y="543"/>
      <point x="267" y="554"/>
      <point x="281" y="554" type="curve" smooth="yes"/>
      <point x="294" y="554"/>
      <point x="306" y="543"/>
      <point x="306" y="530" type="curve" smooth="yes"/>
      <point x="306" y="516"/>
      <point x="294" y="504"/>
    </contour>
    <contour>
      <point x="280" y="2" type="curve"/>
      <point x="247" y="-44"/>
      <point x="156" y="-81"/>
      <point x="99" y="-80" type="curve"/>
      <point x="142" y="48"/>
      <point x="59" y="107"/>
      <point x="214" y="166" type="curve"/>
      <point x="150" y="274"/>
      <point x="122" y="361"/>
      <point x="122" y="432" type="curve" smooth="yes"/>
      <point x="122" y="545"/>
      <point x="209" y="681"/>
      <point x="280" y="681" type="curve" smooth="yes"/>
      <point x="351" y="681"/>
      <point x="438" y="545"/>
      <point x="438" y="432" type="curve" smooth="yes"/>
      <point x="438" y="361"/>
      <point x="400" y="274"/>
      <point x="336" y="166" type="curve"/>
      <point x="491" y="107"/>
      <point x="418" y="48"/>
      <point x="461" y="-80" type="curve"/>
      <point x="404" y="-81"/>
      <point x="313" y="-44"/>
    </contour>
  </outline>
</glyph>
<glyph name="brevecomb.case" format="2">
  <advance width="474"/>
  <anchor x="237" y="604" name="_top"/>
  <outline>
    <contour>
      <point x="454" y="817" type="curve"/>
      <point x="407" y="817" type="line"/>
      <point x="400" y="770"/>
      <point x="341" y="737"/>
      <point x="237" y="737" type="curve" smooth="yes"/>
      <point x="141" y="737"/>
      <point x="76" y="765"/>
      <point x="65" y="817" type="curve"/>
      <point x="20" y="817" type="line"/>
      <point x="22" y="733"/>
      <point x="112" y="675"/>
      <point x="237" y="675" type="curve" smooth="yes"/>
      <point x="362" y="675"/>
      <point x="453" y="733"/>
    </contour>
  </outline>
</glyph>
<glyph name="caroncomb.alt" format="2">
  <advance width="243"/>
  <anchor x="73" y="706" name="_topright"/>
  <outline>
    <contour>
      <point x="162" y="717" type="line"/>
      <point x="73" y="733" type="line"/>
      <point x="73" y="490" type="line"/>
      <point x="88" y="486" type="line"/>
    </contour>
  </outline>
</glyph>
<glyph name="circumflexcomb.case" format="2">
	<advance width="568"/>
	<anchor x="284" y="604" name="_top"/>
	<outline>
		<contour>
			<point x="284" y="810" type="line"/>
			<point x="47" y="702" type="line"/>
			<point x="56" y="682" type="line"/>
			<point x="284" y="736" type="line"/>
			<point x="512" y="682" type="line"/>
			<point x="521" y="702" type="line"/>
		</contour>
	</outline>
</glyph>
<glyph name="dieresiscomb.case" format="2">
  <advance width="410"/>
  <anchor x="205" y="605" name="_top"/>
  <outline>
    <contour>
      <point x="44" y="794" type="line"/>
      <point x="44" y="697" type="line"/>
      <point x="129" y="697" type="line"/>
      <point x="129" y="794" type="line"/>
    </contour>
    <contour>
      <point x="281" y="794" type="line"/>
      <point x="281" y="697" type="line"/>
      <point x="366" y="697" type="line"/>
      <point x="366" y="794" type="line"/>
    </contour>
  </outline>
</glyph>
<glyph name="dotaccentcomb.case" format="2">
	<advance width="165"/>
	<anchor x="83" y="605" name="_top"/>
	<outline>
		<contour>
			<point x="40" y="794" type="line"/>
			<point x="40" y="697" type="line"/>
			<point x="125" y="697" type="line"/>
			<point x="125" y="794" type="line"/>
		</contour>
	</outline>
</glyph>
<glyph name="f_b.liga" format="2">
  <advance width="1344"/>
  <outline>
    <contour>
      <point x="694" y="598" type="curve"/>
      <point x="694" y="58" type="line"/>
      <point x="755" y="9"/>
      <point x="866" y="-20"/>
      <point x="963" y="-20" type="curve" smooth="yes"/>
      <point x="1165" y="-20"/>
      <point x="1315" y="91"/>
      <point x="1315" y="230" type="curve" smooth="yes"/>
      <point x="1315" y="342"/>
      <point x="1207" y="435"/>
      <point x="1055" y="435" type="curve" smooth="yes"/>
      <point x="965" y="435"/>
      <point x="864" y="401"/>
      <point x="781" y="336" type="curve"/>
      <point x="781" y="720" type="line"/>
      <point x="749" y="688" type="line"/>
      <point x="626" y="717"/>
      <point x="580" y="725"/>
      <point x="481" y="725" type="curve" smooth="yes"/>
      <point x="234" y="725"/>
      <point x="125" y="626"/>
      <point x="125" y="464" type="curve" smooth="yes"/>
      <point x="125" y="415" type="line"/>
      <point x="15" y="378" type="line"/>
      <point x="17" y="368" type="line"/>
      <point x="125" y="368" type="line"/>
      <point x="126" y="50" type="line"/>
      <point x="6" y="8" type="line"/>
      <point x="8" y="0" type="line"/>
      <point x="430" y="0" type="line"/>
      <point x="432" y="8" type="line"/>
      <point x="212" y="49" type="line"/>
      <point x="212" y="375" type="line"/>
      <point x="501" y="375" type="line"/>
      <point x="518" y="273" type="line"/>
      <point x="526" y="271" type="line"/>
      <point x="579" y="415" type="line"/>
      <point x="212" y="415" type="line"/>
      <point x="212" y="464" type="line" smooth="yes"/>
      <point x="212" y="608"/>
      <point x="280" y="678"/>
      <point x="451" y="678" type="curve" smooth="yes"/>
      <point x="587" y="678"/>
      <point x="657" y="643"/>
    </contour>
    <contour>
      <point x="781" y="75" type="curve"/>
      <point x="781" y="285" type="line"/>
      <point x="852" y="354"/>
      <point x="924" y="385"/>
      <point x="1015" y="385" type="curve" smooth="yes"/>
      <point x="1156" y="385"/>
      <point x="1229" y="308"/>
      <point x="1229" y="198" type="curve" smooth="yes"/>
      <point x="1229" y="96"/>
      <point x="1134" y="23"/>
      <point x="998" y="23" type="curve" smooth="yes"/>
      <point x="922" y="23"/>
      <point x="831" y="40"/>
    </contour>
  </outline>
</glyph>
<glyph name="f_f" format="2">
	<advance width="1024"/>
	<outline>
		<contour>
			<point x="588" y="464" type="curve" smooth="yes"/>
			<point x="588" y="415" type="line"/>
			<point x="212" y="415" type="line"/>
			<point x="212" y="479" type="line" smooth="yes"/>
			<point x="212" y="577"/>
			<point x="264" y="648"/>
			<point x="378" y="648" type="curve" smooth="yes"/>
			<point x="470" y="648"/>
			<point x="544" y="619"/>
			<point x="599" y="566" type="curve"/>
			<point x="590" y="534"/>
			<point x="588" y="494"/>
		</contour>
		<contour>
			<point x="804" y="678" type="curve" smooth="yes"/>
			<point x="875" y="678"/>
			<point x="937" y="664"/>
			<point x="981" y="645" type="curve"/>
			<point x="997" y="494" type="line"/>
			<point x="1005" y="492" type="line"/>
			<point x="1063" y="667" type="line"/>
			<point x="988" y="700"/>
			<point x="876" y="725"/>
			<point x="804" y="725" type="curve" smooth="yes"/>
			<point x="720" y="725"/>
			<point x="658" y="691"/>
			<point x="622" y="626" type="curve"/>
			<point x="559" y="675"/>
			<point x="502" y="695"/>
			<point x="421" y="695" type="curve" smooth="yes"/>
			<point x="245" y="695"/>
			<point x="125" y="601"/>
			<point x="125" y="464" type="curve" smooth="yes"/>
			<point x="125" y="415" type="line"/>
			<point x="15" y="378" type="line"/>
			<point x="17" y="368" type="line"/>
			<point x="125" y="368" type="line"/>
			<point x="126" y="50" type="line"/>
			<point x="6" y="8" type="line"/>
			<point x="8" y="0" type="line"/>
			<point x="430" y="0" type="line"/>
			<point x="432" y="8" type="line"/>
			<point x="212" y="49" type="line"/>
			<point x="212" y="375" type="line"/>
			<point x="588" y="375" type="line"/>
			<point x="589" y="50" type="line"/>
			<point x="469" y="8" type="line"/>
			<point x="471" y="0" type="line"/>
			<point x="892" y="0" type="line"/>
			<point x="894" y="8" type="line"/>
			<point x="674" y="49" type="line"/>
			<point x="674" y="375" type="line"/>
			<point x="909" y="375" type="line"/>
			<point x="926" y="273" type="line"/>
			<point x="934" y="271" type="line"/>
			<point x="988" y="415" type="line"/>
			<point x="674" y="415" type="line"/>
			<point x="674" y="464" type="line" smooth="yes"/>
			<point x="674" y="639"/>
			<point x="698" y="678"/>
		</contour>
	</outline>
</glyph>
<glyph name="f_f_b.liga" format="2">
	<advance width="1792"/>
	<outline>
		<contour>
			<point x="1142" y="598" type="curve"/>
			<point x="1142" y="58" type="line"/>
			<point x="1202" y="10"/>
			<point x="1310" y="-20"/>
			<point x="1410" y="-20" type="curve" smooth="yes"/>
			<point x="1612" y="-20"/>
			<point x="1763" y="91"/>
			<point x="1763" y="230" type="curve" smooth="yes"/>
			<point x="1763" y="342"/>
			<point x="1654" y="435"/>
			<point x="1503" y="435" type="curve" smooth="yes"/>
			<point x="1412" y="435"/>
			<point x="1312" y="401"/>
			<point x="1228" y="336" type="curve"/>
			<point x="1228" y="720" type="line"/>
			<point x="1197" y="688" type="line"/>
			<point x="1074" y="717"/>
			<point x="1028" y="725"/>
			<point x="928" y="725" type="curve" smooth="yes"/>
			<point x="784" y="725"/>
			<point x="681" y="692"/>
			<point x="623" y="623" type="curve"/>
			<point x="572" y="667"/>
			<point x="493" y="695"/>
			<point x="421" y="695" type="curve" smooth="yes"/>
			<point x="232" y="695"/>
			<point x="125" y="597"/>
			<point x="125" y="464" type="curve" smooth="yes"/>
			<point x="125" y="415" type="line"/>
			<point x="15" y="378" type="line"/>
			<point x="17" y="368" type="line"/>
			<point x="125" y="368" type="line"/>
			<point x="126" y="50" type="line"/>
			<point x="6" y="8" type="line"/>
			<point x="8" y="0" type="line"/>
			<point x="430" y="0" type="line"/>
			<point x="432" y="8" type="line"/>
			<point x="212" y="49" type="line"/>
			<point x="212" y="375" type="line"/>
			<point x="572" y="375" type="line"/>
			<point x="573" y="50" type="line"/>
			<point x="453" y="8" type="line"/>
			<point x="455" y="0" type="line"/>
			<point x="877" y="0" type="line"/>
			<point x="879" y="8" type="line"/>
			<point x="659" y="49" type="line"/>
			<point x="659" y="372" type="line"/>
			<point x="948" y="372" type="line"/>
			<point x="965" y="270" type="line"/>
			<point x="973" y="268" type="line"/>
			<point x="1027" y="415" type="line"/>
			<point x="659" y="415" type="line"/>
			<point x="659" y="464" type="line" smooth="yes"/>
			<point x="659" y="608"/>
			<point x="725" y="678"/>
			<point x="898" y="678" type="curve" smooth="yes"/>
			<point x="1033" y="678"/>
			<point x="1105" y="643"/>
		</contour>
		<contour>
			<point x="212" y="415" type="line"/>
			<point x="212" y="479" type="line" smooth="yes"/>
			<point x="212" y="577"/>
			<point x="264" y="648"/>
			<point x="378" y="648" type="curve" smooth="yes"/>
			<point x="475" y="648"/>
			<point x="542" y="616"/>
			<point x="591" y="571" type="curve"/>
			<point x="579" y="540"/>
			<point x="572" y="506"/>
			<point x="572" y="464" type="curve" smooth="yes"/>
			<point x="572" y="415" type="line"/>
		</contour>
		<contour>
			<point x="1228" y="75" type="curve"/>
			<point x="1228" y="285" type="line"/>
			<point x="1299" y="354"/>
			<point x="1372" y="385"/>
			<point x="1463" y="385" type="curve" smooth="yes"/>
			<point x="1604" y="385"/>
			<point x="1676" y="308"/>
			<point x="1676" y="198" type="curve" smooth="yes"/>
			<point x="1676" y="97"/>
			<point x="1582" y="23"/>
			<point x="1446" y="23" type="curve" smooth="yes"/>
			<point x="1367" y="23"/>
			<point x="1274" y="42"/>
		</contour>
	</outline>
</glyph>
<glyph name="f_f_h.liga" format="2">
  <advance width="1901"/>
  <outline>
    <contour>
      <point x="1142" y="598" type="curve"/>
      <point x="1142" y="53" type="line"/>
      <point x="992" y="8" type="line"/>
      <point x="994" y="0" type="line"/>
      <point x="1376" y="0" type="line"/>
      <point x="1378" y="8" type="line"/>
      <point x="1228" y="53" type="line"/>
      <point x="1228" y="720" type="line"/>
      <point x="1197" y="688" type="line"/>
      <point x="1074" y="717"/>
      <point x="1028" y="725"/>
      <point x="928" y="725" type="curve" smooth="yes"/>
      <point x="784" y="725"/>
      <point x="681" y="692"/>
      <point x="623" y="623" type="curve"/>
      <point x="572" y="667"/>
      <point x="493" y="695"/>
      <point x="421" y="695" type="curve" smooth="yes"/>
      <point x="232" y="695"/>
      <point x="125" y="597"/>
      <point x="125" y="464" type="curve" smooth="yes"/>
      <point x="125" y="415" type="line"/>
      <point x="15" y="378" type="line"/>
      <point x="17" y="368" type="line"/>
      <point x="125" y="368" type="line"/>
      <point x="126" y="50" type="line"/>
      <point x="6" y="8" type="line"/>
      <point x="8" y="0" type="line"/>
      <point x="430" y="0" type="line"/>
      <point x="432" y="8" type="line"/>
      <point x="212" y="49" type="line"/>
      <point x="212" y="375" type="line"/>
      <point x="572" y="375" type="line"/>
      <point x="573" y="50" type="line"/>
      <point x="453" y="8" type="line"/>
      <point x="455" y="0" type="line"/>
      <point x="877" y="0" type="line"/>
      <point x="879" y="8" type="line"/>
      <point x="659" y="49" type="line"/>
      <point x="659" y="372" type="line"/>
      <point x="948" y="372" type="line"/>
      <point x="965" y="270" type="line"/>
      <point x="973" y="268" type="line"/>
      <point x="1027" y="415" type="line"/>
      <point x="659" y="415" type="line"/>
      <point x="659" y="464" type="line" smooth="yes"/>
      <point x="659" y="608"/>
      <point x="725" y="678"/>
      <point x="898" y="678" type="curve" smooth="yes"/>
      <point x="1033" y="678"/>
      <point x="1105" y="643"/>
    </contour>
    <contour>
      <point x="572" y="464" type="curve" smooth="yes"/>
      <point x="572" y="415" type="line"/>
      <point x="212" y="415" type="line"/>
      <point x="212" y="479" type="line" smooth="yes"/>
      <point x="212" y="577"/>
      <point x="264" y="648"/>
      <point x="378" y="648" type="curve" smooth="yes"/>
      <point x="475" y="648"/>
      <point x="542" y="616"/>
      <point x="591" y="571" type="curve"/>
      <point x="579" y="540"/>
      <point x="572" y="506"/>
    </contour>
    <contour>
      <point x="1196" y="323" type="curve"/>
      <point x="1196" y="284" type="line"/>
      <point x="1290" y="346"/>
      <point x="1387" y="379"/>
      <point x="1459" y="379" type="curve" smooth="yes"/>
      <point x="1584" y="379"/>
      <point x="1647" y="319"/>
      <point x="1648" y="213" type="curve" smooth="yes"/>
      <point x="1650" y="50" type="line"/>
      <point x="1500" y="8" type="line"/>
      <point x="1502" y="0" type="line"/>
      <point x="1893" y="1" type="line"/>
      <point x="1895" y="9" type="line"/>
      <point x="1735" y="49" type="line"/>
      <point x="1735" y="210" type="line" smooth="yes"/>
      <point x="1735" y="355"/>
      <point x="1650" y="435"/>
      <point x="1506" y="435" type="curve" smooth="yes"/>
      <point x="1410" y="435"/>
      <point x="1305" y="398"/>
    </contour>
  </outline>
</glyph>
<glyph name="f_f_l.liga" format="2">
	<advance width="1373"/>
	<outline>
		<contour>
			<point x="572" y="464" type="curve" smooth="yes"/>
			<point x="572" y="415" type="line"/>
			<point x="212" y="415" type="line"/>
			<point x="212" y="479" type="line" smooth="yes"/>
			<point x="212" y="577"/>
			<point x="264" y="648"/>
			<point x="378" y="648" type="curve" smooth="yes"/>
			<point x="475" y="648"/>
			<point x="542" y="616"/>
			<point x="591" y="571" type="curve"/>
			<point x="579" y="540"/>
			<point x="572" y="506"/>
		</contour>
		<contour>
			<point x="1142" y="598" type="curve"/>
			<point x="1142" y="53" type="line"/>
			<point x="992" y="8" type="line"/>
			<point x="994" y="0" type="line"/>
			<point x="1376" y="0" type="line"/>
			<point x="1378" y="8" type="line"/>
			<point x="1228" y="53" type="line"/>
			<point x="1228" y="720" type="line"/>
			<point x="1197" y="688" type="line"/>
			<point x="1074" y="717"/>
			<point x="1028" y="725"/>
			<point x="928" y="725" type="curve" smooth="yes"/>
			<point x="784" y="725"/>
			<point x="681" y="692"/>
			<point x="623" y="623" type="curve"/>
			<point x="572" y="667"/>
			<point x="493" y="695"/>
			<point x="421" y="695" type="curve" smooth="yes"/>
			<point x="232" y="695"/>
			<point x="125" y="597"/>
			<point x="125" y="464" type="curve" smooth="yes"/>
			<point x="125" y="415" type="line"/>
			<point x="15" y="378" type="line"/>
			<point x="17" y="368" type="line"/>
			<point x="125" y="368" type="line"/>
			<point x="126" y="50" type="line"/>
			<point x="6" y="8" type="line"/>
			<point x="8" y="0" type="line"/>
			<point x="430" y="0" type="line"/>
			<point x="432" y="8" type="line"/>
			<point x="212" y="49" type="line"/>
			<point x="212" y="375" type="line"/>
			<point x="572" y="375" type="line"/>
			<point x="573" y="50" type="line"/>
			<point x="453" y="8" type="line"/>
			<point x="455" y="0" type="line"/>
			<point x="877" y="0" type="line"/>
			<point x="879" y="8" type="line"/>
			<point x="659" y="49" type="line"/>
			<point x="659" y="372" type="line"/>
			<point x="948" y="372" type="line"/>
			<point x="965" y="270" type="line"/>
			<point x="973" y="268" type="line"/>
			<point x="1027" y="415" type="line"/>
			<point x="659" y="415" type="line"/>
			<point x="659" y="464" type="line" smooth="yes"/>
			<point x="659" y="608"/>
			<point x="725" y="678"/>
			<point x="898" y="678" type="curve" smooth="yes"/>
			<point x="1033" y="678"/>
			<point x="1105" y="643"/>
		</contour>
	</outline>
</glyph>
<glyph name="f_h.liga" format="2">
  <advance width="1454"/>
  <outline>
    <contour>
      <point x="125" y="464" type="curve" smooth="yes"/>
      <point x="125" y="415" type="line"/>
      <point x="15" y="378" type="line"/>
      <point x="17" y="368" type="line"/>
      <point x="125" y="368" type="line"/>
      <point x="126" y="50" type="line"/>
      <point x="6" y="8" type="line"/>
      <point x="8" y="0" type="line"/>
      <point x="430" y="0" type="line"/>
      <point x="432" y="8" type="line"/>
      <point x="212" y="49" type="line"/>
      <point x="212" y="375" type="line"/>
      <point x="501" y="375" type="line"/>
      <point x="518" y="273" type="line"/>
      <point x="526" y="271" type="line"/>
      <point x="579" y="415" type="line"/>
      <point x="212" y="415" type="line"/>
      <point x="212" y="464" type="line" smooth="yes"/>
      <point x="212" y="608"/>
      <point x="280" y="678"/>
      <point x="451" y="678" type="curve" smooth="yes"/>
      <point x="587" y="678"/>
      <point x="657" y="643"/>
      <point x="694" y="598" type="curve"/>
      <point x="694" y="50" type="line"/>
      <point x="544" y="8" type="line"/>
      <point x="546" y="0" type="line"/>
      <point x="929" y="0" type="line"/>
      <point x="931" y="7" type="line"/>
      <point x="781" y="50" type="line"/>
      <point x="781" y="720" type="line"/>
      <point x="749" y="688" type="line"/>
      <point x="626" y="717"/>
      <point x="580" y="725"/>
      <point x="481" y="725" type="curve" smooth="yes"/>
      <point x="234" y="725"/>
      <point x="125" y="626"/>
    </contour>
    <contour>
      <point x="749" y="323" type="curve"/>
      <point x="749" y="284" type="line"/>
      <point x="835" y="342"/>
      <point x="936" y="379"/>
      <point x="1011" y="379" type="curve" smooth="yes"/>
      <point x="1128" y="379"/>
      <point x="1200" y="327"/>
      <point x="1201" y="213" type="curve" smooth="yes"/>
      <point x="1202" y="50" type="line"/>
      <point x="1052" y="8" type="line"/>
      <point x="1054" y="0" type="line"/>
      <point x="1446" y="1" type="line"/>
      <point x="1448" y="9" type="line"/>
      <point x="1287" y="49" type="line"/>
      <point x="1287" y="210" type="line" smooth="yes"/>
      <point x="1287" y="355"/>
      <point x="1203" y="435"/>
      <point x="1058" y="435" type="curve" smooth="yes"/>
      <point x="962" y="435"/>
      <point x="857" y="397"/>
    </contour>
  </outline>
</glyph>
<glyph name="f_k.liga" format="2">
  <advance width="1430"/>
  <outline>
    <contour>
      <point x="125" y="464" type="curve" smooth="yes"/>
      <point x="125" y="415" type="line"/>
      <point x="15" y="378" type="line"/>
      <point x="17" y="368" type="line"/>
      <point x="125" y="368" type="line"/>
      <point x="126" y="50" type="line"/>
      <point x="6" y="8" type="line"/>
      <point x="8" y="0" type="line"/>
      <point x="430" y="0" type="line"/>
      <point x="432" y="8" type="line"/>
      <point x="212" y="49" type="line"/>
      <point x="212" y="375" type="line"/>
      <point x="501" y="375" type="line"/>
      <point x="518" y="273" type="line"/>
      <point x="526" y="271" type="line"/>
      <point x="579" y="415" type="line"/>
      <point x="212" y="415" type="line"/>
      <point x="212" y="464" type="line" smooth="yes"/>
      <point x="212" y="608"/>
      <point x="280" y="678"/>
      <point x="451" y="678" type="curve" smooth="yes"/>
      <point x="587" y="678"/>
      <point x="657" y="643"/>
      <point x="694" y="598" type="curve"/>
      <point x="694" y="50" type="line"/>
      <point x="544" y="8" type="line"/>
      <point x="546" y="0" type="line"/>
      <point x="929" y="0" type="line"/>
      <point x="931" y="8" type="line"/>
      <point x="781" y="50" type="line"/>
      <point x="781" y="720" type="line"/>
      <point x="749" y="688" type="line"/>
      <point x="626" y="717"/>
      <point x="580" y="725"/>
      <point x="481" y="725" type="curve" smooth="yes"/>
      <point x="234" y="725"/>
      <point x="125" y="626"/>
    </contour>
    <contour>
      <point x="762" y="118" type="line"/>
      <point x="1217" y="365" type="line"/>
      <point x="1361" y="407" type="line"/>
      <point x="1359" y="415" type="line"/>
      <point x="963" y="415" type="line"/>
      <point x="961" y="407" type="line"/>
      <point x="1107" y="365" type="line"/>
      <point x="734" y="146" type="line"/>
    </contour>
    <contour>
      <point x="985" y="251" type="line"/>
      <point x="923" y="221" type="line"/>
      <point x="1184" y="50" type="line"/>
      <point x="1024" y="8" type="line"/>
      <point x="1026" y="0" type="line"/>
      <point x="1433" y="0" type="line"/>
      <point x="1435" y="8" type="line"/>
      <point x="1293" y="50" type="line"/>
    </contour>
  </outline>
</glyph>
